<svg width="96" height="79" viewBox="0 0 96 79" fill="none" xmlns="http://www.w3.org/2000/svg">
<path d="M63.4633 46.8299L58.1417 31.6254C56.6911 27.4829 52.7659 24.698 48.3752 24.698H20.5984C16.2077 24.698 12.2825 27.4829 10.8344 31.6228L5.51286 46.8273C2.67106 48.6969 0.871338 51.9265 0.871338 55.4794V73.8283C0.871338 76.6856 3.18563 78.9999 6.04295 78.9999C8.90026 78.9999 11.2146 76.6856 11.2146 73.8283V70.5676C11.2146 70.5676 24.8702 71.2425 34.4868 71.2425C44.1034 71.2425 57.759 70.5676 57.759 70.5676V73.8283C57.759 76.6856 60.0733 78.9999 62.9307 78.9999C65.788 78.9999 68.1023 76.6856 68.1023 73.8283V55.4794C68.1023 51.9265 66.3 48.6969 63.4633 46.8299ZM12.7531 41.7979L15.7164 33.332C16.4431 31.2582 18.4005 29.8696 20.5984 29.8696H48.3752C50.5731 29.8696 52.5306 31.2582 53.2572 33.332L56.2205 41.7979C56.6859 43.1296 55.5766 44.4717 54.1829 44.2467C49.1121 43.427 42.5933 42.7986 34.4868 42.7986C26.3803 42.7986 19.8615 43.427 14.7907 44.2467C13.397 44.4717 12.2877 43.1296 12.7531 41.7979ZM12.5075 60.8993C10.3664 60.8993 8.62875 59.1616 8.62875 57.0206C8.62875 54.8795 10.3664 53.1419 12.5075 53.1419C14.6485 53.1419 16.3862 54.8795 16.3862 57.0206C16.3862 59.1616 14.6485 60.8993 12.5075 60.8993ZM42.2442 58.3135H26.7294C25.302 58.3135 24.1436 57.155 24.1436 55.7277C24.1436 54.3003 25.302 53.1419 26.7294 53.1419H42.2442C43.6716 53.1419 44.83 54.3003 44.83 55.7277C44.83 57.155 43.6716 58.3135 42.2442 58.3135ZM56.4661 60.8993C54.3251 60.8993 52.5874 59.1616 52.5874 57.0206C52.5874 54.8795 54.3251 53.1419 56.4661 53.1419C58.6072 53.1419 60.3449 54.8795 60.3449 57.0206C60.3449 59.1616 58.6072 60.8993 56.4661 60.8993Z" fill="#0041A1"/>
<path fill-rule="evenodd" clip-rule="evenodd" d="M73.306 29.326C73.5804 29.3625 73.8589 29.3017 74.0931 29.1541L94.3778 16.3711C94.9307 16.0227 95.0965 15.292 94.7481 14.7391L86.1526 1.09945C85.8042 0.546571 85.0736 0.38082 84.5207 0.729233L64.2359 13.5123C64.0017 13.6599 63.8267 13.8849 63.7413 14.1482L59.8552 26.1253C59.6271 26.8282 60.092 27.5658 60.8245 27.6634L73.306 29.326ZM85.8092 12.3692C86.1025 12.4386 86.3378 12.6139 86.515 12.8951C86.7047 13.1961 86.7576 13.5001 86.6738 13.8071C86.5933 14.1121 86.3644 14.3834 85.9873 14.621C85.6036 14.8628 85.2339 14.9363 84.8784 14.8415C84.5261 14.7446 84.2187 14.4877 83.956 14.0709L82.7502 14.8308C83.163 15.4858 83.6698 15.9012 84.2706 16.0772C84.8747 16.2511 85.5272 16.1681 86.2281 15.8281L86.8347 16.7908L87.6237 16.2936L87.0139 15.326C87.5863 14.8774 87.9334 14.3722 88.0552 13.8101C88.1804 13.2459 88.0668 12.6843 87.7145 12.1253C87.5269 11.8275 87.3186 11.596 87.0896 11.4306C86.8606 11.2653 86.6102 11.1504 86.3385 11.0859C86.0647 11.0181 85.7654 10.9942 85.4405 11.014C85.1156 11.0339 84.6925 11.0995 84.1711 11.2108C83.6496 11.3222 83.2454 11.3482 82.9584 11.2887C82.6726 11.2239 82.439 11.0475 82.2576 10.7597C82.0554 10.4389 81.9894 10.1361 82.0596 9.85154C82.1299 9.56694 82.3238 9.32458 82.6413 9.12446C82.9622 8.92224 83.2914 8.88351 83.6288 9.00826C83.9675 9.12761 84.2681 9.39569 84.5308 9.81251L85.7316 9.05577C85.323 8.40739 84.8344 7.98044 84.2658 7.7749C83.6952 7.56605 83.096 7.60164 82.4682 7.88167L81.7803 6.79001L80.9864 7.29033L81.6681 8.37207C81.1375 8.79888 80.8166 9.29454 80.7056 9.85905C80.5945 10.4236 80.712 10.9804 81.0581 11.5295C81.5688 12.34 82.3399 12.7091 83.3712 12.6369C83.682 12.6167 84.0927 12.5497 84.6033 12.4359C85.1119 12.3188 85.5138 12.2965 85.8092 12.3692Z" fill="#0041A1"/>
</svg>
