<svg width="43" height="32" viewBox="0 0 43 32" fill="none" xmlns="http://www.w3.org/2000/svg">
<path d="M35.8333 0H7.16667C3.225 0 0 3.19999 0 7.11109V8.88886C0 9.95552 0.716667 10.6666 1.79167 10.6666H41.2083C42.2833 10.6666 43 9.95552 43 8.88886V7.11109C43 3.19999 39.775 0 35.8333 0Z" fill="#0041A1"/>
<path d="M41.2083 14.2222H1.79167C0.716667 14.2222 0 14.9333 0 15.9999V24.8888C0 28.8 3.225 32 7.16667 32H35.8333C39.775 32 43 28.8 43 24.8888V15.9999C43 14.9333 42.2833 14.2222 41.2083 14.2222ZM19.7083 26.6666H8.95833C7.88333 26.6666 7.16667 25.9555 7.16667 24.8888C7.16667 23.8222 7.88333 23.1111 8.95833 23.1111H19.7083C20.7833 23.1111 21.5 23.8222 21.5 24.8888C21.5 25.9555 20.7833 26.6666 19.7083 26.6666ZM34.0417 21.3333H30.4583C29.3833 21.3333 28.6667 20.6222 28.6667 19.5555C28.6667 18.4888 29.3833 17.7777 30.4583 17.7777H34.0417C35.1167 17.7777 35.8333 18.4888 35.8333 19.5555C35.8333 20.6222 35.1167 21.3333 34.0417 21.3333Z" fill="#0041A1"/>
</svg>
