<svg width="37" height="34" viewBox="0 0 37 34" fill="none" xmlns="http://www.w3.org/2000/svg">
<path d="M7.64232 17.2394C5.46767 17.2394 3.69689 16.6808 2.32997 15.5634C0.994123 14.4141 0.248531 12.8817 0.0931991 10.9662C0.0310664 10.0085 0 9.32207 0 8.90704C0 8.46009 0.0310664 7.59812 0.0931991 6.32113C0.217464 4.37371 0.93199 2.84132 2.23678 1.72395C3.57263 0.574652 5.37448 0 7.64232 0C9.91016 0 11.6965 0.574652 13.0013 1.72395C14.3371 2.84132 15.0672 4.37371 15.1914 6.32113C15.2536 7.59812 15.2846 8.46009 15.2846 8.90704C15.2846 9.32207 15.2536 10.0085 15.1914 10.9662C15.0361 12.8817 14.275 14.4141 12.9081 15.5634C11.5722 16.6808 9.81696 17.2394 7.64232 17.2394ZM4.10076 33.7606C3.75903 33.7606 3.47943 33.6808 3.26196 33.5211C3.07557 33.3296 2.98237 33.0901 2.98237 32.8028C2.98237 32.6113 3.0445 32.4357 3.16877 32.2761L26.1889 1.1493C26.4374 0.830048 26.6704 0.606576 26.8879 0.478877C27.1364 0.319252 27.4626 0.239438 27.8665 0.239438H32.7128C33.0546 0.239438 33.3186 0.335214 33.505 0.526764C33.7225 0.686388 33.8312 0.909864 33.8312 1.19719C33.8312 1.38874 33.7691 1.56432 33.6448 1.72395L10.6247 32.8507C10.3762 33.17 10.1276 33.4094 9.87909 33.569C9.66163 33.6967 9.35097 33.7606 8.9471 33.7606H4.10076ZM7.64232 12.0676C8.35684 12.0676 8.74517 11.5887 8.8073 10.631C8.86944 9.73709 8.9005 9.06667 8.9005 8.61972C8.9005 8.077 8.86944 7.42254 8.8073 6.65634C8.74517 5.69859 8.35684 5.21972 7.64232 5.21972C6.92779 5.21972 6.53946 5.69859 6.47733 6.65634C6.44626 7.03944 6.43073 7.6939 6.43073 8.61972C6.43073 9.51362 6.44626 10.184 6.47733 10.631C6.53946 11.5887 6.92779 12.0676 7.64232 12.0676ZM29.3577 34C27.183 34 25.4123 33.4413 24.0453 32.3239C22.7095 31.1746 21.9639 29.6423 21.8086 27.7268C21.7464 26.769 21.7154 26.0826 21.7154 25.6676C21.7154 25.2207 21.7464 24.3587 21.8086 23.0817C21.9328 21.1343 22.6474 19.6019 23.9521 18.4845C25.288 17.3352 27.0898 16.7606 29.3577 16.7606C31.6255 16.7606 33.4118 17.3352 34.7166 18.4845C36.0525 19.6019 36.7825 21.1343 36.9068 23.0817C36.9689 24.3587 37 25.2207 37 25.6676C37 26.0826 36.9689 26.769 36.9068 27.7268C36.7515 29.6423 35.9903 31.1746 34.6234 32.3239C33.2876 33.4413 31.5323 34 29.3577 34ZM29.3577 28.8282C30.0722 28.8282 30.4605 28.3493 30.5227 27.3916C30.5848 26.4977 30.6159 25.8272 30.6159 25.3803C30.6159 24.8376 30.5848 24.1831 30.5227 23.4169C30.4605 22.4592 30.0722 21.9803 29.3577 21.9803C28.6432 21.9803 28.2548 22.4592 28.1927 23.4169C28.1616 23.8 28.1461 24.4545 28.1461 25.3803C28.1461 26.2742 28.1616 26.9446 28.1927 27.3916C28.2548 28.3493 28.6432 28.8282 29.3577 28.8282Z" fill="#0041A1"/>
</svg>
