<svg width="36" height="40" viewBox="0 0 36 40" fill="none" xmlns="http://www.w3.org/2000/svg">
<path d="M18.3229 13.485C19.1501 12.654 20.1861 12.0615 21.3217 11.7698V3.28026C21.3217 2.41028 20.9761 1.57594 20.3609 0.960767C19.7458 0.345598 18.9114 0 18.0415 0L3.28026 0C2.41028 0 1.57594 0.345598 0.960767 0.960767C0.345598 1.57594 0 2.41028 0 3.28026V18.0415C0 18.9114 0.345598 19.7458 0.960767 20.3609C1.57594 20.9761 2.41028 21.3217 3.28026 21.3217H10.4862L18.3229 13.485ZM14.7612 4.9204C15.0856 4.9204 15.4027 5.01659 15.6724 5.19681C15.9421 5.37703 16.1523 5.63318 16.2765 5.93288C16.4006 6.23257 16.4331 6.56235 16.3698 6.8805C16.3065 7.19866 16.1503 7.4909 15.9209 7.72028C15.6916 7.94965 15.3993 8.10586 15.0812 8.16915C14.763 8.23243 14.4332 8.19995 14.1335 8.07581C13.8338 7.95167 13.5777 7.74146 13.3975 7.47174C13.2172 7.20202 13.1211 6.88492 13.1211 6.56053C13.1211 6.12554 13.2939 5.70836 13.6014 5.40078C13.909 5.0932 14.3262 4.9204 14.7612 4.9204ZM14.7612 11.4809C15.0856 11.4809 15.4027 11.5771 15.6724 11.7573C15.9421 11.9376 16.1523 12.1937 16.2765 12.4934C16.4006 12.7931 16.4331 13.1229 16.3698 13.441C16.3065 13.7592 16.1503 14.0514 15.9209 14.2808C15.6916 14.5102 15.3993 14.6664 15.0812 14.7297C14.763 14.793 14.4332 14.7605 14.1335 14.6363C13.8338 14.5122 13.5777 14.302 13.3975 14.0323C13.2172 13.7625 13.1211 13.4454 13.1211 13.1211C13.1211 12.6861 13.2939 12.2689 13.6014 11.9613C13.909 11.6537 14.3262 11.4809 14.7612 11.4809ZM6.56053 4.9204C6.88492 4.9204 7.20202 5.01659 7.47174 5.19681C7.74146 5.37703 7.95167 5.63318 8.07581 5.93288C8.19995 6.23257 8.23243 6.56235 8.16915 6.8805C8.10586 7.19866 7.94965 7.4909 7.72028 7.72028C7.4909 7.94965 7.19866 8.10586 6.8805 8.16915C6.56235 8.23243 6.23257 8.19995 5.93288 8.07581C5.63318 7.95167 5.37703 7.74146 5.19681 7.47174C5.01659 7.20202 4.9204 6.88492 4.9204 6.56053C4.9204 6.12554 5.0932 5.70836 5.40078 5.40078C5.70836 5.0932 6.12554 4.9204 6.56053 4.9204ZM6.56053 16.4013C6.23614 16.4013 5.91904 16.3051 5.64932 16.1249C5.3796 15.9447 5.16938 15.6885 5.04524 15.3888C4.92111 15.0891 4.88863 14.7594 4.95191 14.4412C5.0152 14.1231 5.1714 13.8308 5.40078 13.6014C5.63016 13.3721 5.9224 13.2159 6.24055 13.1526C6.55871 13.0893 6.88848 13.1218 7.18818 13.2459C7.48787 13.37 7.74403 13.5803 7.92425 13.85C8.10447 14.1197 8.20066 14.4368 8.20066 14.7612C8.20066 15.1962 8.02786 15.6134 7.72028 15.9209C7.41269 16.2285 6.99552 16.4013 6.56053 16.4013Z" fill="#0041A1"/>
<path d="M34.5589 22.7631L26.1663 14.3704C25.8888 14.092 25.5635 13.8658 25.2058 13.7026C23.1288 12.761 20.9325 13.1944 19.4824 14.6457L11.0896 23.0374C10.8112 23.3149 10.585 23.6403 10.4219 23.9979C9.48023 26.075 9.91364 28.2713 11.3649 29.7214L19.7575 38.1142C20.035 38.3926 20.3604 38.6188 20.718 38.7819C22.795 39.7235 24.9914 39.2901 26.4415 37.8388L34.8342 29.4463C35.1126 29.1688 35.3388 28.8434 35.502 28.4858C36.4428 26.4096 36.0094 24.2126 34.5589 22.7631ZM22.9615 27.8824C22.6371 27.8824 22.32 27.7862 22.0503 27.606C21.7806 27.4258 21.5704 27.1696 21.4462 26.8699C21.3221 26.5702 21.2896 26.2404 21.3529 25.9223C21.4162 25.6041 21.5724 25.3119 21.8018 25.0825C22.0311 24.8531 22.3234 24.6969 22.6415 24.6336C22.9597 24.5704 23.2895 24.6028 23.5892 24.727C23.8888 24.8511 24.145 25.0613 24.3252 25.3311C24.5054 25.6008 24.6016 25.9179 24.6016 26.2423C24.6016 26.6773 24.4288 27.0944 24.1213 27.402C23.8137 27.7096 23.3965 27.8824 22.9615 27.8824Z" fill="#0041A1"/>
</svg>
