<svg width="95" height="82" viewBox="0 0 95 82" fill="none" xmlns="http://www.w3.org/2000/svg">
<path d="M6.10505 29.6838C6.2883 27.9821 7.72466 26.6921 9.43618 26.6921H53.6741C55.3857 26.6921 56.822 27.9821 57.0053 29.6838L62.1468 77.4269C62.3602 79.4078 60.8081 81.136 58.8157 81.136H4.29461C2.30226 81.136 0.750157 79.4078 0.963483 77.4269L6.10505 29.6838Z" fill="white"/>
<path fill-rule="evenodd" clip-rule="evenodd" d="M31.5552 5.12398C25.4258 5.12398 20.457 10.0928 20.457 16.2221V26.6921H15.4314V16.2221C15.4314 7.31724 22.6502 0.0983887 31.5552 0.0983887C40.4601 0.0983887 47.6789 7.31724 47.6789 16.2221V26.6921H42.6533V16.2221C42.6533 10.0928 37.6845 5.12398 31.5552 5.12398Z" fill="white"/>
<path d="M60.9533 51.2081C61.1366 49.5064 62.5729 48.2164 64.2844 48.2164H88.6538C90.3653 48.2164 91.8017 49.5064 91.9849 51.2081L94.8085 77.4268C95.0218 79.4077 93.4697 81.136 91.4774 81.136H61.4609C59.4685 81.136 57.9164 79.4077 58.1297 77.4268L60.9533 51.2081Z" fill="white"/>
<path fill-rule="evenodd" clip-rule="evenodd" d="M76.469 35.1752C72.7629 35.1752 69.7585 38.1796 69.7585 41.8857V48.2164H66.7197V41.8857C66.7197 36.5014 71.0846 32.1365 76.469 32.1365C81.8533 32.1365 86.2182 36.5014 86.2182 41.8857V48.2164H83.1795V41.8857C83.1795 38.1796 80.1751 35.1752 76.469 35.1752Z" fill="white"/>
<path fill-rule="evenodd" clip-rule="evenodd" d="M80.4345 18.3285L72.4388 26.3241C71.9482 26.8148 71.1527 26.8148 70.662 26.3241L62.6664 18.3285C62.1757 17.8378 62.1757 17.0423 62.6664 16.5517C63.157 16.061 63.9525 16.061 64.4432 16.5517L70.294 22.4025L70.294 0.0983882L72.8068 0.0983883L72.8068 22.4025L78.6577 16.5517C79.1483 16.061 79.9438 16.061 80.4345 16.5517C80.9252 17.0423 80.9252 17.8378 80.4345 18.3285Z" fill="white"/>
</svg>
