<svg width="44" height="44" viewBox="0 0 44 44" fill="none" xmlns="http://www.w3.org/2000/svg">
<path fill-rule="evenodd" clip-rule="evenodd" d="M44 22C44 34.1503 34.1503 44 22 44C9.84974 44 0 34.1503 0 22C0 9.84974 9.84974 0 22 0C34.1503 0 44 9.84974 44 22ZM32.718 15.5433C31.2983 14.0689 28.9964 14.0689 27.5767 15.5433L24.2348 19.0136C22.8151 20.488 22.8151 22.8784 24.2348 24.3527L27.5767 27.8231C28.9964 29.2975 31.2983 29.2975 32.718 27.8231L36.0599 24.3527C37.4796 22.8784 37.4796 20.488 36.0599 19.0136L32.718 15.5433ZM29.9342 18.3938C30.293 18.0293 30.2993 17.4318 29.9483 17.0591C29.5973 16.6865 29.0219 16.6799 28.6631 17.0444L26.4575 19.285C25.156 20.6071 25.156 22.7593 26.4575 24.0814L28.6631 26.3219C29.0219 26.6864 29.5973 26.6799 29.9483 26.3072C30.2993 25.9346 30.293 25.3371 29.9342 24.9725L27.7286 22.732C27.156 22.1503 27.156 21.216 27.7286 20.6344L29.9342 18.3938ZM11.2817 15.5433C12.7014 14.0689 15.0033 14.0689 16.423 15.5433L19.7648 19.0136C21.1846 20.488 21.1846 22.8784 19.7648 24.3527L16.423 27.8231C15.0033 29.2975 12.7014 29.2975 11.2817 27.8231L7.9398 24.3527C6.52007 22.8784 6.52007 20.488 7.9398 19.0136L11.2817 15.5433ZM14.1115 17.0591C13.7605 17.4318 13.7668 18.0293 14.1256 18.3938L16.3312 20.6344C16.9038 21.216 16.9038 22.1503 16.3312 22.732L14.1256 24.9725C13.7668 25.3371 13.7605 25.9346 14.1115 26.3072C14.4625 26.6799 15.0379 26.6864 15.3967 26.3219L17.6024 24.0814C18.9038 22.7593 18.9038 20.6071 17.6024 19.285L15.3967 17.0444C15.0379 16.6799 14.4625 16.6865 14.1115 17.0591Z" fill="#0041A1"/>
</svg>
