<svg width="43" height="37" viewBox="0 0 43 37" fill="none" xmlns="http://www.w3.org/2000/svg">
<path d="M41.8121 28.0562L33.8831 21.4487C33.4893 21.1183 32.9396 21.0523 32.477 21.2663C32.0119 21.4857 31.7159 21.9509 31.7159 22.4636V26.4281H29.5037C27.6695 26.4281 25.9938 25.4978 25.0212 23.9437L16.4632 10.253C14.5206 7.1422 11.1693 5.28418 7.49816 5.28418H0V10.5702H7.49816C9.33239 10.5702 11.008 11.5005 11.9807 13.0546L20.5387 26.7452C22.4839 29.856 25.8352 31.7141 29.5037 31.7141H31.7159V35.6786C31.7159 36.1913 32.0119 36.6565 32.477 36.8758C32.6541 36.9578 32.8471 37 33.0374 37C33.3413 37 33.6426 36.897 33.8831 36.6935L41.8121 30.086C42.116 29.8349 42.2878 29.4622 42.2878 29.0711C42.2878 28.6799 42.116 28.3073 41.8121 28.0562Z" fill="#0041A1"/>
<path d="M41.8114 6.91209L33.8824 0.304622C33.4886 -0.0231088 32.9389 -0.0918267 32.4763 0.124898C32.0112 0.33898 31.7152 0.80679 31.7152 1.31953V5.28401H29.503C25.8319 5.28401 22.4805 7.14203 20.538 10.2528L20.0596 11.0193L23.1757 16.0066L25.0205 13.0544C25.9931 11.5003 27.6687 10.57 29.503 10.57H31.7152V14.5345C31.7152 15.0472 32.0112 15.515 32.4763 15.7317C32.6534 15.8137 32.8464 15.856 33.0366 15.856C33.3406 15.856 33.6419 15.7502 33.8824 15.5494L41.8114 8.94191C42.1153 8.69083 42.2871 8.31816 42.2871 7.927C42.2871 7.53584 42.1153 7.16318 41.8114 6.91209Z" fill="#0041A1"/>
<path d="M13.8255 20.9912L11.9833 23.9434C11.0107 25.4975 9.33239 26.4278 7.49816 26.4278H0V31.7138H7.49816C11.1666 31.7138 14.5179 29.8558 16.4632 26.745L16.9416 25.9785L13.8255 20.9912Z" fill="#0041A1"/>
</svg>
