<svg width="46" height="48" viewBox="0 0 46 48" fill="none" xmlns="http://www.w3.org/2000/svg">
<path d="M5.24181 10.3385C6.27872 10.3388 7.29242 10.0359 8.15473 9.46809C9.01703 8.90033 9.68922 8.09321 10.0863 7.14881C10.4834 6.2044 10.5875 5.16511 10.3855 4.16236C10.1836 3.15961 9.68453 2.23842 8.95157 1.51527C8.21861 0.792129 7.28462 0.299507 6.2677 0.0996951C5.25079 -0.100117 4.19661 0.00185452 3.23847 0.392716C2.28033 0.783578 1.46126 1.44578 0.884822 2.29558C0.308383 3.14538 0.000464078 4.14463 5.23969e-07 5.16697C-0.000307324 5.8459 0.13504 6.51825 0.398313 7.1456C0.661587 7.77296 1.04763 8.34304 1.53439 8.82328C2.02115 9.30352 2.5991 9.68452 3.23523 9.94451C3.87135 10.2045 4.55319 10.3384 5.24181 10.3385Z" fill="#0041A1"/>
<path d="M18.8209 22.5236C15.3604 21.954 12.9217 20.1215 11.4744 18.6692C10.5744 17.7668 10.0682 16.5987 9.65919 15.3983C9.37582 14.5578 8.83138 13.8265 8.10302 13.3081C7.37466 12.7897 6.49931 12.5104 5.60098 12.5098H5.39239C4.83044 12.5098 4.274 12.619 3.75488 12.8311C3.23577 13.0433 2.76416 13.3543 2.36702 13.7462C1.96988 14.1382 1.65499 14.6036 1.44037 15.1156C1.22575 15.6276 1.1156 16.1764 1.11621 16.7304V43.6812C1.11621 44.2484 1.22952 44.81 1.44966 45.334C1.6698 45.858 1.99246 46.3341 2.39922 46.7351C2.80599 47.1362 3.28889 47.4543 3.82035 47.6713C4.35181 47.8884 4.92143 48.0001 5.49668 48.0001C6.07194 48.0001 6.64155 47.8884 7.17302 47.6713C7.70448 47.4543 8.18738 47.1362 8.59415 46.7351C9.00091 46.3341 9.32357 45.858 9.54371 45.334C9.76385 44.81 9.87716 44.2484 9.87716 43.6812V24.4392C9.87716 24.4392 12.092 27.2053 17.9291 27.969C18.3142 28.0189 18.7057 27.9873 19.0774 27.8764C19.4492 27.7654 19.7927 27.5776 20.0851 27.3255C20.3775 27.0735 20.6121 26.7628 20.7731 26.4144C20.9342 26.0659 21.0182 25.6876 21.0193 25.3046V25.1891C21.0193 23.9008 20.1111 22.7362 18.8209 22.5236Z" fill="#0041A1"/>
<path d="M40.6318 10.3385C41.6687 10.3383 42.6821 10.035 43.5441 9.46697C44.4061 8.89892 45.078 8.09165 45.4747 7.1472C45.8714 6.20276 45.9752 5.16354 45.7729 4.16094C45.5707 3.15834 45.0715 2.23737 44.3384 1.51446C43.6054 0.791543 42.6714 0.299151 41.6545 0.0995259C40.6377 -0.100099 39.5836 0.00200737 38.6256 0.392937C37.6676 0.783867 36.8487 1.44607 36.2724 2.29582C35.696 3.14557 35.3882 4.14473 35.3877 5.16697C35.3874 5.8461 35.5228 6.51863 35.7862 7.14614C36.0497 7.77364 36.4359 8.34383 36.9229 8.8241C37.4099 9.30437 37.9882 9.68532 38.6245 9.94517C39.2609 10.205 39.943 10.3387 40.6318 10.3385Z" fill="#0041A1"/>
<path d="M40.4805 12.4807H40.2719C39.3736 12.4813 38.4982 12.7606 37.7698 13.2791C37.0415 13.7975 36.497 14.5287 36.2137 15.3692C35.8082 16.5697 35.2984 17.7378 34.3984 18.6402C32.9512 20.0937 30.5125 21.925 27.052 22.4946C25.7629 22.7072 24.8535 23.8718 24.8535 25.1613V25.2768C24.8547 25.6598 24.9386 26.0381 25.0997 26.3865C25.2608 26.735 25.4954 27.0456 25.7878 27.2977C26.0801 27.5498 26.4237 27.7376 26.7954 27.8485C27.1672 27.9595 27.5586 27.9911 27.9438 27.9412C33.7809 27.1774 35.9957 24.4114 35.9957 24.4114V43.6477C35.9957 44.7932 36.4572 45.8917 37.2787 46.7016C38.1002 47.5116 39.2144 47.9666 40.3762 47.9666C41.538 47.9666 42.6521 47.5116 43.4736 46.7016C44.2951 45.8917 44.7567 44.7932 44.7567 43.6477V16.6968C44.7567 15.5786 44.3061 14.5062 43.5042 13.7156C42.7023 12.9249 41.6146 12.4807 40.4805 12.4807Z" fill="#0041A1"/>
</svg>
