<svg width="19" height="18" viewBox="0 0 19 18" fill="none" xmlns="http://www.w3.org/2000/svg">
<circle cx="9.2476" cy="9.00001" r="5.2852" fill="white"/>
<path d="M9.24756 0.165039C4.38833 0.165039 0.412598 4.14077 0.412598 9C0.412598 13.8592 4.38833 17.835 9.24756 17.835C14.1068 17.835 18.0825 13.8592 18.0825 9C18.0825 4.14077 14.1068 0.165039 9.24756 0.165039ZM12.2136 10.7039L9.68931 13.2282C9.6262 13.2913 9.56309 13.3544 9.49999 13.3544C9.43688 13.4175 9.31067 13.4175 9.24756 13.4175C9.18445 13.4175 9.05824 13.4175 8.99513 13.3544C8.93202 13.2913 8.86892 13.2913 8.80581 13.2282L6.28154 10.7039C6.02911 10.4515 6.02911 10.0728 6.28154 9.82039C6.53396 9.56796 6.9126 9.56796 7.16503 9.82039L8.61649 11.2718V4.58252C8.61649 4.20388 8.86892 3.95145 9.24756 3.95145C9.6262 3.95145 9.87863 4.20388 9.87863 4.58252V11.2718L11.3301 9.82039C11.5825 9.56796 11.9612 9.56796 12.2136 9.82039C12.466 10.0728 12.466 10.4515 12.2136 10.7039Z" fill="#001C71"/>
</svg>
