<svg width="68" height="50" viewBox="0 0 68 50" fill="none" xmlns="http://www.w3.org/2000/svg">
<path fill-rule="evenodd" clip-rule="evenodd" d="M17.0802 0.0876976C13.7081 0.516677 10.5353 2.4132 8.58858 5.16373C6.13252 8.63391 5.57528 13.0818 7.0967 17.0692C8.27332 20.1528 11.1182 22.9833 14.2263 24.1625C16.4375 25.0014 19.3116 25.1703 21.5695 24.5941C23.8005 24.0246 26.1075 22.6209 27.6871 20.8716C32.807 15.2021 31.6732 6.23318 25.3054 2.03193C22.9222 0.459597 19.8557 -0.265175 17.0802 0.0876976ZM44.8846 0.0876976C41.5124 0.516677 38.3397 2.4132 36.3929 5.16373C33.9369 8.63391 33.3796 13.0818 34.9011 17.0692C36.0777 20.1528 38.9226 22.9833 42.0307 24.1625C44.2419 25.0014 47.116 25.1703 49.3738 24.5941C51.6048 24.0246 53.9119 22.6209 55.4915 20.8716C60.6114 15.2021 59.4775 6.23318 53.1097 2.03193C50.7265 0.459597 47.6601 -0.265175 44.8846 0.0876976ZM15.32 28.2128C7.28698 29.1437 1.0549 35.5258 0.147345 43.7509C-0.0538021 45.5747 -0.0491682 46.7773 0.162261 47.6259C0.395846 48.5636 1.41331 49.592 2.34114 49.828C2.81816 49.9495 5.38311 50 11.0719 50C18.675 50 19.123 49.9857 19.0536 49.7439C18.5761 48.0811 18.4865 46.9335 18.6719 44.8543C19.1842 39.1066 21.4847 33.8185 25.1707 29.9156C25.53 29.535 25.7918 29.1911 25.7524 29.1513C25.5746 28.9715 22.8192 28.3324 21.6419 28.1976C20.1115 28.0226 16.8957 28.0303 15.32 28.2128ZM41.7711 28.1401C36.3227 28.7192 31.631 31.3617 28.4268 35.6559C26.2326 38.5964 24.7593 42.9519 24.7562 46.5073C24.7551 47.8371 25.2777 48.8648 26.2708 49.4855L26.9773 49.9268L46.0218 49.966C67.5557 50.0104 66.1277 50.0827 67.1611 48.8962C67.9691 47.9682 68.1208 47.2341 67.9205 45.2187C67.5589 41.5824 66.4151 38.52 64.3789 35.7352C61.6426 31.9936 57.7719 29.4847 53.1743 28.473C51.9279 28.1988 51.2141 28.1576 47.0568 28.1206C44.4682 28.0975 42.0896 28.1063 41.7711 28.1401Z" fill="white"/>
</svg>
