<svg width="58" height="66" viewBox="0 0 58 66" fill="none" xmlns="http://www.w3.org/2000/svg">
<path fill-rule="evenodd" clip-rule="evenodd" d="M22.267 0.261102C21.9725 0.416703 21.6843 0.713209 21.5259 1.02377C21.2792 1.50759 21.2667 1.77715 21.2667 6.62927V11.7266H19.1057C16.6287 11.7266 16.2586 11.835 15.7587 12.7069C15.4182 13.301 15.3887 13.9036 15.6724 14.4725C15.9562 15.0415 27.5326 26.6388 28.1248 26.9473C28.7313 27.2632 29.2687 27.2632 29.8752 26.9473C30.4674 26.6388 42.0438 15.0415 42.3276 14.4725C42.7715 13.5823 42.3936 12.4392 41.5056 11.9861C41.0565 11.757 40.7473 11.7266 38.8652 11.7266H36.7333V6.62927C36.7333 1.77509 36.721 1.50772 36.4739 1.02325C36.3068 0.695677 36.0331 0.42186 35.7056 0.254786C35.2161 0.00507638 34.9625 -0.00446337 28.9729 0.00095108C23.0309 0.00636553 22.7271 0.0182258 22.267 0.261102ZM1.00031 23.5948C0.456138 23.8822 0 24.6428 0 25.2627C0 25.4811 0.112004 25.8749 0.249013 26.138C0.385893 26.401 2.12589 28.2403 4.11568 30.2251L7.73333 33.8339V49.1486C7.73333 64.243 7.73707 64.4706 7.99279 64.972C8.15983 65.2996 8.43359 65.5734 8.76109 65.7405C9.26428 65.9973 9.48016 66 29 66C48.5198 66 48.7357 65.9973 49.2389 65.7405C49.5664 65.5734 49.8402 65.2996 50.0072 64.972C50.2629 64.4706 50.2667 64.243 50.2667 49.1486V33.8339L53.8843 30.2251C55.8741 28.2403 57.6141 26.401 57.751 26.138C57.888 25.8749 58 25.4811 58 25.2627C58 24.623 57.5441 23.8804 56.9722 23.5885C56.3335 23.2626 55.8032 23.2595 55.1915 23.578C54.9286 23.715 53.0897 25.4553 51.1053 27.4455L47.4972 31.0639H29H10.5028L6.89465 27.4455C4.91028 25.4553 3.07142 23.715 2.80849 23.578C2.20542 23.264 1.61652 23.2694 1.00031 23.5948Z" fill="white"/>
<path d="M23.8951 43.0252C23.5868 42.7014 23.2154 42.4434 22.8036 42.2672C22.3918 42.0909 21.9483 42 21.5 42C21.0518 42 20.6083 42.0909 20.1965 42.2672C19.7847 42.4434 19.4133 42.7014 19.105 43.0252L15.9919 46.244C15.355 46.9125 15 47.7987 15 48.72C15 49.6414 15.355 50.5276 15.9919 51.1961L19.1089 54.4148C19.4173 54.7387 19.7887 54.9966 20.2004 55.1729C20.6122 55.3491 21.0557 55.44 21.504 55.44C21.9522 55.44 22.3957 55.3491 22.8075 55.1729C23.2193 54.9966 23.5907 54.7387 23.899 54.4148L27.0121 51.1961C27.649 50.5276 28.004 49.6414 28.004 48.72C28.004 47.7987 27.649 46.9125 27.0121 46.244L23.8951 43.0252ZM21.7545 45.6708C21.5936 45.5053 21.5027 45.2848 21.5003 45.0546C21.4979 44.8243 21.5843 44.602 21.7417 44.4333C21.8177 44.3514 21.9097 44.2858 22.0121 44.2405C22.1145 44.1952 22.2251 44.1712 22.3371 44.1699C22.4491 44.1686 22.5602 44.1901 22.6636 44.233C22.767 44.2759 22.8605 44.3394 22.9385 44.4195L24.9935 46.4978C25.5766 47.0926 25.903 47.8908 25.903 48.722C25.903 49.5532 25.5766 50.3514 24.9935 50.9462L22.9385 53.0244C22.8605 53.1046 22.767 53.168 22.6636 53.211C22.5602 53.2539 22.4491 53.2754 22.3371 53.2741C22.2251 53.2728 22.1145 53.2488 22.0121 53.2035C21.9097 53.1582 21.8177 53.0926 21.7417 53.0107C21.5845 52.8417 21.4982 52.6192 21.5006 52.3889C21.5029 52.1586 21.5938 51.9379 21.7545 51.7722L23.8095 49.695C24.0659 49.4354 24.2096 49.086 24.2096 48.722C24.2096 48.358 24.0659 48.0085 23.8095 47.749L21.7545 45.6708Z" fill="#0041A1"/>
<path d="M34.1055 43.0252C34.4138 42.7014 34.7852 42.4434 35.197 42.2672C35.6088 42.0909 36.0523 42 36.5006 42C36.9488 42 37.3923 42.0909 37.8041 42.2672C38.2159 42.4434 38.5873 42.7014 38.8956 43.0252L42.0087 46.244C42.6456 46.9125 43.0006 47.7987 43.0006 48.72C43.0006 49.6414 42.6456 50.5276 42.0087 51.1961L38.8917 54.4148C38.5833 54.7387 38.2119 54.9966 37.8002 55.1729C37.3884 55.3491 36.9448 55.44 36.4966 55.44C36.0484 55.44 35.6048 55.3491 35.1931 55.1729C34.7813 54.9966 34.4099 54.7387 34.1015 54.4148L30.9885 51.1961C30.3516 50.5276 29.9966 49.6414 29.9966 48.72C29.9966 47.7987 30.3516 46.9125 30.9885 46.244L34.1055 43.0252ZM36.2461 45.6708C36.4069 45.5053 36.4979 45.2848 36.5003 45.0546C36.5027 44.8243 36.4163 44.602 36.2589 44.4333C36.1829 44.3514 36.0909 44.2858 35.9885 44.2405C35.8861 44.1952 35.7755 44.1712 35.6635 44.1699C35.5515 44.1686 35.4404 44.1901 35.337 44.233C35.2336 44.2759 35.14 44.3394 35.0621 44.4195L33.0071 46.4958C32.424 47.0906 32.0975 47.8889 32.0975 48.72C32.0975 49.5512 32.424 50.3494 33.0071 50.9442L35.0621 53.0225C35.14 53.1026 35.2336 53.1661 35.337 53.209C35.4404 53.2519 35.5515 53.2734 35.6635 53.2721C35.7755 53.2708 35.8861 53.2468 35.9885 53.2015C36.0909 53.1562 36.1829 53.0907 36.2589 53.0088C36.4161 52.8398 36.5024 52.6173 36.5 52.387C36.4976 52.1566 36.4068 51.936 36.2461 51.7702L34.1911 49.693C33.9347 49.4335 33.791 49.084 33.791 48.72C33.791 48.356 33.9347 48.0066 34.1911 47.7471L36.2461 45.6708Z" fill="#0041A1"/>
</svg>
