<svg width="62" height="63" viewBox="0 0 62 63" fill="none" xmlns="http://www.w3.org/2000/svg">
<path fill-rule="evenodd" clip-rule="evenodd" d="M42.2165 1.01344C35.8412 1.77793 30.7556 5.23838 27.8541 10.7861C24.7266 16.7662 25.3113 24.2248 29.3342 29.6656C32.185 33.521 36.1936 35.9996 40.9762 36.8637C42.4908 37.1374 45.3403 37.135 46.942 36.8587C54.4456 35.5642 60.2554 29.8087 61.7462 22.1928C62.0417 20.6829 62.0382 17.2889 61.7397 15.777C61.2441 13.2683 60.3468 11.0931 58.9308 8.96727C56.0065 4.57735 51.2067 1.64431 45.9965 1.06347C44.8992 0.941248 43.0261 0.916416 42.2165 1.01344ZM44.9485 6.41533C45.6471 6.88606 45.8415 7.37181 45.8935 8.77624L45.9396 10.0187H47.4831C48.8843 10.0187 49.0635 10.0438 49.4271 10.2913C50.007 10.6858 50.2924 11.1284 50.3613 11.74C50.4404 12.4419 50.0809 13.1637 49.46 13.5497C49.0152 13.8262 48.9047 13.8363 45.6639 13.895C41.8716 13.9638 41.8479 13.9697 41.485 14.9196C41.2865 15.439 41.2863 15.4999 41.4812 16.01C41.8045 16.8565 42.2151 17.0443 43.7453 17.0455C46.1835 17.0472 47.5488 17.4959 48.7397 18.6865C50.8132 20.7594 50.9325 23.8838 49.0264 26.1955C48.5477 26.7763 47.3899 27.5251 46.5733 27.7825L45.9376 27.9829L45.8933 29.2777C45.8535 30.4397 45.8156 30.623 45.5236 31.0641C44.9518 31.9277 43.6766 32.1883 42.8857 31.603C42.1858 31.085 42.0347 30.6799 42.0347 29.3218V28.0678H40.5153C39.243 28.0678 38.9199 28.029 38.5282 27.8293C37.1893 27.1464 37.1541 25.2095 38.4671 24.4661C38.9275 24.2054 39.0602 24.1954 42.0972 24.1934C44.9163 24.1917 45.293 24.1681 45.6622 23.9702C46.4475 23.5491 46.7337 22.548 46.2809 21.8056C45.8369 21.0777 45.5774 20.9945 43.4983 20.9133C41.3398 20.8291 40.7668 20.6677 39.6596 19.832C38.4975 18.9547 37.781 17.7348 37.5495 16.2387C37.1392 13.5878 38.8331 10.9908 41.4895 10.198L41.9741 10.0534L42.0347 8.67328C42.0862 7.50118 42.1358 7.23638 42.364 6.91646C42.9208 6.13623 44.1736 5.89324 44.9485 6.41533ZM0.777231 32.0491C0.643946 32.109 0.425845 32.2789 0.292561 32.4271C0.0542251 32.6919 0.0496207 32.893 0.0139975 44.7063C-0.01896 55.6547 -0.00454109 56.7497 0.176846 57.0955C0.286382 57.3043 0.509693 57.536 0.673148 57.6104C0.867621 57.699 2.05167 57.7458 4.09867 57.7458C7.02559 57.7458 7.24648 57.7304 7.52989 57.5076C7.69649 57.3767 7.89181 57.1177 7.96403 56.9323C8.03624 56.7468 9.37938 52.0623 10.949 46.5222C12.7264 40.2483 13.8017 36.2508 13.8001 35.9229C13.7964 35.2124 13.4476 34.4917 12.8793 34.0207C12.1385 33.4067 9.79911 32.7383 6.8356 32.2939C5.11235 32.0354 1.16375 31.876 0.777231 32.0491ZM17.6169 37.0015C17.5797 37.1846 16.3612 41.544 14.9091 46.6887L12.269 56.043L14.0961 56.8481C23.0444 60.7909 29.9531 62.9573 33.5685 62.9539C37.3011 62.9505 44.8288 60.4088 52.5763 56.5364C57.7163 53.9671 61.428 51.5105 61.9034 50.3632C62.1135 49.8563 61.9764 49.0957 61.5362 48.3253C60.9275 47.2597 59.8009 46.5911 58.0894 46.2797C55.9805 45.896 53.6485 46.4822 48.0325 48.8078C40.0467 52.1147 38.3545 52.6581 36.0424 52.6581C34.0855 52.6581 31.8377 52.0849 29.2022 50.9139C27.9451 50.3553 25.275 48.9013 25.3565 48.8197C25.3801 48.7961 26.2117 48.9099 27.2043 49.0726C31.2374 49.7335 33.031 49.9136 35.6734 49.9233C37.9764 49.9318 38.2986 49.9072 39.0689 49.6649C40.118 49.3349 40.8452 48.7461 41.1324 47.9943C41.4353 47.2016 41.3302 45.8381 40.9112 45.1233C39.7936 43.2169 37.2101 42.1148 32.0178 41.3297L29.8574 41.003L28.4034 40.1849C25.8904 38.7707 25.4039 38.5226 24.2475 38.0656C22.8285 37.505 21.2243 37.0961 19.5004 36.8558C17.7019 36.605 17.6975 36.6054 17.6169 37.0015Z" fill="white"/>
<circle cx="43.5" cy="18.5" r="18.5" fill="white"/>
<path d="M38.4846 12.9779C38.1904 12.669 37.8362 12.423 37.4434 12.2548C37.0506 12.0867 36.6276 12 36.2 12C35.7725 12 35.3494 12.0867 34.9567 12.2548C34.5639 12.423 34.2096 12.669 33.9155 12.9779L30.9461 16.0481C30.3386 16.6857 30 17.5311 30 18.4099C30 19.2887 30.3386 20.134 30.9461 20.7716L33.9193 23.8418C34.2134 24.1507 34.5676 24.3968 34.9604 24.5649C35.3532 24.733 35.7762 24.8197 36.2038 24.8197C36.6313 24.8197 37.0544 24.733 37.4472 24.5649C37.8399 24.3968 38.1942 24.1507 38.4883 23.8418L41.4577 20.7716C42.0652 20.134 42.4038 19.2887 42.4038 18.4099C42.4038 17.5311 42.0652 16.6857 41.4577 16.0481L38.4846 12.9779ZM36.4427 15.5014C36.2893 15.3435 36.2025 15.1332 36.2003 14.9136C36.198 14.694 36.2804 14.4819 36.4305 14.321C36.503 14.2428 36.5908 14.1803 36.6885 14.1371C36.7861 14.0939 36.8916 14.071 36.9985 14.0697C37.1053 14.0685 37.2113 14.089 37.3099 14.1299C37.4085 14.1709 37.4977 14.2314 37.5721 14.3079L39.5322 16.2902C40.0885 16.8575 40.3998 17.6189 40.3998 18.4117C40.3998 19.2045 40.0885 19.9659 39.5322 20.5333L37.5721 22.5156C37.4977 22.592 37.4085 22.6526 37.3099 22.6935C37.2113 22.7345 37.1053 22.755 36.9985 22.7537C36.8916 22.7525 36.7861 22.7296 36.6885 22.6864C36.5908 22.6432 36.503 22.5806 36.4305 22.5025C36.2806 22.3413 36.1983 22.1291 36.2005 21.9094C36.2028 21.6898 36.2895 21.4793 36.4427 21.3212L38.4029 19.3398C38.6475 19.0923 38.7845 18.759 38.7845 18.4117C38.7845 18.0645 38.6475 17.7312 38.4029 17.4837L36.4427 15.5014Z" fill="#001C71"/>
<path d="M48.2239 12.9779C48.5181 12.669 48.8723 12.423 49.2651 12.2548C49.6579 12.0867 50.0809 12 50.5085 12C50.936 12 51.3591 12.0867 51.7519 12.2548C52.1446 12.423 52.4989 12.669 52.793 12.9779L55.7624 16.0481C56.3699 16.6857 56.7085 17.5311 56.7085 18.4099C56.7085 19.2887 56.3699 20.134 55.7624 20.7716L52.7892 23.8418C52.4951 24.1507 52.1409 24.3968 51.7481 24.5649C51.3553 24.733 50.9323 24.8197 50.5047 24.8197C50.0772 24.8197 49.6541 24.733 49.2613 24.5649C48.8686 24.3968 48.5143 24.1507 48.2202 23.8418L45.2508 20.7716C44.6433 20.134 44.3047 19.2887 44.3047 18.4099C44.3047 17.5311 44.6433 16.6857 45.2508 16.0481L48.2239 12.9779ZM50.2658 15.5014C50.4192 15.3435 50.506 15.1332 50.5082 14.9136C50.5105 14.694 50.4281 14.4819 50.278 14.321C50.2055 14.2428 50.1177 14.1803 50.02 14.1371C49.9224 14.0939 49.8169 14.071 49.71 14.0697C49.6032 14.0685 49.4972 14.089 49.3986 14.1299C49.3 14.1709 49.2108 14.2314 49.1364 14.3079L47.1763 16.2883C46.62 16.8557 46.3087 17.6171 46.3087 18.4099C46.3087 19.2027 46.62 19.9641 47.1763 20.5314L49.1364 22.5137C49.2108 22.5902 49.3 22.6507 49.3986 22.6917C49.4972 22.7326 49.6032 22.7531 49.71 22.7519C49.8169 22.7506 49.9224 22.7277 50.02 22.6845C50.1177 22.6413 50.2055 22.5788 50.278 22.5007C50.4279 22.3395 50.5102 22.1273 50.508 21.9076C50.5057 21.6879 50.419 21.4774 50.2658 21.3193L48.3056 19.3379C48.061 19.0904 47.924 18.7571 47.924 18.4099C47.924 18.0626 48.061 17.7293 48.3056 17.4818L50.2658 15.5014Z" fill="#001C71"/>
</svg>
