<svg width="0" height="0" position="absolute"><symbol id="burger" xmlns="http://www.w3.org/2000/svg"><path d="M3.5 4.5H20.5V5.5H3.5V4.5ZM3.5 11.5H20.5V12.5H3.5V11.5ZM3.5 18.5H20.5V19.5H3.5V18.5Z" stroke="#70718D"></path></symbol><symbol id="close" viewBox="0 0 20 20" xmlns="http://www.w3.org/2000/svg"><path fill-rule="evenodd" clip-rule="evenodd" d="M7.77818 9.8995L1.3113e-06 2.12132L2.12132 0L9.8995 7.77818L17.6777 1.4782e-05L19.799 2.12134L12.0208 9.8995L19.799 17.6777L17.6777 19.799L9.8995 12.0208L2.12132 19.799L0 17.6777L7.77818 9.8995Z"></path></symbol><symbol id="arrow-down" viewBox="0 0 14 8" xmlns="http://www.w3.org/2000/svg"><path fill-rule="evenodd" clip-rule="evenodd" d="M13.7326 0.258031C14.0891 0.602072 14.0891 1.15987 13.7326 1.50391L7 8L0.267425 1.50391C-0.0891415 1.15987 -0.0891416 0.602072 0.267425 0.258031C0.623991 -0.0860104 1.2021 -0.0860103 1.55866 0.258031L7 5.50823L12.4413 0.258031C12.7979 -0.0860103 13.376 -0.0860104 13.7326 0.258031Z"></path></symbol><symbol id="eth" viewBox="0 0 16 26" xmlns="http://www.w3.org/2000/svg"><path d="M7.98254 0L7.80811 0.592509V17.7842L7.98254 17.9582L15.9626 13.2412L7.98254 0Z"></path><path d="M7.98024 0L0 13.2412L7.98024 17.9582V9.61387V0Z"></path><path d="M7.9821 19.469L7.88379 19.5889V25.7129L7.9821 25.9998L15.967 14.7544L7.9821 19.469Z"></path><path d="M7.98024 25.9998V19.469L0 14.7544L7.98024 25.9998Z"></path><path d="M7.97754 17.9572L15.9576 13.2401L7.97754 9.61279V17.9572Z"></path><path d="M0 13.2401L7.98024 17.9572V9.61279L0 13.2401Z"></path></symbol><symbol id="play" viewBox="0 0 15 18" xmlns="http://www.w3.org/2000/svg"><path d="M13.1519 7.26828L2.6507 0.479764C2.16573 0.166039 1.6771 0 1.27095 0C0.485729 0 0 0.595081 0 1.59117V16.2631C0 17.2581 0.485117 17.852 1.2685 17.852C1.67526 17.852 2.15609 17.6858 2.64213 17.3712L13.1482 10.5828C13.8238 10.1456 14.198 9.55713 14.198 8.9252C14.1982 8.2937 13.8283 7.70541 13.1519 7.26828Z"></path></symbol><symbol id="bsc" viewBox="0 0 30 26" xmlns="http://www.w3.org/2000/svg"><path d="M20.6429 9.76757L15 19.4649L9.35714 9.6973H20.6429V9.76757ZM26.2857 6.46486H3.71429L15 26L26.2857 6.46486ZM0 0L1.85714 3.23243H28.0714L30 0H0Z"></path></symbol><symbol id="prev" viewBox="0 0 30 30" xmlns="http://www.w3.org/2000/svg"><path fill-rule="evenodd" clip-rule="evenodd" d="M15 -1.31134e-06C6.71573 -2.03558e-06 2.03557e-06 6.71573 1.31134e-06 15C5.87107e-07 23.2843 6.71573 30 15 30C23.2843 30 30 23.2843 30 15C30 6.71573 23.2843 -5.87108e-07 15 -1.31134e-06ZM11.0723 14.8121C11.0724 14.6133 11.1516 14.4226 11.2923 14.2821L16.4323 9.1521C16.5262 9.05744 16.6539 9.0042 16.7873 9.0042C16.9206 9.0042 17.0484 9.05744 17.1423 9.1521L17.8523 9.8521C17.9469 9.94598 18.0002 10.0738 18.0002 10.2071C18.0002 10.3404 17.9469 10.4682 17.8523 10.5621L13.4023 15.0021L17.8523 19.4421C17.9463 19.5343 17.9993 19.6604 17.9993 19.7921C17.9993 19.9238 17.9463 20.0499 17.8523 20.1421L17.1423 20.8521C17.0484 20.9468 16.9206 21 16.7873 21C16.6539 21 16.5261 20.9468 16.4323 20.8521L11.2923 15.7221C11.1534 15.5804 11.0746 15.3905 11.0723 15.1921L11.0723 14.8121Z"></path></symbol><symbol id="velas" viewBox="0 0 26 26" xmlns="http://www.w3.org/2000/svg"><path d="M7.95056 10.9254L12.9999 5.876L18.0517 10.9276L20.9897 7.98959L12.9999 0L5.01278 7.9872L7.95066 10.9252L7.95056 10.9254ZM0 13L2.93809 10.0615L5.87598 12.9994L2.93788 15.9375L0 13ZM7.95056 15.0749L12.9999 20.124L18.0516 15.0725L20.9912 18.009L20.9897 18.0105L12.9999 26L5.01278 18.0128L5.00862 18.0086L7.95087 15.0746L7.95056 15.0749ZM20.1239 13.0012L23.062 10.0631L25.9999 13.001L23.0619 15.9391L20.1239 13.0012Z"></path><path d="M15.9797 12.9984H15.9809L12.9999 10.0171L10.7965 12.2199L10.5433 12.4732L10.0213 12.9953L10.0171 12.9994L10.0213 13.0037L12.9999 15.9827L15.9812 13.0015L15.9826 12.9998L15.9799 12.9984"></path></symbol><symbol id="logo" viewBox="0 0 104 50" xmlns="http://www.w3.org/2000/svg"><path fill-rule="evenodd" clip-rule="evenodd" d="M88.7314 4.01197C83.8783 -1.02775 76.0099 -1.02775 71.1569 4.01197L59.7334 15.8748C54.8804 20.9145 54.8804 29.0855 59.7334 34.1252L71.1569 45.988C76.0099 51.0278 83.8783 51.0278 88.7314 45.988L100.155 34.1252C105.008 29.0855 105.008 20.9145 100.155 15.8748L88.7314 4.01197ZM79.2155 13.756C80.4421 12.51 80.4637 10.4674 79.2639 9.19369C78.064 7.91996 76.0971 7.89747 74.8705 9.14346L67.3311 16.8023C62.8824 21.3215 62.8824 28.6786 67.3311 33.1977L74.8705 40.8566C76.0971 42.1026 78.064 42.0801 79.2639 40.8063C80.4637 39.5326 80.4421 37.49 79.2155 36.244L71.6761 28.5852C69.7188 26.5968 69.7188 23.4032 71.6761 21.4149L79.2155 13.756Z"></path><path fill-rule="evenodd" clip-rule="evenodd" d="M33.5128 4.01197C28.6597 -1.02775 20.7913 -1.02775 15.9382 4.01197L4.5148 15.8748C-0.338268 20.9145 -0.338268 29.0855 4.5148 34.1252L15.9382 45.988C20.7913 51.0278 28.6597 51.0278 33.5128 45.988L44.9362 34.1252C49.7893 29.0855 49.7893 20.9145 44.9362 15.8748L33.5128 4.01197ZM25.6598 13.756C24.4332 12.51 24.4116 10.4674 25.6114 9.19369C26.8112 7.91996 28.7782 7.89747 30.0048 9.14346L37.5442 16.8023C41.9929 21.3215 41.9929 28.6786 37.5442 33.1977L30.0048 40.8566C28.7782 42.1026 26.8112 42.0801 25.6114 40.8063C24.4116 39.5326 24.4332 37.49 25.6598 36.244L33.1992 28.5852C35.1565 26.5968 35.1565 23.4032 33.1992 21.4149L25.6598 13.756Z"></path></symbol></svg>