<svg width="227" height="236" viewBox="0 0 227 236" fill="none" xmlns="http://www.w3.org/2000/svg">
<path fill-rule="evenodd" clip-rule="evenodd" d="M155.452 17.9496C132.406 -5.98256 95.0416 -5.98256 71.9958 17.9496L17.7492 74.2826C-5.29661 98.2148 -5.29661 137.017 17.7492 160.949L71.9958 217.282C95.0416 241.214 132.406 241.214 155.452 217.282L209.699 160.949C232.744 137.017 232.744 98.2148 209.699 74.2826L155.452 17.9496Z" fill="#0041A2"/>
<path class="logo-arrow" d="M120.161 65.9712C114.337 60.0543 114.234 50.3545 119.931 44.3059C125.629 38.2574 134.97 38.1506 140.794 44.0674L176.597 80.4371C197.722 101.897 197.722 136.834 176.597 158.294L140.794 194.664C134.97 200.581 125.629 200.474 119.931 194.425C114.234 188.377 114.337 178.677 120.161 172.76L155.964 136.39C165.258 126.948 165.258 111.783 155.964 102.341L120.161 65.9712Z" fill="white"/>
</svg>