<svg width="108" height="24" viewBox="0 0 108 24" fill="none" xmlns="http://www.w3.org/2000/svg">
<path d="M13.7768 23.9005C10.3122 17.8915 6.90176 11.9638 3.45068 5.98193C10.3528 5.98193 17.1738 5.98193 24.103 5.98193C20.6519 11.9638 17.2414 17.878 13.7768 23.9005ZM18.8926 8.99993C15.4415 8.99993 12.0851 8.99993 8.6476 8.99993C10.3799 11.9909 12.0581 14.9141 13.7768 17.8915C15.5091 14.8871 17.1873 11.9638 18.8926 8.99993Z" fill="#0037C0"/>
<path d="M51.9286 11.8825C51.9286 9.60881 51.9421 7.33516 51.915 5.04798C51.915 4.58783 52.0098 4.43896 52.497 4.43896C55.8533 4.46603 59.2097 4.4525 62.5795 4.43896C62.9991 4.43896 63.1885 4.50663 63.1479 4.98031C63.1073 5.58932 63.1073 6.19834 63.1479 6.80735C63.175 7.28103 63.0126 7.41636 62.5389 7.40283C60.2382 7.37576 57.9375 7.41636 55.6368 7.37576C55.0819 7.36223 54.8654 7.49756 54.9195 8.07951C54.9736 8.66146 54.9736 9.25694 54.9195 9.83888C54.8789 10.3667 55.0819 10.4614 55.5691 10.4614C57.7616 10.4344 59.9405 10.475 62.1329 10.4344C62.6743 10.4208 62.9043 10.5291 62.8502 11.1246C62.7825 11.8148 63.0803 12.7621 62.7284 13.1546C62.3224 13.6012 61.375 13.29 60.6578 13.29C58.939 13.3035 57.2338 13.317 55.515 13.29C55.0413 13.2764 54.8789 13.4253 54.906 13.899C54.9466 14.535 54.933 15.1576 54.906 15.7937C54.8789 16.2403 55.0548 16.3621 55.4879 16.3621C57.8157 16.3486 60.1299 16.3621 62.4577 16.335C62.972 16.335 63.1615 16.4568 63.1209 16.9982C63.0667 17.6478 63.0938 18.3109 63.1073 18.9605C63.1073 19.2448 63.0126 19.353 62.7149 19.353C59.2367 19.3395 55.7721 19.3395 52.294 19.353C51.8203 19.353 51.8744 19.0688 51.8744 18.7846C51.9286 16.4839 51.9286 14.1832 51.9286 11.8825Z" fill="#0037C0"/>
<path d="M100.419 19.6915C99.675 19.6644 98.5246 19.4885 97.4419 18.9742C96.251 18.4058 95.4119 17.5126 94.8299 16.3352C94.6811 16.0374 94.6811 15.848 95.0194 15.7126C95.263 15.6179 95.5066 15.469 95.7367 15.3472C96.1562 15.1307 96.5622 14.7653 96.9953 14.7382C97.5096 14.6976 97.5231 15.3878 97.8209 15.7126C99.0795 17.066 102.219 17.4179 103.735 16.3352C104.723 15.6179 104.655 14.2104 103.586 13.5743C102.774 13.0871 101.84 12.9924 100.934 12.8841C99.7426 12.7352 98.6058 12.451 97.4961 11.9773C95.06 10.9217 94.7081 7.48417 96.3051 5.77894C96.8329 5.21053 97.4419 4.75038 98.1727 4.49324C100.203 3.77596 102.233 3.76243 104.263 4.49324C105.346 4.88572 106.158 5.58947 106.78 6.55036C106.997 6.90223 107.051 7.14583 106.591 7.30824C106.374 7.38944 106.185 7.49771 105.995 7.61951C105.237 8.10672 104.669 8.33679 103.816 7.52478C102.693 6.45562 101.15 6.45562 99.6614 6.87516C99.1742 7.0105 98.7547 7.2947 98.5111 7.75485C98.1592 8.41799 98.3216 9.04054 98.9441 9.46008C99.7697 10.0014 100.731 10.042 101.664 10.1774C102.734 10.3398 103.776 10.5698 104.804 10.9217C108.012 12.045 108.336 16.6058 105.738 18.487C104.561 19.3126 102.774 19.7998 100.419 19.6915Z" fill="#0037C0"/>
<path d="M86.0466 8.29592C85.1399 10.6237 84.2737 12.8432 83.4211 15.0627C82.9204 16.3349 82.4196 17.6206 81.946 18.9063C81.8106 19.2852 81.6211 19.4206 81.2151 19.407C80.4302 19.3664 79.6317 19.3935 78.8467 19.3935C78.5219 19.3935 78.346 19.3935 78.5219 18.9604C80.4843 14.2507 82.4332 9.52748 84.3685 4.81778C84.4767 4.54711 84.6121 4.43884 84.9098 4.43884C85.6812 4.46591 86.4391 4.46591 87.2105 4.43884C87.5218 4.4253 87.6436 4.57417 87.7383 4.83131C89.7143 9.64928 91.7037 14.4673 93.7337 19.3935C92.651 19.3935 91.6225 19.3935 90.5939 19.3935C90.2285 19.3935 90.2421 19.0958 90.1609 18.8928C88.9022 15.6447 87.6436 12.3966 86.385 9.14854C86.3038 8.8914 86.1955 8.6478 86.0466 8.29592Z" fill="#0037C0"/>
<path d="M33.5632 4.45299C34.6459 4.45299 35.6203 4.48005 36.5812 4.43945C37.0008 4.42592 37.0414 4.69659 37.1496 4.96726C38.4083 8.2424 39.6804 11.504 40.9526 14.7791C41.0338 15.0092 41.0744 15.2528 41.3045 15.4694C42.3195 12.8574 43.3074 10.286 44.3089 7.71459C44.6743 6.76724 45.0397 5.83342 45.4052 4.88606C45.4999 4.65599 45.554 4.43945 45.8924 4.43945C46.8803 4.46652 47.8683 4.45299 48.951 4.45299C48.2472 6.14469 47.5841 7.75519 46.9209 9.36569C45.6082 12.5461 44.2819 15.7265 42.9826 18.9069C42.8338 19.2723 42.6714 19.4347 42.2518 19.4076C41.5616 19.367 40.8579 19.3941 40.1541 19.4076C39.8834 19.4076 39.694 19.367 39.5857 19.0828C37.6098 14.2243 35.6068 9.39276 33.5632 4.45299Z" fill="#0037C0"/>
<path d="M27.5409 0C27.0402 0.866152 26.58 1.63757 26.1605 2.43605C25.944 2.84206 25.6868 2.99093 25.2132 2.99093C17.905 2.9774 10.5968 2.95033 3.28867 3.00447C2.11125 3.018 1.33983 2.77439 0.906753 1.63757C0.703749 1.08269 0.338341 0.59548 0 0C9.2164 0 18.3245 0 27.5409 0Z" fill="#0037C0"/>
<path d="M66.1253 11.8552C66.1253 9.59513 66.1389 7.34855 66.1118 5.08843C66.0983 4.53356 66.2742 4.39822 66.7885 4.43882C67.3434 4.47942 67.9118 4.47942 68.4802 4.43882C69.0215 4.39822 69.1975 4.53356 69.1975 5.12904C69.1704 8.62071 69.1975 12.1124 69.1704 15.6041C69.1704 16.1725 69.2651 16.3755 69.9012 16.3619C71.9719 16.3213 74.0425 16.3619 76.1267 16.3349C76.5598 16.3349 76.7222 16.4431 76.6951 16.8898C76.6545 17.5664 76.668 18.2431 76.6951 18.9198C76.7086 19.2446 76.6004 19.3529 76.2756 19.3529C73.0545 19.3393 69.8336 19.3393 66.599 19.3529C66.0983 19.3529 66.1389 19.0822 66.1389 18.7439C66.1253 16.4567 66.1253 14.156 66.1253 11.8552Z" fill="#0037C0"/>
</svg>
