<svg width="123" height="38" viewBox="0 0 123 38" fill="none" xmlns="http://www.w3.org/2000/svg">
<g clip-path="url(#clip0_21:12)">
<path d="M42.2257 18.7622C42.1901 17.8783 42.3288 16.996 42.6339 16.1663C42.939 15.3366 43.4044 14.5758 44.0032 13.9279C44.602 13.2801 45.3225 12.7579 46.123 12.3915C46.9235 12.0252 47.7882 11.8219 48.6672 11.7935H48.9403C52.3375 11.7935 54.3425 13.8037 54.9354 16.1557L52.8238 16.8659C52.6341 15.9895 52.1375 15.2109 51.4245 14.6721C50.7116 14.1333 49.8299 13.8703 48.9403 13.931C46.7421 13.931 44.5372 15.5459 44.5372 18.8024C44.5372 22.059 46.6888 23.6136 48.9669 23.6136C49.861 23.6382 50.7374 23.3604 51.456 22.8246C52.1745 22.2889 52.6937 21.5262 52.9304 20.6586L55.002 21.3286C54.6444 22.6522 53.849 23.8135 52.747 24.6212C51.645 25.4288 50.3023 25.8345 48.9403 25.7712C47.1905 25.8035 45.4997 25.1356 44.2393 23.9143C42.979 22.693 42.2523 21.0182 42.2191 19.2581C42.2124 19.0973 42.2191 18.9298 42.2257 18.7622Z" fill="#375BD2"/>
<path d="M59.1119 25.4627H56.927V11.7529H59.1119V17.1135C59.4291 16.7351 59.828 16.4345 60.2782 16.2348C60.7285 16.0351 61.2181 15.9414 61.7098 15.961C63.9679 15.961 65.0404 17.5893 65.0404 19.6196V25.4627H62.9354V20.0083C62.9985 19.5433 62.8774 19.072 62.5983 18.696C62.3192 18.32 61.9044 18.0693 61.4433 17.998C61.3127 17.9845 61.181 17.9845 61.0503 17.998C60.545 17.998 60.0605 18.1999 59.7032 18.5593C59.3459 18.9187 59.1452 19.4062 59.1452 19.9145C59.1419 19.9702 59.1419 20.0262 59.1452 20.082L59.1119 25.4627Z" fill="#375BD2"/>
<path d="M69.9431 20.1826L72.2879 19.814C72.8208 19.747 72.954 19.4723 72.954 19.1439C72.954 18.3666 72.4344 17.7435 71.2221 17.7435C70.7642 17.7062 70.3102 17.8521 69.9586 18.1494C69.6069 18.4467 69.3859 18.8714 69.3436 19.3316V19.4321L67.3452 18.9831C67.5118 17.3883 68.9506 15.9678 71.2021 15.9678C74.0265 15.9678 75.0989 17.576 75.0989 19.4522V24.0288C75.0966 24.5247 75.1345 25.0199 75.2122 25.5097H73.2138C73.1418 25.121 73.1127 24.7254 73.1272 24.3303C72.8239 24.7999 72.4034 25.1813 71.9079 25.4364C71.4123 25.6916 70.8589 25.8115 70.3028 25.7844C69.5433 25.8475 68.79 25.6049 68.2081 25.11C67.6261 24.615 67.2631 23.9081 67.1987 23.1443C67.1987 23.0974 67.1987 23.0505 67.1987 23.0103C67.1654 21.315 68.3711 20.4037 69.9431 20.1826ZM72.9673 21.6634V21.2413L70.5759 21.6031C70.2513 21.6135 69.9432 21.7496 69.716 21.9831C69.4889 22.2167 69.3602 22.5294 69.3569 22.8562C69.3595 23.018 69.3941 23.1778 69.4587 23.3261C69.5233 23.4744 69.6166 23.6083 69.7331 23.7199C69.8497 23.8316 69.9872 23.9188 70.1376 23.9764C70.288 24.034 70.4484 24.0609 70.6092 24.0556H70.7092C70.9818 24.0843 71.2574 24.0585 71.5201 23.9795C71.7828 23.9006 72.0274 23.7702 72.2398 23.5958C72.4521 23.4214 72.6281 23.2065 72.7575 22.9634C72.887 22.7203 72.9673 22.4538 72.994 22.1794C73.0035 22.0067 72.9923 21.8334 72.9607 21.6634H72.9673Z" fill="#375BD2"/>
<path d="M78.8159 11.5656C79.0037 11.563 79.1901 11.5977 79.3645 11.6677C79.5389 11.7377 79.6978 11.8418 79.8321 11.9738C79.9665 12.1058 80.0735 12.2632 80.1472 12.4369C80.2209 12.6106 80.2597 12.7973 80.2614 12.9862C80.2614 13.269 80.1783 13.5454 80.0225 13.7807C79.8667 14.0161 79.6453 14.1999 79.3859 14.309C79.1266 14.4181 78.841 14.4476 78.5651 14.3939C78.2891 14.3402 78.0351 14.2056 77.835 14.0071C77.6348 13.8085 77.4975 13.5549 77.4403 13.2781C77.383 13.0013 77.4084 12.7136 77.5133 12.4512C77.6181 12.1889 77.7977 11.9636 78.0295 11.8036C78.2613 11.6437 78.5349 11.5562 78.8159 11.5522V11.5656ZM77.7501 25.5032V16.2428H79.935V25.463L77.7501 25.5032Z" fill="#375BD2"/>
<path d="M84.9109 25.4627H82.7327V16.2424H84.8576V17.4687C85.1346 16.9978 85.5325 16.6106 86.0095 16.3477C86.4866 16.0848 87.0251 15.9558 87.5687 15.9744C89.8069 15.9744 90.8994 17.6027 90.8994 19.633V25.4627H88.7211V20.0083C88.7211 18.8758 88.2082 17.9578 86.836 17.9578C86.5823 17.9596 86.3315 18.0116 86.0977 18.1109C85.864 18.2102 85.6521 18.3548 85.4739 18.5365C85.2958 18.7181 85.155 18.9334 85.0595 19.1698C84.964 19.4062 84.9158 19.6593 84.9176 19.9145C84.9176 19.9882 84.9176 20.0619 84.9176 20.1356L84.9109 25.4627Z" fill="#375BD2"/>
<path d="M93.5374 25.4627V11.7529H95.7223V25.4627H93.5374Z" fill="#375BD2"/>
<path d="M99.619 11.5654C99.9002 11.5641 100.175 11.6469 100.41 11.8032C100.644 11.9595 100.827 12.1823 100.935 12.4434C101.043 12.7045 101.072 12.992 101.018 13.2695C100.963 13.547 100.828 13.8019 100.629 14.0019C100.43 14.2019 100.177 14.338 99.9008 14.3929C99.625 14.4477 99.3391 14.4189 99.0796 14.31C98.8201 14.2012 98.5986 14.0172 98.4432 13.7815C98.2878 13.5457 98.2055 13.2689 98.2068 12.986C98.2103 12.6103 98.3602 12.251 98.6243 11.9854C98.8884 11.7197 99.2455 11.5689 99.619 11.5654ZM98.5465 25.503V16.2426H100.711V25.4628L98.5465 25.503Z" fill="#375BD2"/>
<path d="M105.721 25.4631H103.536V16.2428H105.661V17.469C105.938 16.9987 106.336 16.6119 106.813 16.349C107.29 16.0862 107.828 15.9569 108.372 15.9748C110.61 15.9748 111.703 17.6031 111.703 19.6334V25.4631H109.518V20.0086C109.581 19.5437 109.46 19.0724 109.181 18.6964C108.901 18.3203 108.487 18.0697 108.026 17.9984C107.893 17.985 107.759 17.985 107.626 17.9984C107.117 18.0037 106.631 18.2108 106.273 18.5746C105.915 18.9385 105.714 19.4297 105.714 19.9416C105.707 20.0196 105.707 20.0981 105.714 20.1761L105.721 25.4631Z" fill="#375BD2"/>
<path d="M119.157 20.1356L123 25.4962H120.336L117.671 21.6969L116.545 22.8896V25.4627H114.38V11.7529H116.545V19.9681L120.062 16.2424H122.96L119.157 20.1356Z" fill="#375BD2"/>
<path d="M16.36 8.04091L25.8057 13.4953V24.4578L16.3867 29.9457L6.94769 24.5047V13.5489L16.36 8.04091ZM16.36 0L12.8962 2.01023L3.46385 7.51825L0 9.52848V28.5385L3.46385 30.5488L12.9095 36.0032L16.3734 38.0134L19.8372 36.0032L29.2496 30.5086L32.7134 28.4983V9.46147L29.2496 7.45124L19.8106 2.01023L16.3467 0H16.36Z" fill="#375BD2"/>
</g>
<defs>
<clipPath id="clip0_21:12">
<rect width="123" height="38" fill="white"/>
</clipPath>
</defs>
</svg>
