<svg width="139" height="39" viewBox="0 0 139 39" fill="none" xmlns="http://www.w3.org/2000/svg">
<path d="M11.455 15.1157C11.0454 14.7921 10.9757 14.1978 11.2993 13.7882L12.9016 11.7603C13.2252 11.3507 13.8195 11.2811 14.2291 11.6047C14.6386 11.9282 14.7083 12.5226 14.3847 12.9322L12.7825 14.9601C12.4589 15.3696 11.8645 15.4393 11.455 15.1157Z" fill="#50EFD8"/>
<path d="M22.2079 18.6546C22.2079 20.3734 20.8145 21.7667 19.0958 21.7667C17.377 21.7667 15.9836 20.3734 15.9836 18.6546C15.9836 16.9358 17.377 15.5425 19.0958 15.5425C20.8145 15.5425 22.2079 16.9358 22.2079 18.6546Z" fill="#50EFD8"/>
<path fill-rule="evenodd" clip-rule="evenodd" d="M21.159 31.3827C20.0779 32.655 18.114 32.655 17.0329 31.3827L8.08178 20.8485C7.22283 19.8376 7.22283 18.3533 8.08178 17.3424L8.97727 16.2886C9.46135 15.7189 10.3156 15.6495 10.8853 16.1336C11.455 16.6177 11.5244 17.4719 11.0403 18.0416L10.1448 19.0955L19.096 29.6296L21.69 26.5769C22.174 26.0072 23.0283 25.9378 23.598 26.4219C24.1677 26.906 24.2371 27.7602 23.753 28.3299L21.159 31.3827ZM26.755 22.7065C26.1853 22.2225 26.1159 21.3682 26.6 20.7985L28.0471 19.0955L19.096 8.56129L17.2108 10.7799C16.7267 11.3496 15.8724 11.419 15.3027 10.9349C14.733 10.4508 14.6636 9.59658 15.1477 9.02688L17.0329 6.80826C18.114 5.53594 20.0779 5.53594 21.159 6.80826L30.1102 17.3424C30.9691 18.3533 30.9691 19.8376 30.1102 20.8485L28.6631 22.5515C28.179 23.1212 27.3247 23.1906 26.755 22.7065Z" fill="#50EFD8"/>
<path fill-rule="evenodd" clip-rule="evenodd" d="M19.0957 2.70727C10.0446 2.70727 2.70727 10.0446 2.70727 19.0957C2.70727 28.1468 10.0446 35.4841 19.0957 35.4841C19.8433 35.4841 20.4493 36.0902 20.4493 36.8378C20.4493 37.5854 19.8433 38.1914 19.0957 38.1914C8.54944 38.1914 0 29.642 0 19.0957C0 8.54944 8.54944 0 19.0957 0C19.8433 0 20.4493 0.606043 20.4493 1.35364C20.4493 2.10123 19.8433 2.70727 19.0957 2.70727Z" fill="#50EFD8"/>
<path fill-rule="evenodd" clip-rule="evenodd" d="M30.622 32.6519C30.0958 32.1208 30.0997 31.2638 30.6308 30.7376C33.6295 27.7662 35.4844 23.6489 35.4844 19.0959C35.4844 14.5429 33.6295 10.4256 30.6308 7.45424C30.0997 6.92804 30.0958 6.07097 30.622 5.53993C31.1482 5.00889 32.0053 5.00497 32.5363 5.53117C36.0271 8.99008 38.1917 13.7915 38.1917 19.0959C38.1917 24.4003 36.0271 29.2017 32.5363 32.6606C32.0053 33.1868 31.1482 33.1829 30.622 32.6519Z" fill="#50EFD8"/>
<path d="M27.1501 35.4903C27.1501 36.294 26.4986 36.9455 25.6949 36.9455C24.8912 36.9455 24.2397 36.294 24.2397 35.4903C24.2397 34.6867 24.8912 34.0352 25.6949 34.0352C26.4986 34.0352 27.1501 34.6867 27.1501 35.4903Z" fill="#50EFD8"/>
<path d="M61.0208 25.0665V22.9305H54.1115V19.5873H60.5936V17.4514H54.1115V14.2011H60.9279V12.0652H51.7341V25.0665H61.0208Z" fill="#51EEDA"/>
<path d="M66.0463 25.0665V16.0956H66.0648L72.6583 25.0665H74.9614V12.0652H72.5841V21.0175H72.5655L65.9534 12.0652H63.6689V25.0665H66.0463Z" fill="#51EEDA"/>
<path d="M84.3663 25.0665L89.734 12.0652H87.2266L83.1962 21.9276H83.1591L79.1287 12.0652H76.6213L81.9889 25.0665H84.3663Z" fill="#51EEDA"/>
<path d="M100.67 25.0665V22.9305H93.761V19.5873H100.243V17.4514H93.761V14.2011H100.577V12.0652H91.3837V25.0665H100.67Z" fill="#51EEDA"/>
<path d="M111.769 25.0665V22.9677H105.696V12.0652H103.318V25.0665H111.769Z" fill="#51EEDA"/>
<path d="M119.853 25.3079C123.605 25.3079 126.521 22.3548 126.521 18.5658C126.521 14.7769 123.605 11.8237 119.853 11.8237C116.101 11.8237 113.185 14.7769 113.185 18.5658C113.185 22.3548 116.101 25.3079 119.853 25.3079ZM119.853 23.1348C117.253 23.1348 115.6 20.9989 115.6 18.5658C115.6 16.1327 117.253 13.9968 119.853 13.9968C122.472 13.9968 124.125 16.1327 124.125 18.5658C124.125 20.9989 122.472 23.1348 119.853 23.1348Z" fill="#51EEDA"/>
<path d="M131.234 25.0665V20.5346H133.816C135.989 20.5346 138.422 19.2902 138.422 16.2813C138.422 13.2724 135.989 12.0652 133.816 12.0652H128.857V25.0665H131.234ZM131.234 14.2011H133.593C135.413 14.2011 136.026 15.1483 136.026 16.2813C136.026 17.4329 135.413 18.3987 133.593 18.3987H131.234V14.2011Z" fill="#51EEDA"/>
</svg>
