<svg width="136" height="50" viewBox="0 0 136 50" fill="none" xmlns="http://www.w3.org/2000/svg">
<path d="M78.5272 8.22693H76.0844L75.5636 9.98583H74.2407L76.2826 3.47412H78.357L80.4079 9.98583H79.0526L78.5272 8.22693ZM76.4255 7.04341H78.1674L77.4949 4.77928H77.0984L76.4255 7.04341Z" fill="#E53151"/>
<path d="M82.6524 4.69109V9.9912H81.3157V3.47949H85.9436V4.69109H82.6524Z" fill="#E53151"/>
<path d="M91.8893 8.77495V9.98652H87.0454V3.47949H91.7883V4.69109H88.3821V6.05705H91.0321V7.24057H88.3821V8.77495H91.8893Z" fill="#E53151"/>
<path d="M98.5494 3.47949V9.9912H97.2127V7.26396H94.3738V9.9912H93.0371V3.47949H94.3738V6.01495H97.2127V3.47949H98.5494Z" fill="#E53151"/>
<path d="M104.758 4.67238H102.762V9.9912H101.426V4.67238H99.4299V3.47949H104.758V4.67238Z" fill="#E53151"/>
<path d="M111.04 7.9093C110.842 9.20508 109.865 10.1079 108.363 10.1079C106.404 10.1079 105.289 8.72328 105.289 6.73511C105.289 4.74698 106.413 3.3623 108.363 3.3623C109.792 3.3623 110.755 4.18095 110.976 5.37851H109.575C109.423 4.85925 108.999 4.5739 108.363 4.5739C107.211 4.5739 106.667 5.52352 106.667 6.73511C106.667 7.93734 107.215 8.89633 108.363 8.89633C109.054 8.89633 109.52 8.53148 109.649 7.9093H111.04Z" fill="#E53151"/>
<path d="M116.945 4.67238H114.95V9.9912H113.613V4.67238H111.617V3.47949H116.945V4.67238Z" fill="#E53151"/>
<path d="M123.135 8.10128C123.135 9.1866 122.444 9.9912 120.923 9.9912H117.83V3.47949H120.84C122.26 3.47949 122.951 4.27475 122.951 5.20098C122.951 5.79509 122.688 6.30498 122.278 6.51549V6.69793C122.739 6.88973 123.135 7.45576 123.135 8.10128ZM121.582 5.32729C121.582 4.84546 121.278 4.60688 120.674 4.60688H119.172V6.05705H120.683C121.282 6.05705 121.582 5.82315 121.582 5.32729ZM121.762 8.02644C121.762 7.47915 121.43 7.19847 120.748 7.19847H119.176V8.83105H120.729C121.394 8.83105 121.762 8.57378 121.762 8.02644Z" fill="#E53151"/>
<path d="M130.289 6.73511C130.289 8.64844 129.192 10.1079 127.164 10.1079C125.136 10.1079 124.039 8.64844 124.039 6.73511C124.039 4.82183 125.136 3.3623 127.164 3.3623C129.192 3.3623 130.289 4.81715 130.289 6.73511ZM128.916 6.73511C128.916 5.53287 128.367 4.5739 127.164 4.5739C125.97 4.5739 125.412 5.53287 125.412 6.73511C125.412 7.93734 125.97 8.89633 127.164 8.89633C128.367 8.89633 128.916 7.93734 128.916 6.73511Z" fill="#E53151"/>
<path d="M76.0752 15.5112V20.0629H76.255L78.6702 15.5112H80.4219V22.023H79.1637V17.3731H78.9834L76.5131 22.023H74.8215V15.5112H76.0752Z" fill="#E53151"/>
<path d="M87.4232 15.5112V22.023H86.0865V19.2957H83.2468V22.023H81.9102V15.5112H83.2468V18.0467H86.0865V15.5112H87.4232Z" fill="#E53151"/>
<path d="M94.4244 15.5112V22.023H93.0877V19.2957H90.2488V22.023H88.9121V15.5112H90.2488V18.0467H93.0877V15.5112H94.4244Z" fill="#E53151"/>
<path d="M101.855 18.7669C101.855 20.6801 100.757 22.1397 98.7299 22.1397C96.7015 22.1397 95.605 20.6801 95.605 18.7669C95.605 16.8536 96.7015 15.394 98.7299 15.394C100.757 15.394 101.855 16.8489 101.855 18.7669ZM100.482 18.7669C100.482 17.5647 99.9329 16.6057 98.7299 16.6057C97.5362 16.6057 96.9782 17.5647 96.9782 18.7669C96.9782 19.9691 97.5362 20.9281 98.7299 20.9281C99.9329 20.9281 100.482 19.9691 100.482 18.7669Z" fill="#E53151"/>
<path d="M108.345 20.133C108.345 21.2183 107.653 22.023 106.132 22.023H103.039V15.5112H106.049C107.469 15.5112 108.16 16.3065 108.16 17.2327C108.16 17.8269 107.898 18.3367 107.487 18.5472V18.7297C107.948 18.9215 108.345 19.4875 108.345 20.133ZM106.791 17.359C106.791 16.8772 106.487 16.6387 105.883 16.6387H104.38V18.0888H105.893C106.492 18.0888 106.791 17.8549 106.791 17.359ZM106.971 20.0582C106.971 19.5109 106.639 19.2302 105.957 19.2302H104.385V20.8628H105.939C106.602 20.8628 106.971 20.6055 106.971 20.0582Z" fill="#E53151"/>
<path d="M113.253 20.2592H110.81L110.29 22.0181H108.967L111.009 15.5063H113.083L115.134 22.0181H113.779L113.253 20.2592ZM111.147 19.0756H112.889L112.216 16.8115H111.82L111.147 19.0756Z" fill="#E53151"/>
<path d="M121.061 22.0229H116.038V15.5112H117.374V20.8114H120.107V15.5112H121.444V20.8114H122.361V23.6182H121.057V22.0229H121.061Z" fill="#E53151"/>
<path d="M124.574 15.5112V20.0629H124.753L127.168 15.5112H128.92V22.023H127.662V17.3731H127.482L125.011 22.023H123.32V15.5112H124.574Z" fill="#E53151"/>
<path d="M131.653 15.5109V20.0626H131.833L134.248 15.5109H136V22.0227H134.742V17.3728H134.562L132.092 22.0227H130.4V15.5109H131.653ZM134.899 13.7754C134.825 14.6409 134.216 15.1788 133.202 15.1788C132.188 15.1788 131.575 14.6409 131.506 13.7754H132.493C132.529 14.0841 132.76 14.3415 133.202 14.3415C133.635 14.3415 133.866 14.0935 133.912 13.7754H134.899Z" fill="#E53151"/>
<path d="M76.1629 28.7545V34.0547H74.8262V27.543H79.4536V28.7545H76.1629Z" fill="#E53151"/>
<path d="M86.3445 30.7986C86.3445 32.7119 85.2472 34.1714 83.2196 34.1714C81.1913 34.1714 80.0947 32.7119 80.0947 30.7986C80.0947 28.8853 81.1913 27.4258 83.2196 27.4258C85.2472 27.4258 86.3445 28.8806 86.3445 30.7986ZM84.9713 30.7986C84.9713 29.5963 84.4226 28.6373 83.2196 28.6373C82.0259 28.6373 81.4679 29.5963 81.4679 30.7986C81.4679 32.0009 82.0259 32.9598 83.2196 32.9598C84.4226 32.9598 84.9713 32.0009 84.9713 30.7986Z" fill="#E53151"/>
<path d="M92.7792 29.6106C92.7792 30.9252 91.9266 31.7157 90.4609 31.7157H88.8701V34.05H87.5334V27.543H90.4648C91.9266 27.543 92.7792 28.3148 92.7792 29.6106ZM91.4052 29.6293C91.4052 29.0539 91.1013 28.7359 90.2713 28.7359H88.8701V30.5228H90.2713C91.1013 30.5228 91.4052 30.1954 91.4052 29.6293Z" fill="#E53151"/>
<path d="M99.9048 30.7986C99.9048 32.7119 98.8083 34.1714 96.7799 34.1714C94.7516 34.1714 93.655 32.7119 93.655 30.7986C93.655 28.8853 94.7516 27.4258 96.7799 27.4258C98.8083 27.4258 99.9048 28.8806 99.9048 30.7986ZM98.5316 30.7986C98.5316 29.5963 97.9829 28.6373 96.7799 28.6373C95.5862 28.6373 95.0282 29.5963 95.0282 30.7986C95.0282 32.0009 95.5862 32.9598 96.7799 32.9598C97.9829 32.9598 98.5316 32.0009 98.5316 30.7986Z" fill="#E53151"/>
<path d="M107.16 32.8384V35.6452H105.855V34.0547H101.642V35.6498H100.338V32.8431H101.002C101.435 32.0572 101.767 30.8737 101.767 28.9745V27.543H106.242V32.8384H107.16ZM104.938 28.7545H103.007V29.3299C103.007 30.9719 102.73 32.1367 102.361 32.8431H104.943V28.7545H104.938Z" fill="#E53151"/>
<path d="M111.825 32.2909H109.381L108.861 34.0498H107.538L109.579 27.5381H111.654L113.705 34.0498H112.35L111.825 32.2909ZM109.718 31.1074H111.46L110.787 28.8432H110.391L109.718 31.1074Z" fill="#E53151"/>
<path d="M74.8262 39.5747H76.9188L77.9607 42.1756H78.1402L79.1816 39.5747H81.2379V46.0864H79.9883V41.0062H79.8088L78.6423 43.9065H77.4211L76.255 41.0062H76.0753V46.0864H74.8262V39.5747Z" fill="#E53151"/>
<path d="M88.6719 42.8308C88.6719 44.7441 87.5753 46.2036 85.547 46.2036C83.5187 46.2036 82.4221 44.7441 82.4221 42.8308C82.4221 40.9175 83.5187 39.458 85.547 39.458C87.5753 39.458 88.6719 40.9129 88.6719 42.8308ZM87.2987 42.8308C87.2987 41.6286 86.75 40.6696 85.547 40.6696C84.3533 40.6696 83.7953 41.6286 83.7953 42.8308C83.7953 44.033 84.3533 44.992 85.547 44.992C86.75 44.992 87.2987 44.033 87.2987 42.8308Z" fill="#E53151"/>
<path d="M95.3049 44.005C95.1067 45.3007 94.1299 46.2036 92.6269 46.2036C90.6677 46.2036 89.5525 44.8189 89.5525 42.8308C89.5525 40.8427 90.677 39.458 92.6269 39.458C94.056 39.458 95.0189 40.2766 95.2404 41.4742H93.8392C93.6869 40.955 93.2633 40.6696 92.6269 40.6696C91.4744 40.6696 90.9311 41.6192 90.9311 42.8308C90.9311 44.033 91.479 44.992 92.6269 44.992C93.3185 44.992 93.784 44.6271 93.913 44.005H95.3049Z" fill="#E53151"/>
<path d="M96.4846 39.5747H97.8213V42.1196H99.3057L100.518 39.5747H101.901L100.426 42.7417L101.979 46.0911H100.597L99.3103 43.3545H97.8167V46.0911H96.48V39.5747H96.4846Z" fill="#E53151"/>
<path d="M108.22 44.1965C108.22 45.2818 107.529 46.0864 106.008 46.0864H102.915V39.5747H105.925C107.345 39.5747 108.035 40.3699 108.035 41.2962C108.035 41.8903 107.773 42.4002 107.362 42.6107V42.7931C107.824 42.9849 108.22 43.551 108.22 44.1965ZM106.662 41.4225C106.662 40.9406 106.358 40.7021 105.754 40.7021H104.251V42.1523H105.763C106.367 42.1523 106.662 41.9184 106.662 41.4225ZM106.842 44.1263C106.842 43.579 106.51 43.2984 105.828 43.2984H104.256V44.931H105.81C106.478 44.9263 106.842 44.669 106.842 44.1263Z" fill="#E53151"/>
<path d="M109.423 46.0864V39.5747H110.76V41.7827H112.097C113.599 41.7827 114.479 42.5967 114.479 43.9252C114.479 45.2771 113.599 46.0864 112.097 46.0864H109.423ZM113.106 43.9346C113.106 43.3217 112.783 42.9756 111.894 42.9756H110.76V44.8888H111.894C112.783 44.8888 113.106 44.5521 113.106 43.9346ZM116.53 39.5747V46.0864H115.194V39.5747H116.53Z" fill="#E53151"/>
<path fill-rule="evenodd" clip-rule="evenodd" d="M33.4304 42.5217C33.1908 42.1428 32.9972 41.6096 32.7713 41.1371C32.2966 40.1266 32.7621 40.3231 32.4671 39.7384C32.1398 39.0928 31.9739 39.7243 31.1442 38.4378C30.9829 38.1806 30.6511 38.2928 30.6141 38.9103C30.5727 39.5232 31.5867 40.1032 32.0522 41.5955C32.5178 43.0878 32.905 43.2609 32.5224 44.1778C32.1491 45.0946 30.3007 45.0385 30.3007 45.0385C31.7434 46.5635 34.6795 44.4912 33.4304 42.5217ZM18.077 40.7628C16.0858 38.7466 16.8095 38.9478 18.077 37.1514C19.0127 35.8182 23.5851 34.6394 25.8897 34.1248L25.8437 33.9096C24.6775 33.961 22.9259 34.0266 21.1698 34.0219C18.16 34.0219 16.9432 32.8571 16.1642 33.0068C13.1728 33.5775 15.2977 37.0579 11.79 36.562C8.27781 36.0708 8.39299 39.7617 8.39299 39.7617C9.38859 37.7082 10.4211 37.9982 11.2139 37.9607C12.1311 37.9186 13.0299 38.6063 14.3205 37.5117C14.6017 37.2731 15.8877 35.168 15.7033 36.2205C15.5973 36.8333 15.0718 37.5397 14.6524 38.0215C14.3527 38.3677 14.1777 38.6296 14.7907 38.9758C15.0073 39.1021 15.2931 39.2659 15.6618 39.481C17.0814 40.3091 16.8464 41.254 15.9199 41.2025C15.2608 41.1651 14.4818 40.8377 13.8273 40.7675C13.56 40.7394 13.2604 40.8517 13.6798 41.0528C13.9011 41.1604 14.15 41.3148 14.3666 41.5347C15.4083 42.5919 14.1638 42.1756 17.1506 42.0118C17.7866 41.9744 18.2384 41.9136 18.5564 41.8481C19.7364 41.5861 18.3351 41.0295 18.077 40.7628ZM20.0821 15.3147C19.2156 15.8807 17.7913 15.6001 17.7913 15.6001C17.9802 15.8714 19.0173 16.1942 19.5381 16.1848C19.9899 16.1754 20.3909 15.993 20.7458 15.6001C21.5202 14.744 21.2067 13.3125 21.0178 13.1348C21.0131 13.1301 20.9256 14.7627 20.0821 15.3147ZM18.7684 10.7069L19.1326 10.5478C19.1326 10.5478 18.8514 9.71988 18.833 8.98542C18.8146 8.25097 19.1141 6.62306 19.1141 6.62306H18.7684C18.7684 6.62306 18.6117 7.82066 18.4043 8.86378C18.2015 9.91167 17.6622 9.70581 17.3949 9.68714C17.1321 9.66839 15.0257 9.35964 15.0257 9.35964V9.67308C15.0257 9.67308 15.1594 9.69183 16.2241 9.8462C17.2934 10.0053 18.7684 10.7069 18.7684 10.7069ZM16.556 5.57052C16.556 5.57052 16.8464 5.66876 17.3995 5.6828C17.9572 5.69215 18.2291 5.1729 18.2291 5.1729C16.874 5.03724 16.4823 4.55073 16.4823 4.55073C16.4823 4.55073 17.7728 4.48524 18.4227 4.39635C19.0726 4.30748 20.2618 3.9847 20.2618 3.9847C20.2618 3.9847 20.2157 5.06531 20.2065 5.69215C20.2019 6.319 20.9947 6.18334 21.262 6.09913C21.5939 5.99154 21.6492 4.74252 21.7045 3.67127C21.746 2.86199 21.156 2.85731 20.8149 2.99764C20.3172 3.20816 19.3722 3.69934 18.349 4.01744C17.3257 4.33087 15.7263 4.10164 15.7263 4.10164L15.6388 4.43845L16.9846 5.27581L16.556 5.57052ZM41.3675 31.5893C40.902 29.9146 39.4224 26.4997 38.413 24.942C37.3944 23.3842 36.8736 24.5022 36.4726 24.8531C36.0669 25.2039 34.8777 27.2342 34.3569 24.6192C33.836 22.0042 31.1719 19.7354 31.1719 19.7354C31.7204 21.7048 31.5775 23.1457 31.43 24.4133C31.2872 25.6764 31.6052 26.1161 31.6052 26.8786C31.6052 27.6458 29.3466 28.1464 29.2268 28.7311C29.1115 29.3205 32.5869 31.7343 35.901 29.3112C36.8966 28.5814 37.5142 31.4069 37.8322 32.1694C38.1503 32.9366 37.5142 33.1705 38.2655 34.0546C39.0214 34.9341 38.4407 35.6779 38.4407 36.2299C38.4407 36.7445 39.9341 38.0403 40.2106 37.7596C40.6946 37.2731 39.6022 34.3774 39.1689 33.381C38.7311 32.38 38.0397 29.1475 37.5465 28.2633C37.2653 27.7581 35.8088 28.1183 35.8088 28.1183L35.7074 27.7253C35.7074 27.7253 35.9102 27.4634 36.0946 27.2669C37.6018 25.6764 37.4866 26.3267 39.0491 28.268C40.6116 30.2093 38.7311 30.9718 40.0908 31.9729C41.4505 32.9693 41.8285 33.264 41.3675 31.5893ZM20.3632 6.92245C20.0222 7.01602 19.1925 7.15167 19.5796 9.093C19.9668 11.0344 20.9993 10.5619 21.2804 10.3139C21.2804 10.3139 19.8747 10.1643 19.8377 8.48488C19.7963 6.80083 21.7138 7.10957 21.7138 7.10957C21.5939 6.97859 20.9071 6.77744 20.3632 6.92245ZM21.4188 11.9981C19.0634 12.1337 18.2384 11.2776 16.6251 10.4918C15.0072 9.70113 13.6199 10.2812 13.3756 10.6508C14.1269 10.6975 14.9797 11.0017 16.5974 12.0308C19.8654 14.1032 21.4188 11.9981 21.4188 11.9981ZM1.304 29.8445C2.26272 29.5778 2.26272 28.8575 2.27655 28.7077C2.42865 28.9135 2.48397 29.1428 2.48857 29.4328C2.91262 28.8714 2.81122 27.8985 1.76953 27.3184C1.76953 27.3184 1.82945 28.5954 1.02284 29.0446C0.18395 29.5123 0.0502823 29.8118 0.00418982 30.2749C-0.0142471 30.4994 0.027236 30.7379 0.147077 30.9204C0.257698 31.1028 0.442068 31.2338 0.617219 31.2759C0.363711 30.9297 0.313009 30.1158 1.304 29.8445ZM22.0733 20.0862C22.0733 19.305 22.2714 18.9261 22.4834 18.9168C23.1334 18.8887 23.2763 19.8243 23.2855 20.0816C23.3131 20.83 22.7693 21.1856 22.7693 21.1856C23.2348 21.2277 23.6035 20.5728 23.6635 20.1564C23.751 19.5436 23.645 19.3284 23.4284 18.9214C23.4284 18.9214 24.7927 20.2593 24.6452 21.7422C24.4793 23.4216 22.6125 24.3057 22.6125 24.3057C23.1656 24.5069 24.7696 24.3432 25.7929 23.0193C26.3598 22.2896 26.6087 21.1762 25.922 19.422C25.2997 17.8314 24.1151 16.4842 25.3735 13.4295C26.5995 10.4543 29.8536 10.066 31.808 11.4788C31.9371 11.5724 32.0062 11.68 32.0522 11.7969C32.1813 12.1478 31.2641 12.6109 31.6651 12.8214C31.9417 12.9664 32.3012 13.0038 32.61 13.2471C32.8958 13.4669 32.9511 13.654 33.0986 13.7897C33.2092 13.8926 33.2553 13.9114 33.3613 13.9114C32.4763 12.8588 32.3288 11.6659 32.1859 10.3982C31.4899 10.2157 30.3883 9.64503 29.3005 9.51402C28.6184 9.43449 26.9683 9.32222 25.309 10.1503C23.4422 11.0811 21.4694 12.8868 21.4694 17.0783C21.4694 18.884 22.0733 20.1892 22.0733 20.0862ZM11.3614 22.8836C12.4906 24.0953 13.7075 23.6088 14.2514 23.6743C14.7952 23.7397 15.4175 25.1478 15.0903 26.5185C14.7584 27.8844 14.6293 27.6505 14.4035 28.5066C14.1223 29.5871 15.4406 30.3637 15.1317 31.3601C15.0488 31.6361 14.8552 32.0338 15.0857 32.3471C15.4406 32.8337 16.0213 32.1928 16.7496 32.3004C17.3211 32.3846 17.8235 32.1882 18.0725 32.0384C17.9849 31.6174 16.3394 31.8747 15.9706 31.1917C15.8093 30.8923 15.376 27.7815 16.3301 26.3921C17.2059 25.1197 16.3947 24.7221 15.7908 23.6929C16.6159 23.2345 18.5472 22.2568 18.5472 22.2568C19.1786 22.9959 19.6303 23.6368 20.0129 24.5303C20.2157 24.9747 20.3586 25.4518 20.3402 25.929C20.354 26.4155 20.1742 26.8927 19.8701 27.3277C20.2711 27.2669 20.6397 26.5371 20.7504 25.9758C20.8564 25.4144 20.7781 24.8344 20.6259 24.301C20.0682 22.5656 18.7684 21.3259 18.7684 21.3259C18.7684 21.3259 17.0123 21.9387 15.376 22.8369C14.8597 21.8592 14.3436 22.0323 13.7029 22.0884C13.0668 22.1446 12.6796 21.4616 12.6796 21.4616C13.1728 21.6206 13.8642 21.6487 14.7861 21.2791C16.8602 20.4418 16.0766 18.7109 16.0766 18.7109C16.0766 18.7109 16.1181 19.9693 14.8828 20.1471C14.1131 20.2546 12.0989 19.7494 12.0989 19.7494C12.0989 19.7494 13.7167 19.5576 14.044 18.6174C14.4911 17.3262 15.777 17.8314 15.777 17.8314C15.777 17.8314 15.0948 17.0128 14.0347 17.6537C13.3941 18.0467 12.3247 18.1729 11.0157 17.4993C9.70667 16.8257 9.23191 17.939 8.96916 17.9671C8.70641 17.9999 8.49899 17.5601 8.64649 17.1017C8.79399 16.6432 10.2966 16.2129 12.5598 16.124C14.0532 16.0678 14.786 16.3626 15.1133 16.5731C15.1179 16.4468 14.7123 15.8854 13.4816 15.5814C12.251 15.2726 12.334 14.7627 12.3892 13.8832C12.4445 13.0038 11.1862 13.3546 10.8774 13.2424C10.5732 13.1301 10.8544 12.4425 10.8544 12.4425C10.4118 12.5688 10.0754 12.9336 10.0938 13.4716C10.103 13.8318 10.4441 14.0891 10.7806 14.2575C11.1171 14.4259 11.1724 14.7346 10.5639 15.0949C10.0708 15.3849 9.36558 15.7638 8.42065 16.1755C6.31425 17.0924 8.94149 18.6688 8.01965 19.1507C7.09321 19.6325 6.86736 20.264 6.81665 20.6102C6.70142 21.3914 7.21766 21.9761 7.21766 21.9761C9.02908 20.975 10.2321 21.6721 11.3614 22.8836ZM12.1173 40.8892C11.3983 40.688 10.6285 40.6553 9.86334 40.7582C9.07516 40.8798 8.43907 41.1043 7.77539 41.0716C7.11626 41.0575 6.50322 40.7956 6.10222 40.3138C5.92246 40.1032 5.78879 39.8553 5.69661 39.5886C6.01464 38.9244 6.63229 38.2507 7.72928 37.6286C11.5734 35.4627 10.3013 33.0161 10.0616 30.1813C9.94176 28.7405 10.2275 27.4307 10.9558 26.7664C11.9836 25.8261 13.7167 25.9431 13.7167 25.9431C13.5185 25.6857 11.2 24.8437 9.43467 25.3677C7.54031 25.9243 7.19 27.3184 6.86275 28.3054C6.58158 29.1615 6.21285 30.1719 4.53969 30.883C1.72344 32.0805 1.91242 34.3307 1.91242 34.3307C1.91242 34.3307 0.889168 32.1086 3.62706 30.2328C7.10243 27.8517 5.76575 26.0226 6.92727 24.9279C7.83531 24.0765 8.92308 24.2122 10.5778 24.6707C10.2782 24.3151 5.87637 22.4393 5.36474 26.4202C4.93147 29.8024 1.74187 29.3299 1.19337 32.5156C0.8062 34.775 2.91262 36.665 2.91262 36.665C2.91262 36.665 1.23025 33.2453 4.53969 31.8607C6.83048 30.9064 8.1349 29.8024 8.47599 28.7171C8.45757 29.0632 8.45757 29.4328 8.4714 29.8398C8.50824 31.3695 9.22725 32.5671 9.00608 34.7189C8.88158 35.9025 6.75212 37.086 5.55833 38.3022C5.59981 37.7549 5.7427 37.2263 6.01464 36.7866C6.31425 36.3188 6.80744 35.8182 7.02407 35.2662C7.26836 34.7235 7.30524 34.1435 7.22227 33.6757C7.15773 33.2921 7.02407 32.9928 6.88579 32.7354C6.83048 32.7589 6.78439 32.7775 6.73369 32.7963C6.97337 33.3717 7.10703 34.2371 6.6415 35.0838C6.41104 35.5703 6.00082 35.9118 5.56294 36.4778C5.16655 37.0392 4.88999 37.7502 4.85312 38.5174C4.84389 38.7607 4.86694 39.0133 4.90843 39.2659C4.41984 40.5617 4.97756 42.2271 5.42005 43.0035C5.95012 43.9204 6.45252 44.5988 6.1898 45.6653C5.92707 46.7319 6.84431 46.3624 7.49421 46.3764C7.69702 46.381 7.90906 46.381 8.10265 46.381C8.52666 46.381 8.70182 46.0676 8.44374 45.6419C7.99198 44.9075 7.27297 43.8222 6.69681 43.3591C6.18519 42.9428 5.35092 41.8528 5.42466 40.585C6.18058 41.4973 7.02868 41.7826 7.73389 41.8481C8.55899 41.923 9.33792 41.6049 9.97401 41.5066C10.6424 41.399 11.3199 41.4178 11.9421 41.5721C12.5598 41.7265 13.1175 42.0165 13.5507 42.3954C13.9886 42.779 14.2329 43.2843 14.3574 43.7707C14.5971 44.7297 13.9426 45.6326 13.4171 46.105C13.4494 46.1425 13.4908 46.1753 13.5277 46.208C14.4496 45.6466 14.9427 44.6642 14.763 43.4948C14.5878 42.3486 13.56 41.2446 12.1173 40.8892ZM35.3847 38.9571C35.0299 37.9841 34.3477 38.4051 34.0434 38.2975C33.7393 38.19 33.3474 37.8064 33.2184 36.7725C33.0893 35.7387 32.2274 36.2953 32.2274 36.2953C32.2274 36.2953 33.2276 38.3303 33.6333 39.4156C34.0389 40.5009 34.3799 39.6589 34.8685 40.2529C35.3663 40.8471 35.3064 43.9017 35.0252 44.8841C34.6519 46.1893 33.9006 47.1061 33.1354 47.7236C33.8314 47.6394 35.1312 46.2548 35.4954 45.3472C35.9148 44.304 35.6751 43.3404 35.6751 43.3404L36.2605 43.2889L35.901 42.344L36.4679 42.2598C36.4726 42.2598 35.7396 39.9255 35.3847 38.9571ZM28.5493 36.8146C27.6412 36.838 26.5949 37.1655 25.544 36.1784C24.1797 34.9014 22.76 35.7153 22.76 35.7153C22.76 35.7153 23.6589 36.6228 23.1564 36.9971C22.3406 37.6052 22.9398 38.321 22.8706 38.6016C22.7969 38.8776 21.9811 38.9384 20.6075 38.3022C19.8286 37.9374 19.1141 37.9514 18.6486 38.0262C18.2936 38.0871 18.4135 38.3443 18.4919 38.4192C18.4919 38.4192 19.0681 38.9525 19.2939 39.1021C19.4736 39.2191 19.9346 39.6027 20.1051 39.4764C20.2711 39.3548 19.9069 38.6718 19.9069 38.6718C19.9069 38.6718 22.6079 39.5886 23.5528 39.5886C24.6498 39.5886 23.622 37.7362 24.4885 37.6473C24.9217 37.6005 25.4657 38.2928 26.3645 38.4192C26.9867 38.5128 27.5905 38.2414 28.2035 38.0871C28.858 37.9233 29.107 38.742 29.1945 39.4671C29.2084 39.584 29.2314 39.8834 29.3605 40.1032C29.5725 39.0694 29.8629 36.7819 28.5493 36.8146ZM28.646 35.285C28.3188 35.7668 28.5677 36.4544 29.4342 36.7118C30.2132 36.941 30.7294 37.1842 31.112 37.5725C31.6743 38.1385 31.9324 38.2133 32.0707 38.2086L8.13031 4.55541L7.81223 4.78931C7.81223 4.78931 21.6262 24.2075 27.7703 32.8477C27.9961 33.1658 28.9318 34.8499 28.646 35.285ZM29.3144 14.8282C28.729 14.2575 28.8995 13.1348 28.8995 13.1348C28.6506 13.3453 28.3372 14.8142 28.858 15.558C29.4619 16.4234 30.0058 16.5403 30.4851 17.4806C30.5451 17.345 30.4667 17.0128 30.3422 16.7602C30.1533 16.3766 30.0795 16.0585 30.5266 15.9275C31.7849 15.558 32.9511 17.3918 33.6333 17.3637C34.5919 17.3216 34.8086 16.4514 34.8501 16.4047C34.8915 16.3626 34.3477 16.7836 33.7254 16.7088C32.7483 16.5871 32.2966 15.4738 31.195 15.2493C30.4943 15.1042 29.8997 15.4036 29.3144 14.8282ZM12.6381 44.0374C12.3109 44.4537 11.8039 44.5894 11.5089 44.3508C11.2461 44.1403 11.2415 43.6959 11.4674 43.3123C11.2784 43.3591 11.1124 43.4667 11.0019 43.6257C10.7207 44.0374 10.882 44.6502 11.3706 44.9964C11.8592 45.3425 12.4814 45.2864 12.7626 44.8747C12.9608 44.5894 12.9377 44.2058 12.7395 43.883C12.7119 43.9345 12.6796 43.986 12.6381 44.0374Z" fill="#E53151"/>
<path d="M65.9447 0L48.2521 49.3526L48.8541 49.5748L66.5467 0.222316L65.9447 0Z" fill="#E53151"/>
</svg>
