<svg width="163" height="38" viewBox="0 0 163 38" fill="none" xmlns="http://www.w3.org/2000/svg">
<g clip-path="url(#clip0_190:261)">
<path fill-rule="evenodd" clip-rule="evenodd" d="M6.90568 23.5069C6.90568 23.8273 7.1666 24.0872 7.48836 24.0872H13.2285C13.5503 24.0872 13.8112 23.8273 13.8112 23.5069V20.6461H16.6815C17.0033 20.6461 17.2642 20.4319 17.2642 20.1116V17.786C17.2642 17.4656 17.0033 17.2058 16.6815 17.2058H7.48836C7.1666 17.2058 6.90568 17.4656 6.90568 17.786V23.5069ZM6.90552 10.904C6.90552 10.5836 6.64459 10.3237 6.32283 10.3237H0.582692C0.260928 10.3237 0 10.5836 0 10.904V16.6249C0 16.9453 0.260928 17.2052 0.582692 17.2052L2.86648 17.2052C3.18824 17.2052 3.45283 16.9453 3.45283 16.6249V13.7642H6.32283C6.64459 13.7642 6.90552 13.5473 6.90552 13.2268V10.904ZM10.3585 31.5501C10.3585 31.2296 10.0965 30.9697 9.77478 30.9697H7.48602C7.16426 30.9697 6.90568 31.2296 6.90568 31.5501V33.822C6.90568 34.1424 7.16426 34.4102 7.48602 34.4102H9.77478C10.0965 34.4102 10.3585 34.1424 10.3585 33.822V31.5501ZM51.2099 10.3237H45.4697C45.1479 10.3237 44.8871 10.5836 44.8871 10.904V13.1839C44.8871 13.5043 45.1479 13.7642 45.4697 13.7642H48.3399V16.6249C48.3399 16.9453 48.6009 17.2052 48.9226 17.2052H51.2099C51.5316 17.2052 51.7926 16.9453 51.7926 16.6249V10.904C51.7926 10.5836 51.5316 10.3237 51.2099 10.3237ZM44.3042 17.2058H35.111C34.7893 17.2058 34.5283 17.4656 34.5283 17.786V20.0659C34.5283 20.3864 34.7893 20.6461 35.111 20.6461H37.9812V23.5069C37.9812 23.8273 38.1779 24.0872 38.4996 24.0872H44.3042C44.6259 24.0872 44.8869 23.8273 44.8869 23.5069V17.786C44.8869 17.4656 44.6259 17.2058 44.3042 17.2058ZM40.8513 34.4102H37.9812V31.5696C37.9812 31.2491 37.6561 30.9693 37.3343 30.9693H34.5283V24.668C34.5283 24.3476 34.2092 24.0879 33.8875 24.0879H31.0755V17.8396C31.0755 17.5192 30.7624 17.2052 30.4407 17.2052H21.2658C20.9441 17.2052 20.7171 17.5192 20.7171 17.8396V24.0872H17.819C17.4971 24.0872 17.2642 24.3841 17.2642 24.7046V30.9693H14.3722C14.0504 30.9693 13.8114 31.2491 13.8114 31.5696V34.4102H10.9254C10.6037 34.4102 10.3585 34.6817 10.3585 35.0022V37.2741C10.3585 37.5945 10.6037 37.8512 10.9254 37.8512H16.6536C16.9753 37.8512 17.2642 37.5945 17.2642 37.2741V34.4102H20.1342C20.4559 34.4102 20.7169 34.1621 20.7169 33.8417V27.5282H31.0755V33.8299C31.0755 34.1503 31.2844 34.4102 31.6061 34.4102H34.5283V37.271C34.5283 37.5915 34.731 37.8512 35.0527 37.8512H40.8513C41.173 37.8512 41.434 37.5915 41.434 37.271V35.0022C41.434 34.6817 41.173 34.4102 40.8513 34.4102ZM44.2981 30.9697H42.0167C41.695 30.9697 41.434 31.2296 41.434 31.5501V33.8295C41.434 34.1497 41.695 34.4102 42.0167 34.4102H44.2981C44.6198 34.4102 44.8869 34.1497 44.8869 33.8295V31.5501C44.8869 31.2296 44.6198 30.9697 44.2981 30.9697Z" fill="#002366"/>
<path fill-rule="evenodd" clip-rule="evenodd" d="M14.394 10.3232H37.3984C37.7201 10.3232 37.9809 10.1186 37.9809 9.7979V7.46304C37.9809 7.14227 37.7201 6.88235 37.3984 6.88235H34.5282V4.02203C34.5282 3.70136 34.2671 3.44134 33.9454 3.44134L31.0754 3.44148V0.580855C31.0754 0.260192 30.8146 0.000157461 30.4929 0.000157461L21.2997 0C20.978 0 20.717 0.260035 20.717 0.580698V3.44134H17.8468C17.5251 3.44134 17.2641 3.70136 17.2641 4.02203V6.88235H14.394C14.0722 6.88235 13.8113 7.14227 13.8113 7.46304V9.7979C13.8113 10.1186 14.0722 10.3232 14.394 10.3232Z" fill="#2BD4AB"/>
<path fill-rule="evenodd" clip-rule="evenodd" d="M108.286 16.9022C106.472 16.9022 104.835 17.6456 103.682 18.8378C102.556 17.6409 100.952 16.8929 99.1744 16.8929C98.177 16.8929 97.1595 17.2569 96.3744 17.7828V17.6463C96.3744 17.3949 96.1652 17.2036 95.9215 17.2036H93.3929C93.1509 17.2036 92.94 17.3949 92.94 17.6463V30.2619C92.94 30.5132 93.1493 30.7044 93.3929 30.7044H95.9278C96.1697 30.7044 96.3807 30.5132 96.3807 30.2619V23.0343C96.3807 21.4983 97.6326 20.2551 99.1744 20.2551C100.718 20.2551 101.968 21.4997 101.968 23.0343V30.2619C101.968 30.5132 102.177 30.7044 102.421 30.7044H104.897C104.903 30.7044 104.907 30.7044 104.911 30.7044H104.966C105.208 30.7044 105.419 30.5132 105.419 30.2619V23.039C105.419 21.5105 106.697 20.2613 108.286 20.2613C109.874 20.2613 111.152 21.5105 111.152 23.039V30.2602C111.152 30.5116 111.362 30.703 111.605 30.703H114.149C114.393 30.703 114.602 30.5116 114.602 30.2602V23.039C114.601 19.6444 111.768 16.9022 108.286 16.9022ZM127.25 23.645C126.284 23.0606 125.044 22.7799 123.965 22.5361L123.943 22.5316C123.158 22.3542 122.469 22.1969 121.973 21.9655C121.481 21.7373 121.258 21.4751 121.258 21.1142C121.258 20.8027 121.376 20.5265 121.655 20.3091C121.942 20.0855 122.417 19.9127 123.15 19.8695C124.401 19.8695 125.369 19.8988 126.023 19.9282C126.352 19.942 126.602 19.9575 126.768 19.9682C126.852 19.9744 126.915 19.9775 126.957 19.9806C126.979 19.9821 126.994 19.9837 127.004 19.9837L127.014 19.9852H127.017L127.028 19.9868H127.039C127.233 19.9868 127.41 19.9497 127.531 19.8248C127.638 19.7138 127.66 19.5719 127.669 19.5025C127.669 19.4978 127.671 19.4932 127.671 19.4901C127.675 19.4608 127.678 19.4392 127.683 19.4192L127.689 19.393V17.8461C127.689 17.6579 127.677 17.4852 127.604 17.3525C127.514 17.1875 127.363 17.1351 127.242 17.1088L127.232 17.1073L127.221 17.1058H127.216L127.204 17.1042C127.193 17.1027 127.177 17.1011 127.157 17.0996C127.115 17.095 127.053 17.0888 126.971 17.0811C126.805 17.0657 126.557 17.0456 126.222 17.0256C125.552 16.9855 124.534 16.9454 123.141 16.9454H123.137H123.132C121.348 17.0117 119.995 17.5052 119.085 18.2856C118.171 19.0675 117.721 20.1225 117.721 21.2638C117.721 22.0148 117.895 22.6302 118.202 23.1376C118.508 23.6436 118.937 24.0276 119.428 24.3284C120.394 24.9189 121.632 25.2044 122.71 25.4525L122.732 25.4572C123.518 25.6376 124.208 25.7982 124.705 26.0325C125.195 26.2639 125.423 26.5307 125.423 26.9024C125.423 27.2123 125.279 27.4885 124.93 27.6998C124.567 27.9187 123.979 28.0652 123.113 28.0652C122.13 28.0652 121.056 27.9603 120.225 27.854C119.809 27.8016 119.457 27.7476 119.207 27.7075C119.083 27.6874 118.984 27.6703 118.917 27.6596C118.899 27.6565 118.883 27.6535 118.869 27.6518C118.858 27.6504 118.847 27.6488 118.84 27.6474L118.821 27.6441L118.815 27.6427L118.793 27.638H118.771C118.595 27.638 118.427 27.6703 118.309 27.7892C118.205 27.8924 118.182 28.0298 118.173 28.093C118.171 28.0977 118.171 28.1024 118.171 28.1054C118.165 28.1393 118.16 28.1609 118.156 28.1824L118.15 28.2072L118.052 29.953V29.9591C118.052 30.0733 118.069 30.209 118.131 30.3309C118.194 30.4604 118.309 30.576 118.485 30.6207L118.491 30.6223L118.497 30.624L118.505 30.5837C118.497 30.624 118.497 30.624 118.497 30.624H118.499L118.503 30.6254C118.506 30.627 118.512 30.627 118.52 30.6284C118.534 30.6317 118.556 30.6347 118.584 30.6408C118.64 30.6516 118.72 30.6656 118.827 30.6825C119.041 30.7164 119.353 30.7611 119.757 30.8075C120.56 30.8985 121.72 30.9879 123.147 30.9879H123.158C123.333 30.9893 124.759 31.0003 126.15 30.4805C126.848 30.2198 127.553 29.8203 128.083 29.2066C128.618 28.588 128.964 27.763 128.964 26.6803C128.964 25.937 128.789 25.3261 128.482 24.8234C128.172 24.3206 127.742 23.9413 127.25 23.645ZM155.837 16.9331C154.421 16.9331 153.091 17.4331 151.985 18.1683V12.4895C151.985 12.2381 151.776 12.0469 151.532 12.0469H148.994C148.752 12.0469 148.541 12.2381 148.541 12.4895V30.2633C148.541 30.5146 148.751 30.7059 148.994 30.7059H151.532C151.774 30.7059 151.985 30.5146 151.985 30.2633V29.7339C152.995 30.4399 154.424 30.9717 155.837 30.9717C159.93 30.9717 163 27.7488 163 24.0652C163 19.955 159.834 16.9331 155.837 16.9331ZM155.837 27.5135C153.998 27.5135 152.382 25.8811 152.382 24.0652C152.382 21.8594 154.116 20.3888 155.837 20.3888C157.894 20.3888 159.554 21.771 159.554 24.0652C159.554 25.7342 158.211 27.5135 155.837 27.5135ZM144.637 17.2051H142.093C141.85 17.2051 141.64 17.3964 141.64 17.6478V24.9026C141.64 26.4096 140.365 27.6449 138.774 27.6449C138.766 27.6449 138.76 27.6449 138.752 27.6449C138.744 27.6449 138.738 27.6449 138.73 27.6449C137.139 27.6449 135.864 26.4096 135.864 24.9026V17.6478C135.864 17.3964 135.654 17.2051 135.411 17.2051H132.867C132.623 17.2051 132.414 17.3964 132.414 17.6478V24.9026C132.414 28.2619 135.25 30.97 138.73 30.97C138.738 30.97 138.744 30.97 138.752 30.97C138.76 30.97 138.766 30.97 138.774 30.97C142.253 30.97 145.09 28.2619 145.09 24.9026V17.6478C145.09 17.3964 144.881 17.2051 144.637 17.2051ZM71.6636 23.645C70.6972 23.0606 69.4578 22.7799 68.3784 22.5361L68.3566 22.5316C67.5717 22.3542 66.883 22.1969 66.3867 21.9655C65.8948 21.7373 65.6715 21.4751 65.6715 21.1142C65.6715 20.8027 65.7895 20.5265 66.0686 20.3091C66.3555 20.0855 66.8303 19.9127 67.564 19.8695C68.8142 19.8695 69.7822 19.8988 70.4366 19.9282C70.7655 19.942 71.0153 19.9575 71.1813 19.9682C71.2651 19.9744 71.3287 19.9775 71.3704 19.9806C71.3922 19.9821 71.4077 19.9837 71.4171 19.9837L71.4279 19.9852H71.4309L71.4419 19.9868H71.4527C71.6465 19.9868 71.8234 19.9497 71.9444 19.8248C72.0514 19.7138 72.0732 19.5719 72.0825 19.5025C72.0825 19.4978 72.084 19.4932 72.084 19.4901C72.0886 19.4608 72.0917 19.4392 72.0964 19.4192L72.1027 19.393V17.8461C72.1027 17.6579 72.0903 17.4852 72.0173 17.3525C71.9273 17.1875 71.7769 17.1351 71.6559 17.1088L71.6451 17.1073L71.6343 17.1058H71.6296L71.6172 17.1042C71.6064 17.1027 71.5907 17.1011 71.5705 17.0996C71.5287 17.095 71.4666 17.0888 71.3845 17.0811C71.2184 17.0657 70.9703 17.0456 70.6353 17.0256C69.9652 16.9855 68.9476 16.9454 67.5546 16.9454H67.5499H67.5454C65.7616 17.0117 64.4089 17.5052 63.4983 18.2856C62.5864 19.0675 62.1365 20.1225 62.1365 21.2638C62.1365 22.0148 62.3103 22.6302 62.6173 23.1376C62.923 23.6436 63.3525 24.0276 63.8427 24.3284C64.8091 24.9189 66.0468 25.2044 67.1249 25.4525L67.1467 25.4572C67.9332 25.6376 68.6235 25.7982 69.1198 26.0325C69.61 26.2639 69.838 26.5307 69.838 26.9024C69.838 27.2123 69.6938 27.4885 69.3447 27.6998C68.9817 27.9187 68.3938 28.0652 67.5283 28.0652C66.5448 28.0652 65.4715 27.9603 64.64 27.854C64.2243 27.8016 63.8722 27.7476 63.6224 27.7075C63.4983 27.6874 63.3991 27.6703 63.3325 27.6596C63.3137 27.6565 63.2983 27.6535 63.2844 27.6518C63.2734 27.6504 63.2626 27.6488 63.2549 27.6474L63.2363 27.6441L63.23 27.6427L63.2082 27.638H63.185C63.0081 27.638 62.8406 27.6703 62.7229 27.7892C62.619 27.8924 62.5955 28.0298 62.5864 28.093C62.5847 28.0977 62.5847 28.1024 62.5847 28.1054C62.5786 28.1393 62.5739 28.1609 62.5692 28.1824L62.5629 28.2072L62.4623 29.9516V29.9576C62.4623 30.0719 62.4792 30.2074 62.5413 30.3293C62.6049 30.459 62.7196 30.5746 62.895 30.6193L62.9012 30.6207L62.9075 30.6223L62.9152 30.5823C62.9075 30.6223 62.9075 30.6223 62.9075 30.6223H62.9089L62.9136 30.624C62.9166 30.6254 62.923 30.6254 62.9307 30.627C62.9445 30.6301 62.9664 30.6331 62.9943 30.6394C63.0501 30.6502 63.1308 30.664 63.2377 30.6809C63.4519 30.7148 63.7636 30.7597 64.1668 30.8058C64.9704 30.8969 66.1306 30.9863 67.5577 30.9863H67.5687C67.7439 30.9879 69.1693 30.9987 70.5607 30.4789C71.2588 30.2184 71.9631 29.8189 72.4935 29.205C73.0287 28.5866 73.3745 27.7614 73.3745 26.6787C73.3745 25.9353 73.1993 25.3247 72.8922 24.8218C72.585 24.3206 72.1555 23.9413 71.6636 23.645ZM89.0408 17.2051H86.4968C86.2533 17.2051 86.0439 17.3964 86.0439 17.6478V24.9032C86.0439 26.41 84.7688 27.6455 83.1773 27.6455C83.1696 27.6455 83.1635 27.6455 83.1557 27.6455C83.148 27.6455 83.1417 27.6455 83.1339 27.6455C81.5424 27.6455 80.2674 26.41 80.2674 24.9032V17.6478C80.2674 17.3964 80.0579 17.2051 79.8144 17.2051H77.2706C77.0269 17.2051 76.8177 17.3964 76.8177 17.6478V24.9032C76.8177 28.2623 79.6531 30.9706 83.1339 30.9706C83.1417 30.9706 83.148 30.9706 83.1557 30.9706C83.1635 30.9706 83.1696 30.9706 83.1773 30.9706C86.6566 30.9706 89.4938 28.2623 89.4938 24.9032V17.6478C89.4938 17.3964 89.2843 17.2051 89.0408 17.2051Z" fill="#002366"/>
</g>
<defs>
<clipPath id="clip0_190:261">
<rect width="163" height="38" fill="white"/>
</clipPath>
</defs>
</svg>
