<svg width="118" height="18" viewBox="0 0 118 18" fill="none" xmlns="http://www.w3.org/2000/svg">
<path fill-rule="evenodd" clip-rule="evenodd" d="M25.9816 6.76803C25.9816 7.59541 27.0247 7.84797 28.2358 8.13271L28.2373 8.1331C29.9628 8.53597 31.9205 8.993 31.9286 11.1871C31.9286 13.124 30.2461 14.3758 27.6424 14.3758C26.071 14.3758 24.4671 13.9164 23.5432 13.2019L24.3073 11.4719C25.2897 12.1566 26.4579 12.5312 27.6587 12.5464C29.4062 12.5464 29.6771 11.813 29.6771 11.3778C29.6771 10.529 28.6313 10.2791 27.4175 9.99166L27.3712 9.98041C25.6569 9.56433 23.7383 9.09863 23.7383 6.88621C23.7383 5.33888 24.8545 3.68408 27.9946 3.68408C29.2525 3.69992 30.483 4.05063 31.5574 4.69953L29.8912 5.91646C29.292 5.63465 28.6329 5.50101 27.9703 5.52693C27.3715 5.52693 25.9816 5.64781 25.9816 6.76803ZM41.3462 8.83645L41.4546 8.87408C42.0015 9.03299 42.479 9.36863 42.8114 9.82769C43.1437 10.2867 43.3118 10.8427 43.2888 11.4073C43.2888 13.2125 41.8528 14.2092 39.2492 14.2092H34.0175V3.86398H38.9593C41.3489 3.86398 42.7768 4.86062 42.7768 6.52885C42.7907 6.99044 42.6733 7.44663 42.438 7.84522C42.2028 8.24375 41.8591 8.56865 41.4465 8.78273L41.3462 8.83645ZM38.6667 5.58595H36.2689V8.11381H38.6667C39.8642 8.11381 40.4955 7.6813 40.4955 6.84852C40.4955 6.27635 40.1785 5.58595 38.6667 5.58595ZM36.2689 12.4845H39.0758C40.3763 12.4845 41.0076 12.0493 41.0076 11.1655C41.0076 10.2817 40.3573 9.84113 39.0758 9.84113H36.2689V12.4845ZM50.9156 5.58602L53.2727 3.86137H45.3858V14.2066H53.2727V12.4846H47.6373V9.83585H52.4436V8.11392H47.6373V5.58602H50.9156ZM61.9749 10.8459L64.2674 14.2092H61.8614L59.843 11.2784H57.61V14.2092H55.3588V3.86398H59.6643C62.4061 3.86398 64.1074 5.28239 64.1074 7.56582C64.1358 8.26372 63.9463 8.9534 63.5651 9.54053C63.1833 10.1276 62.6279 10.5835 61.9749 10.8459ZM59.6155 5.58595H57.6214V9.5564H59.6155C61.0593 9.5564 61.8529 8.85254 61.8529 7.57117C61.8529 6.28979 61.0593 5.58595 59.6155 5.58595Z" fill="#00A421"/>
<path fill-rule="evenodd" clip-rule="evenodd" d="M72.2568 9.98378C72.2483 10.3927 72.3153 10.7997 72.4548 11.1846C72.5717 11.4989 72.7566 11.784 72.9966 12.0201C73.24 12.2525 73.5338 12.4263 73.8555 12.5278C74.201 12.6329 74.5612 12.6845 74.9232 12.6809C75.5813 12.7214 76.2303 12.512 76.738 12.0953C77.1663 11.7031 77.3802 11.061 77.3802 10.1692V3.90186H79.2336V9.96769C79.2478 10.6339 79.1451 11.2975 78.9301 11.9287C78.7502 12.4478 78.4507 12.9178 78.0547 13.3015C77.6655 13.6726 77.1941 13.9486 76.6784 14.1074C76.0862 14.291 75.4678 14.3816 74.8472 14.376C74.1777 14.3907 73.5112 14.2889 72.8775 14.0751C72.3573 13.8945 71.8841 13.6008 71.4927 13.2155C71.1217 12.8357 70.8431 12.376 70.6803 11.8723C70.4942 11.3005 70.4029 10.7027 70.4091 10.102V3.92335H72.2625L72.2568 9.98378ZM84.0183 6.73596V14.1826H82.1813V3.90186H84.2401L89.8541 11.3485V3.90186H91.707V14.1826H89.6318L84.0183 6.73596ZM94.6876 14.1826H96.5404V3.90186H94.6876V14.1826ZM107.188 5.59158H103.693V14.188H101.84V5.59158H98.4046V3.90186H107.188V5.59158ZM113.945 14.1826V10.3948L117.904 3.90186H115.799L113.119 8.5278L110.334 3.90186H108.166L112.092 10.2901V14.1826H113.945Z" fill="#A80534"/>
<path d="M16.2578 3.5C16.6914 4.05158 17.0571 4.6525 17.347 5.29L9.0769 11.29L5.62769 9.17997V6.60001L9.0769 8.75L16.2578 3.5Z" fill="#21A038"/>
<path d="M2.09778 8.9998C2.09778 8.87977 2.09778 8.7698 2.09778 8.64976L0 8.5498C0 8.69977 0 8.84979 0 8.9998C0.00211858 11.3859 0.959822 13.6736 2.66256 15.3598L4.14513 13.8898C2.83212 12.5958 2.09502 10.8353 2.09778 8.9998Z" fill="url(#paint0_linear_206_243)"/>
<path d="M9.07694 2.08H9.42992L9.53079 0H9.07694C6.67042 0.00210062 4.36322 0.951688 2.6626 2.64L4.14516 4.11C5.4527 2.81186 7.22661 2.08168 9.07694 2.08Z" fill="url(#paint1_linear_206_243)"/>
<path d="M9.07689 15.9201H8.72386L8.62305 18.0001H9.07689C11.4834 17.998 13.7906 17.0484 15.4912 15.3601L14.0087 13.8901C12.7011 15.1883 10.9272 15.9185 9.07689 15.9201Z" fill="url(#paint2_linear_206_243)"/>
<path d="M13.0102 3.29L14.7752 2C13.162 0.707394 11.151 0.00156695 9.0769 0V2.08C10.4812 2.07999 11.8526 2.50186 13.0102 3.29Z" fill="url(#paint3_linear_206_243)"/>
<path d="M18.1538 9.00018C18.1524 8.46052 18.1052 7.92198 18.0126 7.39014L16.0561 8.81017V9.00018C16.0562 10.9558 15.2207 12.8198 13.7566 14.1302L15.1282 15.6701C17.0435 13.9717 18.143 11.5479 18.1538 9.00018Z" fill="#21A038"/>
<path d="M9.07688 15.9201C7.10458 15.9203 5.22454 15.0918 3.90302 13.6401L2.34985 15.0001C4.06286 16.8991 6.50737 17.9893 9.07688 18.0001V15.9201Z" fill="url(#paint4_linear_206_243)"/>
<path d="M4.39726 3.87008L3.02564 2.33008C1.1104 4.02856 0.0109282 6.45234 0 9.00007H2.09778C2.09762 7.04449 2.93318 5.18041 4.39726 3.87008Z" fill="url(#paint5_linear_206_243)"/>
<defs>
<linearGradient id="paint0_linear_206_243" x1="5.08263" y1="13.2192" x2="0.732137" y2="8.60063" gradientUnits="userSpaceOnUse">
<stop offset="0.14" stop-color="#F2E913"/>
<stop offset="0.3" stop-color="#E7E518"/>
<stop offset="0.58" stop-color="#CADB26"/>
<stop offset="0.89" stop-color="#A3CD39"/>
</linearGradient>
<linearGradient id="paint1_linear_206_243" x1="5.12091" y1="4.77531" x2="9.02511" y2="0.654447" gradientUnits="userSpaceOnUse">
<stop offset="0.06" stop-color="#0FA8E0"/>
<stop offset="0.54" stop-color="#0099F9"/>
<stop offset="0.92" stop-color="#0291EB"/>
</linearGradient>
<linearGradient id="paint2_linear_206_243" x1="9.73514" y1="18.7478" x2="15.2012" y2="15.3184" gradientUnits="userSpaceOnUse">
<stop offset="0.12" stop-color="#A3CD39"/>
<stop offset="0.28" stop-color="#86C339"/>
<stop offset="0.87" stop-color="#21A038"/>
</linearGradient>
<linearGradient id="paint3_linear_206_243" x1="7.12627" y1="2.34791" x2="11.1018" y2="5.98307" gradientUnits="userSpaceOnUse">
<stop offset="0.06" stop-color="#0291EB"/>
<stop offset="0.79" stop-color="#0C8ACB"/>
</linearGradient>
<linearGradient id="paint4_linear_206_243" x1="1.09997" y1="16.8001" x2="5.72719" y2="20.8848" gradientUnits="userSpaceOnUse">
<stop offset="0.13" stop-color="#F2E913"/>
<stop offset="0.3" stop-color="#EBE716"/>
<stop offset="0.53" stop-color="#D9E01F"/>
<stop offset="0.8" stop-color="#BBD62D"/>
<stop offset="0.98" stop-color="#A3CD39"/>
</linearGradient>
<linearGradient id="paint5_linear_206_243" x1="2.8961" y1="11.1471" x2="7.20388" y2="6.33391" gradientUnits="userSpaceOnUse">
<stop offset="0.07" stop-color="#A3CD39"/>
<stop offset="0.26" stop-color="#81C55F"/>
<stop offset="0.92" stop-color="#0FA8E0"/>
</linearGradient>
</defs>
</svg>
