<svg width="30" height="30" viewBox="0 0 30 30" fill="none" xmlns="http://www.w3.org/2000/svg">
<path fill-rule="evenodd" clip-rule="evenodd" d="M15 -1.31134e-06C6.71573 -2.03558e-06 2.03557e-06 6.71573 1.31134e-06 15C5.87107e-07 23.2843 6.71573 30 15 30C23.2843 30 30 23.2843 30 15C30 6.71573 23.2843 -5.87108e-07 15 -1.31134e-06ZM9.50444 12.312C9.50461 12.1132 9.58374 11.9225 9.72444 11.782L14.8644 6.65201C14.9583 6.55735 15.0861 6.50411 15.2194 6.50411C15.3528 6.50411 15.4806 6.55735 15.5744 6.65201L16.2844 7.35201C16.3791 7.44589 16.4323 7.57369 16.4323 7.70701C16.4323 7.84033 16.3791 7.96812 16.2844 8.06201L11.8344 12.502L16.2844 16.942C16.3785 17.0342 16.4315 17.1603 16.4315 17.292C16.4315 17.4237 16.3785 17.5498 16.2844 17.642L15.5744 18.352C15.4806 18.4467 15.3528 18.4999 15.2194 18.4999C15.0861 18.4999 14.9583 18.4467 14.8644 18.352L9.72444 13.222C9.58555 13.0803 9.50674 12.8904 9.50444 12.692L9.50444 12.312Z" fill="#B0C1D6"/>
</svg>
