<svg width="414" height="184" viewBox="0 0 414 184" fill="none" xmlns="http://www.w3.org/2000/svg">
<path d="M645 183.679V43.6697H617.998V117.008H607.664V103.674H580.551V167.789H573.551V97.0067H543.549V152.233H533.215V21.8904H518.325V0H503.101V21.4459H499.434V131.12H495.768V90.3396H462.099V156.677H453.542V148.566H417.207V97.4512H382.76V147.455H367.536V140.454H350.091V147.121H340.868V178.901H333.867V132.231H301.31V73.6718H282.419V62.2265H275.419V54.1148H265.418V72.6717H261.307V147.455H250.973V139.343H241.306V47.7811H211.637V51.448H209.414V164.011H181.635V116.23L173.856 108.452H150.855L142.521 116.786V162.9H137.521V81.4501H120.853V72.2272H105.296V80.0055H101.185V162.233H95.2955V104.118H63.4044V147.455H54.8483V83.3391H41.514V89.2284H25.9574V147.01H20.7348V65.5601H1.84467V54.4482H-15.9344V64.7822H-19.6013V159.567H-24.8239V116.675H-57.8262V130.009H-62.2709V88.895H-93.7175V173.345H-98.4956V105.896H-134.831V150.677H-140.721V98.8957H-153.277V88.895H-169.5V97.4512H-173.945V147.788H-177.279V183.679C-177.279 183.679 645 184.124 645 183.679Z" fill="#001C71"/>
<ellipse cx="48.5686" cy="68.4589" rx="10.5686" ry="10.4589" fill="#001C71"/>
<path d="M52.7206 65.8286C52.5894 64.3906 51.408 63.9082 49.9163 63.7705L49.9168 61.776L48.7611 61.7758L48.7606 63.7178C48.4568 63.7176 48.1462 63.7239 47.8376 63.7302L47.8384 61.7753L46.6833 61.775L46.6824 63.7689C46.4322 63.7742 46.1864 63.7791 45.9468 63.7792L44.3527 63.7718L44.3526 65.0685C44.3526 65.0685 45.2061 65.0517 45.1919 65.0681C45.66 65.0684 45.8123 65.354 45.8566 65.6003L45.856 67.8725L45.8549 71.0644C45.8344 71.2192 45.7477 71.466 45.4206 71.4664C45.4354 71.4802 44.5805 71.466 44.5805 71.466L44.3504 72.9158L45.8545 72.9163C46.1344 72.9168 46.4097 72.9218 46.6802 72.9236L46.6801 74.9409L47.8346 74.9414L47.8351 72.9455C48.1521 72.9525 48.4588 72.9552 48.7583 72.955L48.7572 74.9417L49.913 74.9419L49.9139 72.9282C51.857 72.8118 53.217 72.2981 53.3864 70.3813C53.5232 68.8379 52.8323 68.1491 51.7295 67.8705C52.3997 67.5122 52.8184 66.8808 52.7206 65.8286ZM51.1025 70.1415C51.1026 71.649 48.6455 71.4768 47.8622 71.4773L47.8633 68.8045C48.6468 68.805 51.103 68.5691 51.1025 70.1415ZM50.566 66.3704C50.5653 67.7419 48.5161 67.5812 47.8636 67.581L47.8644 65.157C48.5169 65.1572 50.5662 64.94 50.566 66.3704Z" fill="#0041A1"/>
<ellipse cx="113.48" cy="57.7298" rx="10.4803" ry="10.7298" fill="#001C71"/>
<path d="M112.991 51L112.904 51.3113V60.3436L112.991 60.435L116.982 57.9567L112.991 51Z" fill="#0041A1"/>
<path d="M112.991 51.0005L109 57.9572L112.991 60.4354V56.0514V51.0005Z" fill="#0041A1"/>
<path d="M112.991 61.2275L112.942 61.2905V64.5079L112.991 64.6587L116.985 58.7505L112.991 61.2275Z" fill="#0041A1"/>
<path d="M112.991 64.6587V61.2275L109 58.7505L112.991 64.6587Z" fill="#0041A1"/>
<path d="M112.991 60.4367L116.983 57.9585L112.991 56.0527V60.4367Z" fill="#0041A1"/>
<path d="M109 57.9585L112.991 60.4367V56.0527L109 57.9585Z" fill="#0041A1"/>
<ellipse cx="225.569" cy="34.4589" rx="10.5686" ry="10.4589" fill="#001C71"/>
<path d="M225.479 28.4917L226.963 30.0067L223.227 33.7318L221.743 32.2525L225.479 28.4917Z" fill="#0041A1"/>
<path d="M227.732 30.7373L229.216 32.2523L223.227 38.2232L221.743 36.7438L227.732 30.7373Z" fill="#0041A1"/>
<path d="M220.975 32.9834L222.459 34.4984L220.975 35.9778L219.491 34.4984L220.975 32.9834Z" fill="#0041A1"/>
<path d="M229.985 32.9834L231.469 34.4984L225.481 40.4693L223.997 38.9899L229.985 32.9834Z" fill="#0041A1"/>
<ellipse cx="318.569" cy="117.459" rx="10.5686" ry="10.4589" fill="#001C71"/>
<path d="M318.483 123.515C317.102 121.119 315.742 118.756 314.366 116.372C317.118 116.372 319.837 116.372 322.599 116.372C321.224 118.756 319.864 121.114 318.483 123.515ZM320.522 117.575C319.146 117.575 317.808 117.575 316.438 117.575C317.129 118.767 317.798 119.932 318.483 121.119C319.173 119.922 319.842 118.756 320.522 117.575Z" fill="#0041A1"/>
<path d="M323.97 113.987C323.77 114.332 323.587 114.64 323.419 114.958C323.333 115.12 323.231 115.179 323.042 115.179C320.128 115.174 317.215 115.163 314.302 115.185C313.832 115.19 313.525 115.093 313.352 114.64C313.271 114.418 313.125 114.224 312.99 113.987C316.665 113.987 320.296 113.987 323.97 113.987Z" fill="#0041A1"/>
<ellipse cx="399.569" cy="83.4589" rx="10.5686" ry="10.4589" fill="#001C71"/>
<path fill-rule="evenodd" clip-rule="evenodd" d="M404.562 80.5331C403.894 79.847 402.812 79.847 402.144 80.5331L400.573 82.148C399.905 82.834 399.905 83.9463 400.573 84.6324L402.144 86.2472C402.812 86.9333 403.894 86.9333 404.562 86.2472L406.133 84.6324C406.801 83.9463 406.801 82.834 406.133 82.148L404.562 80.5331ZM403.253 81.8595C403.422 81.6899 403.425 81.4119 403.259 81.2385C403.094 81.0651 402.824 81.062 402.655 81.2316L401.618 82.2742C401.006 82.8894 401.006 83.8909 401.618 84.5061L402.655 85.5487C402.824 85.7183 403.094 85.7152 403.259 85.5418C403.425 85.3685 403.422 85.0904 403.253 84.9208L402.216 83.8782C401.946 83.6075 401.946 83.1728 402.216 82.9021L403.253 81.8595Z" fill="#0041A1"/>
<path fill-rule="evenodd" clip-rule="evenodd" d="M396.966 80.5341C396.299 79.848 395.216 79.848 394.549 80.5341L392.977 82.1489C392.31 82.835 392.31 83.9473 392.977 84.6333L394.549 86.2482C395.216 86.9342 396.299 86.9342 396.966 86.2482L398.537 84.6333C399.205 83.9473 399.205 82.835 398.537 82.1489L396.966 80.5341ZM395.886 81.8605C395.717 81.6909 395.714 81.4128 395.879 81.2394C396.044 81.0661 396.315 81.063 396.484 81.2326L397.521 82.2752C398.133 82.8904 398.133 83.8919 397.521 84.5071L396.484 85.5497C396.315 85.7193 396.044 85.7162 395.879 85.5428C395.714 85.3694 395.717 85.0914 395.886 84.9218L396.923 83.8792C397.192 83.6085 397.192 83.1738 396.923 82.9031L395.886 81.8605Z" fill="#0041A1"/>
</svg>
