<svg width="1024" height="255" viewBox="0 0 1024 255" fill="none" xmlns="http://www.w3.org/2000/svg">
<path d="M0 254.504V87.9495H32.1212V175.192H44.4145V159.33H76.6678V235.601H84.9955V151.399H120.686V217.095H132.979V62.0411H150.692V36.0005H168.801V61.5124H173.164V191.98H177.526V143.468H217.578V222.383H227.756V212.733H270.981V151.928H311.959V211.411H330.068V203.083H350.821V211.015H361.793V248.82H370.12V193.302H408.851V123.64H431.323V110.025H439.65V100.375H451.547V122.45H456.438V211.411H468.731V201.762H480.231V92.8404H515.525V97.2026H518.169V231.107H551.215V174.267L560.468 165.014H587.831L597.745 174.928V229.785H603.693V132.893H623.521V121.921H642.027V131.174H646.918V228.992H653.924V159.859H691.861V211.411H702.039V135.14H717.902V142.146H736.408V210.882H742.62V113.99H765.092V100.772H786.242V113.065H790.604V225.819H796.817V174.796H836.076V190.658H841.363V141.749H878.772V242.21H884.456V161.974H927.681V215.245H934.686V153.646H949.623V141.749H968.923V151.928H974.21V211.808H978.176V254.504C978.176 254.504 0 255.033 0 254.504Z" fill="#001C71"/>
<path d="M1920 254.503V87.9491H1887.88V175.192H1875.59V159.329H1843.33V235.601H1835V151.398H1799.31V217.095H1787.02V62.0406H1769.31V36H1751.2V61.5119H1746.84V191.979H1742.47V143.467H1702.42V222.382H1692.24V212.733H1649.02V151.927H1608.04V211.411H1589.93V203.083H1569.18V211.014H1558.21V248.819H1549.88V193.301H1511.15V123.639H1488.68V110.024H1480.35V100.375H1468.45V122.45H1463.56V211.411H1451.27V201.761H1439.77V92.8399H1404.48V97.2021H1401.83V231.106H1368.78V174.266L1359.53 165.013H1332.17L1322.26 174.927V229.785H1316.31V132.892H1296.48V121.921H1277.97V131.174H1273.08V228.991H1266.08V159.858H1228.14V211.411H1217.96V135.139H1202.1V142.145H1183.59V210.882H1177.38V113.99H1154.91V100.771H1133.76V113.064H1129.4V225.819H1123.18V174.795H1083.92V190.658H1078.64V141.749H1041.23V242.21H1035.54V161.973H992.319V215.244H985.314V153.645H970.377V141.749H951.077V151.927H945.79V211.807H941.824V254.503C941.824 254.503 1920 255.032 1920 254.503Z" fill="#001C71"/>
<ellipse cx="160.182" cy="16.0143" rx="16.1823" ry="16.0143" fill="#001C71"/>
<path d="M166.528 12.5287C166.327 10.4328 164.518 9.72961 162.234 9.52883L162.235 6.62163L160.466 6.62134L160.465 9.45196C160 9.45178 159.524 9.46085 159.052 9.47013L159.053 6.62072L157.284 6.62017L157.283 9.52657C156.9 9.5343 156.523 9.54138 156.156 9.54144L153.716 9.53071L153.715 11.4207C153.715 11.4207 155.022 11.3963 155.001 11.4202C155.717 11.4206 155.95 11.8369 156.018 12.196L156.017 15.5079L156.016 20.1604C155.984 20.3859 155.852 20.7457 155.351 20.7463C155.373 20.7664 154.064 20.7457 154.064 20.7457L153.712 22.859L156.015 22.8596C156.444 22.8603 156.865 22.8677 157.279 22.8703L157.279 25.8107L159.047 25.8114L159.048 22.9022C159.533 22.9124 160.003 22.9164 160.461 22.9161L160.46 25.8119L162.229 25.8122L162.231 22.8771C165.206 22.7073 167.288 21.9585 167.548 19.1646C167.757 16.9151 166.699 15.911 165.011 15.505C166.037 14.9828 166.678 14.0624 166.528 12.5287ZM164.051 18.8151C164.051 21.0124 160.289 20.7614 159.089 20.7622L159.091 16.8663C160.291 16.8671 164.051 16.5232 164.051 18.8151ZM163.229 13.3184C163.228 15.3175 160.09 15.0833 159.091 15.083L159.093 11.5498C160.092 11.5501 163.23 11.2335 163.229 13.3184Z" fill="#0041A1"/>
<ellipse cx="292.047" cy="131.429" rx="16.0471" ry="16.4292" fill="#001C71"/>
<path d="M292.045 121.113L291.912 121.567V134.732L292.045 134.866L298.156 131.253L292.045 121.113Z" fill="#0041A1"/>
<path d="M292.045 121.113L285.934 131.253L292.045 134.866V128.476V121.113Z" fill="#0041A1"/>
<path d="M292.045 136.021L291.97 136.112V140.802L292.045 141.022L298.16 132.41L292.045 136.021Z" fill="#0041A1"/>
<path d="M292.045 141.022V136.021L285.934 132.41L292.045 141.022Z" fill="#0041A1"/>
<path d="M292.045 134.868L298.157 131.256L292.045 128.478V134.868Z" fill="#0041A1"/>
<path d="M285.934 131.256L292.045 134.868V128.478L285.934 131.256Z" fill="#0041A1"/>
<ellipse cx="500.182" cy="74.0143" rx="16.1823" ry="16.0143" fill="#001C71"/>
<path d="M500.046 64.8774L502.318 67.1972L496.597 72.901L494.325 70.6358L500.046 64.8774Z" fill="#0041A1"/>
<path d="M503.495 68.3159L505.767 70.6357L496.597 79.7781L494.325 77.513L503.495 68.3159Z" fill="#0041A1"/>
<path d="M493.149 71.7549L495.421 74.0746L493.149 76.3398L490.877 74.0746L493.149 71.7549Z" fill="#0041A1"/>
<path d="M506.945 71.7549L509.217 74.0746L500.048 83.2171L497.776 80.9519L506.945 71.7549Z" fill="#0041A1"/>
<ellipse cx="774.182" cy="79.0143" rx="16.1823" ry="16.0143" fill="#001C71"/>
<path d="M774.051 88.2872C771.936 84.6193 769.854 81.001 767.748 77.3496C771.961 77.3496 776.125 77.3496 780.354 77.3496C778.248 81.001 776.166 84.6111 774.051 88.2872ZM777.174 79.1918C775.067 79.1918 773.018 79.1918 770.92 79.1918C771.977 81.0175 773.002 82.8019 774.051 84.6193C775.108 82.7854 776.133 81.001 777.174 79.1918Z" fill="#0041A1"/>
<path d="M782.453 73.6982C782.147 74.2269 781.866 74.6978 781.61 75.1852C781.478 75.4331 781.321 75.5239 781.032 75.5239C776.571 75.5157 772.11 75.4992 767.649 75.5322C766.93 75.5405 766.459 75.3918 766.195 74.6978C766.071 74.3591 765.848 74.0617 765.641 73.6982C771.267 73.6982 776.827 73.6982 782.453 73.6982Z" fill="#0041A1"/>
<ellipse cx="961.182" cy="118.014" rx="16.1823" ry="16.0143" fill="#001C71"/>
<path fill-rule="evenodd" clip-rule="evenodd" d="M968.827 113.534C967.805 112.484 966.148 112.484 965.126 113.534L962.72 116.007C961.698 117.058 961.698 118.761 962.72 119.811L965.126 122.284C966.148 123.334 967.805 123.334 968.827 122.284L971.233 119.811C972.256 118.761 972.256 117.058 971.233 116.007L968.827 113.534ZM966.823 115.565C967.081 115.306 967.086 114.88 966.833 114.614C966.581 114.349 966.166 114.344 965.908 114.604L964.32 116.2C963.383 117.142 963.383 118.676 964.32 119.618L965.908 121.214C966.166 121.474 966.581 121.469 966.833 121.204C967.086 120.938 967.081 120.512 966.823 120.253L965.235 118.656C964.823 118.242 964.823 117.576 965.235 117.162L966.823 115.565Z" fill="#0041A1"/>
<path fill-rule="evenodd" clip-rule="evenodd" d="M957.197 113.534C956.175 112.484 954.518 112.484 953.495 113.534L951.089 116.007C950.067 117.058 950.067 118.761 951.089 119.811L953.495 122.284C954.518 123.334 956.175 123.334 957.197 122.284L959.603 119.811C960.625 118.761 960.625 117.058 959.603 116.007L957.197 113.534ZM955.543 115.565C955.285 115.306 955.28 114.88 955.533 114.614C955.786 114.349 956.2 114.344 956.458 114.604L958.046 116.2C958.983 117.142 958.983 118.676 958.046 119.618L956.458 121.214C956.2 121.474 955.786 121.469 955.533 121.204C955.28 120.938 955.285 120.512 955.543 120.253L957.131 118.656C957.543 118.242 957.543 117.576 957.131 117.162L955.543 115.565Z" fill="#0041A1"/>
</svg>
