<svg width="1920" height="272" viewBox="0 0 1920 272" fill="none" xmlns="http://www.w3.org/2000/svg">
<path d="M0 271.755V105.201H32.1212V192.444H44.4145V176.582H76.6678V252.853H84.9955V168.65H120.686V234.347H132.979V79.2928H150.692V53.2522H168.801V78.7641H173.164V209.232H177.526V160.719H217.578V239.634H227.756V229.985H270.981V169.179H311.959V228.663H330.068V220.335H350.821V228.266H361.793V266.072H370.12V210.553H408.851V140.891H431.323V127.276H439.65V117.627H451.547V139.702H456.438V228.663H468.731V219.013H480.231V110.092H515.525V114.454H518.169V248.359H551.215V191.519L560.468 182.266H587.831L597.745 192.18V247.037H603.693V150.144H623.521V139.173H642.027V148.426H646.918V246.244H653.924V177.11H691.861V228.663H702.039V152.392H717.902V159.397H736.408V228.134H742.62V131.242H765.092V118.023H786.242V130.317H790.604V243.071H796.817V192.047H836.076V207.91H841.363V159.001H878.772V259.462H884.456V179.225H927.681V232.496H934.686V170.898H949.623V159.001H968.923V169.179H974.21V229.059H978.176V271.755C978.176 271.755 0 272.284 0 271.755Z" fill="#001C71"/>
<path d="M1920 271.755V105.201H1887.88V192.443H1875.59V176.581H1843.33V252.852H1835V168.65H1799.31V234.346H1787.02V79.2923H1769.31V53.2517H1751.2V78.7636H1746.84V209.231H1742.47V160.719H1702.42V239.634H1692.24V229.984H1649.02V169.179H1608.04V228.662H1589.93V220.335H1569.18V228.266H1558.21V266.071H1549.88V210.553H1511.15V140.891H1488.68V127.276H1480.35V117.626H1468.45V139.701H1463.56V228.662H1451.27V219.013H1439.77V110.092H1404.48V114.454H1401.83V248.358H1368.78V191.518L1359.53 182.265H1332.17L1322.26 192.179V247.036H1316.31V150.144H1296.48V139.173H1277.97V148.426H1273.08V246.243H1266.08V177.11H1228.14V228.662H1217.96V152.391H1202.1V159.397H1183.59V228.134H1177.38V131.241H1154.91V118.023H1133.76V130.316H1129.4V243.071H1123.18V192.047H1083.92V207.909H1078.64V159H1041.23V259.462H1035.54V179.225H992.319V232.496H985.314V170.897H970.377V159H951.077V169.179H945.79V229.059H941.824V271.755C941.824 271.755 1920 272.284 1920 271.755Z" fill="#001C71"/>
<ellipse cx="1760.18" cy="20.9571" rx="21.177" ry="20.9571" fill="#001C71"/>
<path fill-rule="evenodd" clip-rule="evenodd" d="M1770.18 15.0942C1768.84 13.7196 1766.68 13.7196 1765.34 15.0942L1762.19 18.33C1760.85 19.7047 1760.85 21.9335 1762.19 23.3082L1765.34 26.544C1766.68 27.9187 1768.84 27.9187 1770.18 26.544L1773.33 23.3082C1774.67 21.9335 1774.67 19.7047 1773.33 18.33L1770.18 15.0942ZM1767.56 17.7521C1767.9 17.4123 1767.9 16.8551 1767.57 16.5077C1767.24 16.1602 1766.7 16.1541 1766.36 16.494L1764.28 18.5831C1763.06 19.8157 1763.06 21.8225 1764.28 23.0552L1766.36 25.1443C1766.7 25.4842 1767.24 25.478 1767.57 25.1306C1767.9 24.7832 1767.9 24.226 1767.56 23.8861L1765.48 21.7971C1764.94 21.2547 1764.94 20.3836 1765.48 19.8412L1767.56 17.7521Z" fill="#0041A1"/>
<path fill-rule="evenodd" clip-rule="evenodd" d="M1754.96 15.0942C1753.62 13.7196 1751.46 13.7196 1750.12 15.0942L1746.97 18.33C1745.63 19.7047 1745.63 21.9335 1746.97 23.3082L1750.12 26.544C1751.46 27.9187 1753.62 27.9187 1754.96 26.544L1758.11 23.3082C1759.45 21.9335 1759.45 19.7047 1758.11 18.33L1754.96 15.0942ZM1752.8 17.7521C1752.46 17.4123 1752.45 16.8551 1752.78 16.5077C1753.11 16.1602 1753.66 16.1541 1753.99 16.494L1756.07 18.5831C1757.3 19.8157 1757.3 21.8225 1756.07 23.0552L1753.99 25.1443C1753.66 25.4842 1753.11 25.478 1752.78 25.1306C1752.45 24.7832 1752.46 24.226 1752.8 23.8861L1754.88 21.7971C1755.41 21.2547 1755.41 20.3836 1754.88 19.8412L1752.8 17.7521Z" fill="#0041A1"/>
<ellipse cx="1421.18" cy="78.9571" rx="21.177" ry="20.9571" fill="#001C71"/>
<path d="M1421.01 91.0921C1418.24 86.2921 1415.51 81.5569 1412.76 76.7786C1418.27 76.7786 1423.72 76.7786 1429.25 76.7786C1426.5 81.5569 1423.77 86.2813 1421.01 91.0921ZM1425.09 79.1894C1422.33 79.1894 1419.65 79.1894 1416.91 79.1894C1418.29 81.5786 1419.63 83.9137 1421.01 86.2921C1422.39 83.8921 1423.73 81.5569 1425.09 79.1894Z" fill="#0041A1"/>
<path d="M1432 72C1431.6 72.6919 1431.23 73.3081 1430.9 73.9459C1430.72 74.2703 1430.52 74.3892 1430.14 74.3892C1424.3 74.3784 1418.46 74.3568 1412.63 74.4C1411.69 74.4108 1411.07 74.2162 1410.72 73.3081C1410.56 72.8649 1410.27 72.4757 1410 72C1417.36 72 1424.64 72 1432 72Z" fill="#0041A1"/>
<ellipse cx="776.177" cy="85.9571" rx="21.177" ry="20.9571" fill="#001C71"/>
<path d="M775.998 74L778.971 77.0357L771.485 84.5L768.512 81.5357L775.998 74Z" fill="#0041A1"/>
<path d="M780.512 78.5L783.485 81.5357L771.485 93.5L768.512 90.5357L780.512 78.5Z" fill="#0041A1"/>
<path d="M766.973 83L769.946 86.0357L766.973 89L764 86.0357L766.973 83Z" fill="#0041A1"/>
<path d="M785.027 83L788 86.0357L776.001 98L773.028 95.0357L785.027 83Z" fill="#0041A1"/>
<ellipse cx="160.177" cy="20.9571" rx="21.177" ry="20.9571" fill="#001C71"/>
<path d="M168.482 16.3955C168.219 13.6526 165.851 12.7325 162.862 12.4697L162.863 8.6652L160.548 8.66482L160.547 12.3691C159.938 12.3689 159.316 12.3807 158.697 12.3929L158.699 8.66401L156.384 8.66329L156.382 12.4667C155.881 12.4769 155.389 12.4861 154.909 12.4862L151.714 12.4722L151.714 14.9456C151.714 14.9456 153.424 14.9136 153.396 14.9449C154.334 14.9454 154.639 15.4902 154.728 15.9601L154.727 20.2942L154.724 26.3827C154.683 26.6778 154.51 27.1486 153.854 27.1495C153.884 27.1757 152.171 27.1486 152.171 27.1486L151.71 29.9142L154.723 29.915C155.284 29.9159 155.836 29.9256 156.378 29.929L156.378 33.7769L158.691 33.7779L158.692 29.9707C159.327 29.9841 159.942 29.9893 160.542 29.989L160.54 33.7785L162.856 33.7789L162.858 29.9378C166.751 29.7157 169.476 28.7358 169.816 25.0796C170.09 22.1357 168.705 20.8217 166.496 20.2903C167.839 19.607 168.678 18.4026 168.482 16.3955ZM165.239 24.6222C165.24 27.4977 160.316 27.1692 158.747 27.1702L158.749 22.0719C160.319 22.0729 165.24 21.6229 165.239 24.6222ZM164.164 17.4289C164.163 20.045 160.057 19.7385 158.749 19.7382L158.751 15.1145C160.058 15.1148 164.165 14.7005 164.164 17.4289Z" fill="#0041A1"/>
<ellipse cx="446" cy="86.5" rx="21" ry="21.5" fill="#001C71"/>
<path d="M445.998 73L445.823 73.5938V90.8227L445.998 90.9971L453.995 86.2698L445.998 73Z" fill="#0041A1"/>
<path d="M445.997 73L438 86.2698L445.997 90.9971V82.6346V73Z" fill="#0041A1"/>
<path d="M445.998 92.5088L445.899 92.6289V98.7661L445.998 99.0537L454 87.7839L445.998 92.5088Z" fill="#0041A1"/>
<path d="M445.997 99.0537V92.5088L438 87.7839L445.997 99.0537Z" fill="#0041A1"/>
<path d="M445.998 91.0001L453.995 86.2728L445.998 82.6377V91.0001Z" fill="#0041A1"/>
<path d="M438 86.2728L445.997 91.0001V82.6377L438 86.2728Z" fill="#0041A1"/>
</svg>
