<svg width="46" height="47" viewBox="0 0 46 47" fill="none" xmlns="http://www.w3.org/2000/svg">
<path d="M16.8327 24.9249L11.9927 23.0336L30.6117 15.4619L18.497 27.376C18.2995 27.5704 18.1778 27.8284 18.1497 28.1026L17.5359 25.7251C17.4412 25.3583 17.1795 25.0604 16.8327 24.9249Z" fill="#0041A1"/>
<path fill-rule="evenodd" clip-rule="evenodd" d="M23 47C35.7025 47 46 36.4787 46 23.5C46 10.5213 35.7025 0 23 0C10.2975 0 0 10.5213 0 23.5C0 36.4787 10.2975 47 23 47ZM30.4722 37.3972C30.6661 37.5315 30.8921 37.6004 31.1197 37.6004C31.2691 37.6004 31.4193 37.5707 31.5616 37.5103C31.9201 37.3584 32.1797 37.0321 32.2524 36.6424L36.7765 12.3819C36.7854 12.3375 36.7917 12.2927 36.7954 12.2477C36.8008 12.1847 36.8011 12.1217 36.7968 12.0595C36.7791 11.812 36.6853 11.569 36.5147 11.3697C36.4954 11.347 36.4751 11.3251 36.4538 11.3037C36.2477 11.0972 35.9837 10.9854 35.715 10.969C35.6687 10.9663 35.6221 10.9663 35.5756 10.9692C35.4459 10.9773 35.3172 11.0078 35.1955 11.0606L8.3933 21.9605C7.9517 22.1401 7.66324 22.5781 7.66647 23.0636C7.6697 23.5492 7.964 23.9831 8.40775 24.1566L15.4566 26.9113L17.4293 34.5522C17.5262 34.9273 17.7976 35.2298 18.1549 35.3608C18.5127 35.4916 18.9099 35.4345 19.218 35.2081L23.1469 32.3188L30.4722 37.3972Z" fill="#0041A1"/>
</svg>
