<svg width="47" height="47" viewBox="0 0 47 47" fill="none" xmlns="http://www.w3.org/2000/svg">
<path fill-rule="evenodd" clip-rule="evenodd" d="M23.2825 46.5649C36.141 46.5649 46.5649 36.141 46.5649 23.2825C46.5649 10.4239 36.141 0 23.2825 0C10.4239 0 0 10.4239 0 23.2825C0 36.141 10.4239 46.5649 23.2825 46.5649ZM36.9675 16.346H38.5826V13.3047H27.3577L23.7843 25.4685H23.6891L20.1505 13.3047H9.3132V16.346H10.473C10.9284 16.346 11.4035 16.789 11.4035 17.1662V30.8625C11.4035 31.2407 10.9283 31.5506 10.473 31.5506H9.3132V34.5915H17.6755V31.5506H15.5853V17.3592H15.9614L20.9284 34.5915H24.8244L29.8565 17.3592H30.2204V31.5507H28.1292V34.5916H38.5826V31.5507H36.9675C36.547 31.5507 35.4466 31.2407 35.4466 30.8626V17.1662C35.4466 16.789 36.547 16.346 36.9675 16.346Z" fill="#0041A1"/>
</svg>
