<svg width="47" height="47" viewBox="0 0 47 47" fill="none" xmlns="http://www.w3.org/2000/svg">
<path d="M27.998 23.5C27.998 25.9844 25.9843 27.998 23.5 27.998C21.0157 27.998 19.002 25.9844 19.002 23.5C19.002 21.0156 21.0157 19.002 23.5 19.002C25.9843 19.002 27.998 21.0156 27.998 23.5Z" fill="#0041A1"/>
<path fill-rule="evenodd" clip-rule="evenodd" d="M34.0193 15.5417C33.8031 14.9557 33.4581 14.4255 33.0099 13.99C32.5746 13.5419 32.0446 13.1969 31.4583 12.9807C30.9829 12.7961 30.2686 12.5762 28.953 12.5164C27.5297 12.4513 27.103 12.4374 23.5 12.4374C21.5226 12.4374 20.5018 12.4414 19.7481 12.4558C19.1283 12.4678 18.6891 12.4865 18.047 12.5159C16.7313 12.5762 16.0167 12.7961 15.5416 12.9807C14.9553 13.1969 14.4249 13.5419 13.9901 13.99C13.5418 14.4255 13.1969 14.9554 12.9803 15.5417C12.7955 16.0172 12.5758 16.7318 12.5159 18.0474C12.451 19.4703 12.437 19.897 12.437 23.5003C12.437 27.1033 12.451 27.53 12.5159 28.9534C12.5758 30.269 12.7955 30.9833 12.9803 31.4588C13.1969 32.0451 13.5414 32.5751 13.9897 33.0103C14.4249 33.4586 14.955 33.8034 15.5413 34.0198C16.0167 34.2047 16.7313 34.4246 18.047 34.4844C19.4699 34.5493 19.8962 34.5629 23.4996 34.5629C27.1033 34.5629 27.5301 34.5493 28.9526 34.4844C30.2682 34.4246 30.9829 34.2047 31.4583 34.0198C32.6353 33.5656 33.5654 32.6357 34.0193 31.4588C34.2039 30.9833 34.4238 30.269 34.484 28.9534C34.549 27.53 34.5626 27.1033 34.5626 23.5003C34.5626 19.897 34.549 19.4703 34.484 18.0474C34.4241 16.7318 34.2043 16.0172 34.0193 15.5417ZM23.5 30.4293C19.6728 30.4293 16.5704 27.3272 16.5704 23.5C16.5704 19.6728 19.6728 16.5707 23.5 16.5707C27.3268 16.5707 30.4292 19.6728 30.4292 23.5C30.4292 27.3272 27.3268 30.4293 23.5 30.4293ZM30.7031 17.9161C29.8089 17.9161 29.0839 17.1911 29.0839 16.2969C29.0839 15.4024 29.8089 14.6774 30.7031 14.6774C31.5975 14.6774 32.3225 15.4024 32.3225 16.2969C32.3221 17.1911 31.5975 17.9161 30.7031 17.9161Z" fill="#0041A1"/>
<path fill-rule="evenodd" clip-rule="evenodd" d="M0 23.5C0 10.5233 10.5233 0 23.5 0C36.4767 0 47 10.5233 47 23.5C47 36.4767 36.4767 47 23.5 47C10.5233 47 0 36.4767 0 23.5ZM36.2856 32.3389C36.6191 31.4807 36.8475 30.4998 36.9128 29.0633C36.9787 27.6245 36.9941 27.1647 36.9941 23.5C36.9941 19.8353 36.9787 19.3755 36.9132 17.9367C36.8475 16.5002 36.6195 15.5193 36.2856 14.6611C35.947 13.7605 35.4157 12.9452 34.7294 12.2709C34.0552 11.5843 33.2394 11.053 32.3391 10.7141C31.4806 10.3811 30.4999 10.1529 29.0635 10.0875C27.6245 10.0216 27.1647 10.0059 23.5 10.0059C19.8353 10.0059 19.3755 10.0216 17.9365 10.0872C16.5001 10.1529 15.5194 10.3811 14.6609 10.7143C13.7606 11.0533 12.9448 11.5843 12.271 12.2709C11.5843 12.9447 11.0529 13.7605 10.7141 14.6611C10.3805 15.5193 10.1525 16.5002 10.0872 17.9367C10.0213 19.3755 10.0059 19.8353 10.0059 23.5C10.0059 27.1647 10.0213 27.6245 10.0877 29.0639C10.1529 30.4998 10.3813 31.481 10.7148 32.3389C11.0537 33.2395 11.5847 34.0553 12.271 34.7291C12.9451 35.4157 13.7606 35.9467 14.6613 36.2856C15.5194 36.6189 16.5005 36.8471 17.9365 36.9128C19.3759 36.9784 19.8353 36.9941 23.5004 36.9941C27.1651 36.9941 27.6247 36.9784 29.0637 36.9128C30.4999 36.8471 31.481 36.6189 32.3391 36.2856C34.1516 35.5846 35.5845 34.1516 36.2856 32.3389Z" fill="#0041A1"/>
</svg>
