<svg width="47" height="47" viewBox="0 0 47 47" fill="none" xmlns="http://www.w3.org/2000/svg">
<path d="M23.5 0C10.5213 0 0 10.5213 0 23.5C0 36.4787 10.5213 47 23.5 47C36.4787 47 47 36.4787 47 23.5C47 10.5213 36.4787 0 23.5 0ZM36.0177 31.4771H33.0357C32.7127 31.4775 32.3938 31.4051 32.1027 31.2652C31.8116 31.1254 31.5557 30.9217 31.3541 30.6693C30.4599 29.5466 28.6981 27.5558 26.8483 26.7007C26.7412 26.6505 26.6231 26.6282 26.505 26.6357C26.387 26.6433 26.2727 26.6805 26.1729 26.7439C26.073 26.8073 25.9907 26.8948 25.9336 26.9984C25.8765 27.102 25.8465 27.2184 25.8462 27.3367V30.2859C25.8463 30.4423 25.8155 30.5972 25.7557 30.7418C25.6958 30.8863 25.6081 31.0176 25.4975 31.1282C25.3869 31.2388 25.2556 31.3266 25.1111 31.3865C24.9666 31.4463 24.8117 31.4771 24.6553 31.4771H23.2764C21.4832 31.4771 17.6217 30.3856 14.5448 25.9033C11.923 22.0846 10.7544 19.1251 10.0729 16.7255C10.0333 16.5848 10.0268 16.4369 10.0539 16.2934C10.0811 16.1498 10.1411 16.0145 10.2294 15.898C10.3176 15.7816 10.4317 15.6872 10.5625 15.6222C10.6934 15.5572 10.8376 15.5235 10.9837 15.5236H14.0003C14.3013 15.5233 14.5943 15.6202 14.8357 15.7999C15.0772 15.9795 15.2543 16.2323 15.3405 16.5206C15.9015 18.3968 17.3545 22.4442 19.9228 24.4597C20.0011 24.5215 20.0952 24.5599 20.1943 24.5707C20.2934 24.5814 20.3936 24.5641 20.4833 24.5206C20.5731 24.4771 20.6488 24.4093 20.7018 24.3248C20.7547 24.2404 20.7829 24.1427 20.783 24.043V19.3186C20.783 18.3849 20.3784 17.4508 19.7468 16.7207C19.6558 16.616 19.5968 16.4873 19.5769 16.35C19.557 16.2127 19.577 16.0726 19.6346 15.9464C19.6921 15.8201 19.7847 15.7131 19.9014 15.6381C20.0181 15.563 20.1539 15.5231 20.2926 15.5231H24.9436C25.1831 15.5231 25.4128 15.6183 25.5822 15.7876C25.7515 15.9569 25.8467 16.1866 25.8467 16.4261V22.79C25.8467 22.8821 25.8721 22.9724 25.92 23.0511C25.9679 23.1297 26.0366 23.1937 26.1185 23.2359C26.2003 23.2782 26.2923 23.2971 26.3841 23.2906C26.476 23.2841 26.5644 23.2524 26.6395 23.199C27.4932 22.5913 28.2243 21.6935 28.8968 20.6844C29.7432 19.415 30.776 17.3167 31.2941 16.2278C31.3944 16.0168 31.5525 15.8386 31.7499 15.7138C31.9474 15.5891 32.1762 15.5228 32.4098 15.5229H35.6998C35.8372 15.5228 35.9723 15.5578 36.0924 15.6246C36.2124 15.6914 36.3134 15.7877 36.3858 15.9045C36.4582 16.0213 36.4995 16.1546 36.506 16.2918C36.5124 16.4291 36.4837 16.5657 36.4225 16.6887C35.5923 18.3539 33.9753 21.4087 32.4537 23.2009C32.2359 23.4587 32.1292 23.7923 32.1572 24.1286C32.1851 24.4649 32.3453 24.7764 32.6027 24.9946C33.5945 25.8421 35.143 27.4089 36.8124 30.0186C36.9045 30.1614 36.9564 30.3264 36.9627 30.4963C36.9689 30.6661 36.9293 30.8345 36.848 30.9838C36.7667 31.133 36.6467 31.2576 36.5006 31.3444C36.3545 31.4312 36.1877 31.4771 36.0177 31.4771Z" fill="#0041A1"/>
</svg>
