<svg width="47" height="47" viewBox="0 0 47 47" fill="none" xmlns="http://www.w3.org/2000/svg">
<path d="M23.5 0C10.5422 0 0 10.5422 0 23.5C0 36.4569 10.5422 47 23.5 47C36.4569 47 47 36.4569 47 23.5C47 10.5422 36.4588 0 23.5 0ZM33.9835 18.1215C33.9939 18.3543 33.9996 18.5891 33.9996 18.8239C33.9996 25.9715 28.5605 34.2106 18.609 34.2106C15.5543 34.2106 12.7108 33.318 10.3178 31.7826C10.7409 31.8328 11.1716 31.8584 11.608 31.8584C14.143 31.8584 16.4744 30.9932 18.3259 29.543C15.9595 29.4995 13.9612 27.9357 13.2731 25.786C13.6025 25.8485 13.9423 25.8835 14.2897 25.8835C14.7829 25.8835 15.2618 25.8191 15.7153 25.6951C13.2409 25.1991 11.377 23.0135 11.377 20.3914C11.377 20.3687 11.377 20.345 11.378 20.3232C12.1069 20.7274 12.9408 20.9717 13.8268 20.9991C12.3766 20.0308 11.4215 18.3742 11.4215 16.4981C11.4215 15.5061 11.6875 14.5765 12.1532 13.7776C14.8198 17.0509 18.8068 19.2034 23.3012 19.4306C23.2084 19.034 23.1621 18.6222 23.1621 18.1972C23.1621 15.2107 25.5834 12.7884 28.5699 12.7884C30.1261 12.7884 31.5299 13.4453 32.5181 14.4961C33.7515 14.2537 34.9064 13.805 35.9543 13.1831C35.5472 14.4468 34.6925 15.5061 33.5726 16.1762C34.6678 16.0456 35.7129 15.756 36.6793 15.3253C35.958 16.4082 35.0408 17.3614 33.9835 18.1215Z" fill="#0041A1"/>
</svg>
