<svg width="67" height="67" viewBox="0 0 67 67" fill="none" xmlns="http://www.w3.org/2000/svg">
<path fill-rule="evenodd" clip-rule="evenodd" d="M30.257 0.080145C22.1937 0.907213 14.9634 4.43637 9.29437 10.3123C4.27213 15.5179 1.23137 21.8598 0.164507 29.3543C-0.0548139 30.895 -0.0548139 36.0665 0.164376 37.6079C1.08843 44.103 3.62137 49.9643 7.56731 54.7385C10.6334 58.448 14.3494 61.3947 18.5965 63.4846C21.182 64.7567 22.7424 65.3381 25.2783 65.9742C27.8493 66.619 29.771 66.8897 32.4187 66.9797C37.9359 67.1673 43.1056 66.057 48.0751 63.6169C51.605 61.8839 53.9283 60.2653 56.6367 57.6525C59.5735 54.8193 61.6698 51.9785 63.4521 48.4163C70.9372 33.4563 66.2641 15.4439 52.3987 5.81159C48.3288 2.98412 43.284 1.02198 38.1179 0.25714C36.5157 0.0198802 31.8653 -0.0847971 30.257 0.080145ZM21.1609 19.98C25.1478 21.2208 26.3673 26.2648 23.398 29.2323C20.6338 31.9948 16.0667 31.1236 14.3748 27.511C14.0462 26.8093 14.0109 26.5947 14.0109 25.293C14.0109 23.9912 14.0462 23.7766 14.3748 23.075C15.6108 20.4359 18.4562 19.1382 21.1609 19.98ZM49.0823 19.9839C50.6552 20.4697 51.7659 21.4461 52.5132 23.0003C52.8956 23.7955 52.9227 23.9475 52.9227 25.2957C52.9227 26.657 52.8988 26.7882 52.5024 27.5884C51.946 28.7125 51.3948 29.3545 50.4773 29.9476C47.6121 31.7993 43.9031 30.7159 42.3918 27.5856C41.9488 26.6682 41.9174 26.5205 41.9174 25.3585C41.9174 24.4532 41.9853 23.9353 42.1662 23.4588C43.2555 20.5911 46.2221 19.1005 49.0823 19.9839ZM43.6557 45.6059C45.6559 46.4416 45.9072 49.1726 44.1006 50.4412L43.5327 50.84L33.7504 50.8793C27.0421 50.9061 23.8157 50.8742 23.4828 50.7775C21.5567 50.2179 20.9763 47.5028 22.4825 46.0979C23.2359 45.3951 22.9397 45.4137 33.4383 45.4082C41.934 45.4037 43.2321 45.4289 43.6557 45.6059Z" fill="#0041A1"/>
</svg>
