<svg width="74" height="67" viewBox="0 0 74 67" fill="none" xmlns="http://www.w3.org/2000/svg">
<path fill-rule="evenodd" clip-rule="evenodd" d="M43.9819 66.8888C42.9386 66.6687 41.5711 65.9256 40.8268 65.1742C40.4713 64.8154 37.4597 60.6937 34.1344 56.015C30.809 51.3363 27.4485 46.6992 26.6664 45.7105C25.8842 44.7217 23.8602 42.4976 22.1685 40.768C20.4767 39.0384 19.004 37.4515 18.8956 37.2417C18.7537 36.9665 18.6987 32.8633 18.6987 22.5487V8.23734L19.1991 7.55598C19.7837 6.76018 23.5122 3.08223 24.5257 2.30163C25.3852 1.63984 26.9973 0.81626 28.2655 0.391021C29.151 0.0941913 30.1459 0.0662345 41.6589 0.0139968C50.3303 -0.0253126 54.4485 0.0171456 55.261 0.154641C57.0421 0.455838 58.7195 1.34947 60.0926 2.72879C60.7363 3.37556 61.4227 4.21905 61.6177 4.60341C61.8128 4.98777 64.5314 11.0807 67.659 18.1433C71.1664 26.0628 73.4789 31.5057 73.6929 32.3448C73.9899 33.5089 74.0317 34.1515 73.9825 36.7999C73.9256 39.8637 73.9195 39.9062 73.3697 41.0722C72.7379 42.4118 71.4836 43.773 70.34 44.3602C68.6962 45.2042 68.4812 45.2189 57.6181 45.221C51.9977 45.2222 47.399 45.2594 47.399 45.304C47.399 45.3483 48.4197 47.9567 49.6674 51.1004C52.2852 57.6965 52.4819 58.4887 52.0413 60.6587C51.5839 62.9121 50.4699 64.7382 48.885 65.8334C47.4856 66.8006 45.5445 67.2183 43.9819 66.8888ZM4.48525 39.9133C2.73871 39.3408 1.38683 38.1706 0.484427 36.4503L0 35.5268V21.4628V7.39874L0.507908 6.39137C1.1127 5.192 2.54963 3.77145 3.69608 3.23964C4.38071 2.92202 4.83574 2.85633 6.34886 2.85633C8.02287 2.85633 8.25908 2.89895 9.18028 3.36752C10.42 3.99804 11.6158 5.2549 12.2316 6.57447L12.6977 7.57345V21.4664V35.3594L12.1324 36.5128C11.0434 38.7348 9.08461 40.0073 6.60977 40.101C5.75902 40.1331 4.9335 40.0601 4.48525 39.9133Z" fill="#FC3C6A"/>
</svg>
