<svg width="74" height="67" viewBox="0 0 74 67" fill="none" xmlns="http://www.w3.org/2000/svg">
<path fill-rule="evenodd" clip-rule="evenodd" d="M43.9819 0.111191C42.9386 0.331324 41.5711 1.07436 40.8268 1.82578C40.4713 2.18463 37.4597 6.30634 34.1344 10.985C30.809 15.6637 27.4485 20.3008 26.6664 21.2895C25.8842 22.2783 23.8602 24.5024 22.1685 26.232C20.4767 27.9616 19.004 29.5485 18.8956 29.7583C18.7537 30.0335 18.6987 34.1367 18.6987 44.4513V58.7627L19.1991 59.444C19.7837 60.2398 23.5122 63.9178 24.5257 64.6984C25.3852 65.3602 26.9973 66.1837 28.2655 66.609C29.151 66.9058 30.1459 66.9338 41.6589 66.986C50.3303 67.0253 54.4485 66.9829 55.261 66.8454C57.0421 66.5442 58.7195 65.6505 60.0926 64.2712C60.7363 63.6244 61.4227 62.7809 61.6177 62.3966C61.8128 62.0122 64.5314 55.9193 67.659 48.8567C71.1664 40.9372 73.4789 35.4943 73.6929 34.6552C73.9899 33.4911 74.0317 32.8485 73.9825 30.2001C73.9256 27.1363 73.9195 27.0938 73.3697 25.9278C72.7379 24.5882 71.4836 23.227 70.34 22.6398C68.6962 21.7958 68.4812 21.7811 57.6181 21.779C51.9977 21.7778 47.399 21.7406 47.399 21.696C47.399 21.6517 48.4197 19.0433 49.6674 15.8996C52.2852 9.30346 52.4819 8.51134 52.0413 6.34129C51.5839 4.0879 50.4699 2.26185 48.885 1.1666C47.4856 0.199419 45.5445 -0.218308 43.9819 0.111191ZM4.48525 27.0867C2.73871 27.6592 1.38683 28.8294 0.484427 30.5497L0 31.4732V45.5372V59.6013L0.507908 60.6086C1.1127 61.808 2.54963 63.2286 3.69608 63.7604C4.38071 64.078 4.83574 64.1437 6.34886 64.1437C8.02287 64.1437 8.25908 64.101 9.18028 63.6325C10.42 63.002 11.6158 61.7451 12.2316 60.4255L12.6977 59.4266V45.5336V31.6406L12.1324 30.4872C11.0434 28.2652 9.08461 26.9927 6.60977 26.899C5.75902 26.8669 4.9335 26.9399 4.48525 27.0867Z" fill="#28DFA8"/>
</svg>
