<svg width="139" height="139" viewBox="0 0 139 139" fill="none" xmlns="http://www.w3.org/2000/svg">
<path d="M107.375 29.5668C103.63 27.5313 99.4525 31.4569 97.0036 33.7832C91.3858 39.3081 86.632 45.7053 81.3018 51.521C75.3957 57.9182 69.9216 64.3155 63.8714 70.5676C60.4141 74.057 56.6688 77.8372 54.3639 82.1989C49.178 77.11 44.7124 71.5851 38.9502 67.0782C34.7727 63.8795 27.8582 61.5533 28.0022 69.259C28.2903 79.2913 37.0776 90.0503 43.5599 96.8835C46.2969 99.7914 49.8983 102.845 54.0758 102.99C59.1177 103.281 64.3036 97.1743 67.3287 93.8303C72.6589 88.0146 76.9805 81.4717 81.878 75.5109C88.2164 67.6597 94.6988 59.9537 100.893 51.9572C104.782 47.0138 117.027 34.8007 107.375 29.5668ZM34.3403 68.6775C34.1963 68.6775 34.0522 68.6775 33.7641 68.8226C33.1879 68.6775 32.7557 68.5319 32.1795 68.2411C32.6117 67.9503 33.3319 68.0957 34.3403 68.6775Z" fill="#43E3B3"/>
<circle cx="69.5" cy="69.5" r="69" stroke="#43E3B3" stroke-dasharray="5 5"/>
</svg>
