<svg width="42" height="42" viewBox="0 0 42 42" fill="none" xmlns="http://www.w3.org/2000/svg">
<path fill-rule="evenodd" clip-rule="evenodd" d="M35.7907 25C35.0757 25.452 34.2337 25.508 33.5937 25.147C32.7807 24.688 32.3337 23.613 32.3337 22.118V17.645C32.3337 15.485 31.4797 13.948 30.0517 13.533C27.6317 12.828 25.8117 15.789 25.1277 16.901L20.8597 23.821V15.363C20.8117 13.417 20.1797 12.253 18.9797 11.902C18.1857 11.67 16.9977 11.763 15.8437 13.529L6.28175 28.883C5.00162 26.4528 4.3343 23.7467 4.33775 21C4.33775 11.751 11.7497 4.227 20.8597 4.227C29.9697 4.227 37.3807 11.751 37.3807 21C37.3807 21.016 37.3848 21.03 37.3857 21.045C37.3857 21.061 37.3827 21.075 37.3837 21.091C37.4697 22.882 36.8897 24.306 35.7907 25ZM41.0517 21.001V20.954L41.0507 20.908C40.9997 9.644 31.9627 0.5 20.8587 0.5C9.72575 0.5 0.666748 9.696 0.666748 21C0.666748 32.303 9.72575 41.5 20.8597 41.5C25.9688 41.5 30.8447 39.558 34.5877 36.033C35.3317 35.333 35.3757 34.154 34.6857 33.4C34.5233 33.2209 34.3268 33.076 34.1077 32.9739C33.8886 32.8717 33.6513 32.8142 33.4098 32.8049C33.1682 32.7956 32.9272 32.8346 32.7009 32.9196C32.4745 33.0046 32.2675 33.1339 32.0917 33.3C29.0578 36.173 25.0381 37.7738 20.8597 37.773C15.9817 37.773 11.5927 35.614 8.56575 32.19L17.1887 18.344V24.727C17.1887 27.793 18.3777 28.784 19.3747 29.074C20.3727 29.364 21.8977 29.166 23.4987 26.566L28.2417 18.877C28.3937 18.629 28.5337 18.415 28.6617 18.23V22.118C28.6617 24.984 29.8097 27.276 31.8107 28.405C33.6147 29.423 35.8827 29.331 37.7307 28.165C39.9707 26.75 41.1777 24.143 41.0517 21.001Z" fill="#4A4A4A"/>
</svg>
