<svg
  width="52"
  height="47"
  viewBox="0 0 52 47"
  fill="none"
  xmlns="http://www.w3.org/2000/svg"
>
  <path
    d="M52 21.2722C52 20.5609 51.8599 19.8565 51.5877 19.1993C51.3155 18.5422 50.9165 17.945 50.4135 17.442C49.9105 16.9391 49.3134 16.5401 48.6562 16.2679C47.999 15.9956 47.2947 15.8555 46.5833 15.8555H32.9095C32.824 15.8554 32.7397 15.8349 32.6636 15.7959C32.5875 15.7569 32.5217 15.7004 32.4716 15.6311C32.4215 15.5618 32.3885 15.4816 32.3754 15.3971C32.3623 15.3126 32.3693 15.2261 32.396 15.1449C33.5922 12.1133 33.9804 8.82306 33.5227 5.59637C32.2487 1.0572 29.549 -0.253634 27.4365 0.0388662C26.399 0.215398 25.4611 0.763497 24.7981 1.58084C24.135 2.39817 23.7921 3.42888 23.8333 4.48053C23.8333 10.4302 19.2205 16.9302 15.093 19.7794C14.9485 19.8791 14.8304 20.0125 14.7489 20.168C14.6673 20.3235 14.6248 20.4965 14.625 20.672V42.59C14.6249 42.8417 14.7125 43.0855 14.8726 43.2796C15.0327 43.4737 15.2554 43.6061 15.5025 43.6539C16.276 43.8034 16.978 43.9464 17.641 44.0872C20.5565 44.7818 23.5447 45.1244 26.5417 45.1077H40.625C44.8652 45.1077 45.5 42.7244 45.5 41.316C45.5004 40.569 45.3284 39.832 44.9973 39.1624C46.1417 38.5826 47.0111 37.5748 47.4168 36.3577C47.8225 35.1407 47.7316 33.8128 47.164 32.6624C47.9669 32.2545 48.6412 31.6323 49.1124 30.8648C49.5835 30.0973 49.833 29.2144 49.8333 28.3139C49.8347 27.5022 49.6313 26.7033 49.2418 25.9912C50.0787 25.5198 50.7751 24.8343 51.2598 24.0051C51.7445 23.1759 51.9999 22.2327 52 21.2722V21.2722Z"
    fill="#0041A1"
  />
  <path
    d="M11.375 20.7304C11.375 20.1558 11.1467 19.6046 10.7404 19.1983C10.3341 18.792 9.78297 18.5637 9.20833 18.5637H2.16667C1.59203 18.5637 1.04093 18.792 0.634602 19.1983C0.228273 19.6046 0 20.1558 0 20.7304L0 44.5637C0 45.1384 0.228273 45.6895 0.634602 46.0958C1.04093 46.5021 1.59203 46.7304 2.16667 46.7304H9.20833C9.78297 46.7304 10.3341 46.5021 10.7404 46.0958C11.1467 45.6895 11.375 45.1384 11.375 44.5637V20.7304ZM8.125 40.7721C8.125 41.0934 8.0297 41.4076 7.85114 41.6749C7.67258 41.9421 7.41879 42.1504 7.12186 42.2734C6.82493 42.3963 6.4982 42.4285 6.18298 42.3658C5.86776 42.3031 5.57821 42.1484 5.35095 41.9211C5.12369 41.6938 4.96892 41.4043 4.90622 41.0891C4.84352 40.7739 4.8757 40.4471 4.9987 40.1502C5.12169 39.8533 5.32997 39.5995 5.5972 39.4209C5.86443 39.2424 6.17861 39.1471 6.5 39.1471C6.93098 39.1471 7.3443 39.3183 7.64905 39.623C7.9538 39.9277 8.125 40.3411 8.125 40.7721Z"
    fill="#0041A1"
  />
</svg>