<svg
  width="65"
  height="61"
  viewBox="0 0 65 61"
  fill="none"
  xmlns="http://www.w3.org/2000/svg"
>
  <path
    fill-rule="evenodd"
    clip-rule="evenodd"
    d="M60.7764 44.6427C60.935 39.3648 59.6581 34.0781 57.0824 29.6169C55.9473 27.6508 54.6346 25.8437 53.0648 24.2682C51.9623 23.1948 50.326 22.7914 48.9522 23.5845C48.1232 24.0632 47.5794 24.8601 47.4046 25.7334L47.2635 25.4891C46.374 23.9484 44.4054 23.4211 42.8647 24.3106C41.3242 25.2 40.7969 27.1684 41.6864 28.709L40.8813 27.3146C39.9918 25.774 38.0237 25.2467 36.483 26.1362C34.9424 27.0257 34.4148 28.994 35.3042 30.5346L30.072 21.472C29.1826 19.9315 27.2144 19.4041 25.6738 20.2936C24.1332 21.183 23.6057 23.1515 24.4951 24.6919L33.676 40.5937C34.1226 41.3672 33.8536 42.3503 33.0869 42.793C32.9543 42.8695 32.8165 42.921 32.6712 42.9584L27.8065 43.6295C27.321 43.658 26.8316 43.792 26.3786 44.0536C24.8379 44.943 24.3105 46.9113 25.2 48.4519C25.8682 49.6094 27.1547 50.1953 28.4043 50.0415C34.2768 49.7641 39.556 50.5368 44.8465 53.8399L60.7764 44.6427V44.6427Z"
    fill="white"
  />
  <circle
    cx="16.4073"
    cy="16.4075"
    r="8.20365"
    fill="white"
  />
  <circle
    cx="16.4073"
    cy="16.4073"
    r="15.4073"
    stroke="white"
    stroke-width="2"
  />
</svg>