<svg
  width="45"
  height="53"
  viewBox="0 0 45 53"
  fill="none"
  xmlns="http://www.w3.org/2000/svg"
  >
  <path
    fill-rule="evenodd"
    clip-rule="evenodd"
    d="M10.92 46.3256L22.5 52.5L34.08 46.3256C37.3813 44.5693 40.1419 41.9472 42.0658 38.7407C43.9896 35.5342 45.004 31.8643 45 28.125V3.75C44.999 2.75574 44.6036 1.80249 43.9006 1.09945C43.1975 0.396399 42.2443 0.000992768 41.25 0H3.75002C2.75576 0.000992768 1.80251 0.396399 1.09946 1.09945C0.396417 1.80249 0.00100967 2.75574 1.68994e-05 3.75V28.125C-0.00395672 31.8643 1.01041 35.5342 2.93424 38.7407C4.85808 41.9472 7.61876 44.5693 10.92 46.3256Z"
    fill="#0041A1"
  />
  <path
    d="M17.5472 28.6216L12.5539 23.427C11.4785 22.3082 9.6885 22.3082 8.6131 23.427V23.427C7.59617 24.485 7.59617 26.1572 8.6131 27.2151L17.5472 36.5095L37.236 16.0267C38.2529 14.9687 38.2529 13.2965 37.236 12.2386V12.2386C36.1606 11.1198 34.3706 11.1198 33.2952 12.2386L17.5472 28.6216Z"
    fill="white"
  />
</svg>