<svg width="19" height="18" viewBox="0 0 19 18" fill="none" xmlns="http://www.w3.org/2000/svg">
<circle cx="9.58248" cy="8.99999" r="5.2852" transform="rotate(-180 9.58248 8.99999)" fill="white"/>
<path d="M9.58252 17.835C14.4417 17.835 18.4175 13.8592 18.4175 9C18.4175 4.14077 14.4417 0.165039 9.58252 0.165038C4.72329 0.165038 0.74756 4.14077 0.747559 9C0.747559 13.8592 4.72329 17.835 9.58252 17.835ZM6.6165 7.29611L9.14077 4.77184C9.20388 4.70873 9.26699 4.64563 9.33009 4.64563C9.3932 4.58252 9.51941 4.58252 9.58252 4.58252C9.64563 4.58252 9.77184 4.58252 9.83495 4.64563C9.89805 4.70873 9.96116 4.70873 10.0243 4.77184L12.5485 7.29611C12.801 7.54854 12.801 7.92718 12.5485 8.17961C12.2961 8.43204 11.9175 8.43204 11.665 8.17961L10.2136 6.72815L10.2136 13.4175C10.2136 13.7961 9.96116 14.0485 9.58252 14.0485C9.20388 14.0485 8.95145 13.7961 8.95145 13.4175L8.95145 6.72815L7.49999 8.17961C7.24757 8.43204 6.86892 8.43204 6.6165 8.17961C6.36407 7.92718 6.36407 7.54854 6.6165 7.29611Z" fill="#001C71"/>
</svg>
