<svg width="173" height="45" viewBox="0 0 173 45" fill="none" xmlns="http://www.w3.org/2000/svg">
<path d="M58.3912 18.1686H53.6907V15.3983H66.4907V18.1686H61.7902V30.0877H58.3912V18.1686ZM69.711 20.2879C70.1025 19.7422 70.6273 19.3294 71.2846 19.0495C71.956 18.7701 72.7254 18.6299 73.5927 18.6299V21.652C73.2293 21.6239 72.9844 21.6098 72.8583 21.6098C71.9211 21.6098 71.1867 21.8756 70.655 22.4073C70.1234 22.9249 69.8575 23.7083 69.8575 24.7575V30.0877H66.5841V18.7978H69.711V20.2879ZM85.7359 18.7978V30.0877H82.6299V28.7445C82.1962 29.2339 81.6786 29.6118 81.0771 29.8776C80.4756 30.1294 79.8251 30.2555 79.1256 30.2555C77.6427 30.2555 76.4678 29.8287 75.6005 28.9754C74.7331 28.1221 74.2995 26.856 74.2995 25.1771V18.7978H77.5728V24.6945C77.5728 26.5131 78.3354 27.4226 79.86 27.4226C80.6435 27.4226 81.2731 27.1708 81.7489 26.6669C82.2243 26.1493 82.462 25.3872 82.462 24.3797V18.7978H85.7359ZM91.3078 30.2555C90.3701 30.2555 89.4538 30.1435 88.5588 29.9198C87.6633 29.6817 86.9498 29.3882 86.4181 29.0384L87.5096 26.6882C88.0131 27.0098 88.6214 27.2756 89.335 27.4852C90.0485 27.6812 90.748 27.7792 91.4335 27.7792C92.8184 27.7792 93.5111 27.4367 93.5111 26.7508C93.5111 26.4292 93.3219 26.1983 92.9445 26.0585C92.5666 25.9188 91.986 25.7995 91.2026 25.7015C90.2794 25.5618 89.5169 25.4008 88.9154 25.2193C88.3138 25.0374 87.7895 24.7154 87.3417 24.254C86.9081 23.7922 86.6912 23.1349 86.6912 22.2812C86.6912 21.5681 86.894 20.9384 87.2995 20.3927C87.7191 19.833 88.3207 19.3993 89.1041 19.0917C89.9015 18.7842 90.8388 18.6299 91.9161 18.6299C92.7136 18.6299 93.5038 18.7211 94.2872 18.903C95.0847 19.0709 95.7425 19.3086 96.2601 19.6161L95.1686 21.9455C94.1756 21.3862 93.0915 21.1063 91.9161 21.1063C91.2166 21.1063 90.6922 21.2043 90.3425 21.3998C89.9927 21.5958 89.8176 21.8475 89.8176 22.1555C89.8176 22.5053 90.0068 22.7498 90.3842 22.89C90.7621 23.0297 91.3636 23.1626 92.1887 23.2887C93.1123 23.4425 93.8676 23.6103 94.4551 23.7922C95.043 23.9601 95.5533 24.2749 95.987 24.7367C96.4206 25.198 96.6375 25.8417 96.6375 26.6669C96.6375 27.3664 96.4279 27.9892 96.0083 28.5345C95.5882 29.0802 94.9727 29.507 94.1616 29.8146C93.3641 30.1085 92.4128 30.2555 91.3078 30.2555ZM104.68 29.542C104.358 29.7797 103.959 29.9616 103.484 30.0877C103.022 30.1993 102.532 30.2555 102.015 30.2555C100.672 30.2555 99.6296 29.9126 98.8884 29.2271C98.1608 28.5417 97.797 27.5342 97.797 26.2055V21.5681H96.0555V19.0495H97.797V16.301H101.07V19.0495H103.882V21.5681H101.07V26.1633C101.07 26.6392 101.19 27.0098 101.427 27.2756C101.679 27.5274 102.029 27.6535 102.477 27.6535C102.994 27.6535 103.435 27.5133 103.798 27.2334L104.68 29.542ZM132.374 15.3983L127.569 30.0877H123.918L120.686 20.141L117.35 30.0877H113.719L108.893 15.3983H112.418L115.734 25.7229L119.196 15.3983H122.344L125.701 25.8068L129.122 15.3983H132.374ZM136.496 18.6299C138.244 18.6299 139.587 19.0495 140.525 19.8892C141.462 20.7144 141.93 21.9664 141.93 23.6452V30.0877H138.867V28.6814C138.252 29.7307 137.104 30.2555 135.425 30.2555C134.558 30.2555 133.803 30.1085 133.159 29.8146C132.529 29.5211 132.047 29.1151 131.711 28.5975C131.375 28.0799 131.208 27.4925 131.208 26.8347C131.208 25.7859 131.6 24.9603 132.383 24.3588C133.18 23.7573 134.404 23.4565 136.055 23.4565H138.657C138.657 22.743 138.44 22.1973 138.007 21.8198C137.573 21.4279 136.922 21.2319 136.055 21.2319C135.454 21.2319 134.859 21.3299 134.271 21.5259C133.698 21.7078 133.208 21.9596 132.803 22.2812L131.627 19.994C132.243 19.5603 132.977 19.2246 133.83 18.9869C134.698 18.7488 135.586 18.6299 136.496 18.6299ZM136.244 28.0518C136.804 28.0518 137.3 27.9261 137.734 27.6744C138.168 27.4085 138.475 27.0239 138.657 26.5203V25.3659H136.412C135.069 25.3659 134.397 25.8068 134.397 26.6882C134.397 27.1078 134.558 27.4435 134.88 27.6952C135.215 27.9329 135.67 28.0518 136.244 28.0518ZM143.634 14.5173H146.908V30.0877H143.634V14.5173ZM148.687 14.5173H151.961V30.0877H148.687V14.5173ZM164.798 24.4845C164.798 24.5266 164.777 24.8206 164.735 25.3659H156.195C156.349 26.0654 156.712 26.6179 157.286 27.0239C157.86 27.4294 158.573 27.6322 159.426 27.6322C160.014 27.6322 160.531 27.5483 160.979 27.3804C161.441 27.1985 161.867 26.9191 162.259 26.5412L164.001 28.4297C162.938 29.6467 161.385 30.2555 159.343 30.2555C158.069 30.2555 156.943 30.0106 155.964 29.5211C154.985 29.0171 154.229 28.3249 153.698 27.4435C153.166 26.5621 152.9 25.5618 152.9 24.4427C152.9 23.3377 153.159 22.3442 153.677 21.4628C154.208 20.5678 154.929 19.8751 155.838 19.3857C156.761 18.8817 157.789 18.6299 158.922 18.6299C160.028 18.6299 161.028 18.8681 161.923 19.3435C162.819 19.8193 163.518 20.5048 164.022 21.3998C164.539 22.2812 164.798 23.3096 164.798 24.4845ZM158.944 21.1063C158.202 21.1063 157.58 21.3159 157.076 21.7359C156.572 22.1555 156.265 22.7289 156.153 23.4565H161.714C161.602 22.743 161.294 22.1764 160.79 21.7568C160.287 21.3231 159.671 21.1063 158.944 21.1063ZM173 29.542C172.678 29.7797 172.28 29.9616 171.804 30.0877C171.342 30.1993 170.853 30.2555 170.335 30.2555C168.992 30.2555 167.95 29.9126 167.208 29.2271C166.481 28.5417 166.117 27.5342 166.117 26.2055V21.5681H164.376V19.0495H166.117V16.301H169.391V19.0495H172.203V21.5681H169.391V26.1633C169.391 26.6392 169.51 27.0098 169.747 27.2756C169.999 27.5274 170.349 27.6535 170.797 27.6535C171.314 27.6535 171.755 27.5133 172.119 27.2334L173 29.542Z" fill="#3375BB"/>
<path d="M29.7609 1H15.5381C7.50893 1 1 7.50893 1 15.5381V29.7609C1 37.7901 7.50893 44.299 15.5381 44.299H29.7609C37.7901 44.299 44.299 37.7901 44.299 29.7609V15.5381C44.299 7.50893 37.7901 1 29.7609 1Z" fill="white" stroke="#DFE5EC"/>
<path d="M2.65356 22.9619C2.65356 11.8503 11.6612 2.84277 22.7726 2.84277C33.8842 2.84277 42.8919 11.8503 42.8919 22.9619C42.8919 34.0735 33.8842 43.0812 22.7726 43.0812C11.6612 43.0812 2.65356 34.0735 2.65356 22.9619Z" fill="white"/>
<path d="M22.7846 10.9375C26.8446 14.3284 31.5006 14.1192 32.8307 14.1192C32.5399 33.403 30.3226 29.5789 22.7846 34.9862C15.2468 29.5789 13.0436 33.403 12.7527 14.1192C14.069 14.1192 18.7248 14.3284 22.7846 10.9375Z" stroke="#3375BB" stroke-width="6.06304" stroke-miterlimit="10" stroke-linecap="round" stroke-linejoin="round"/>
</svg>
