<svg width="138" height="24" viewBox="0 0 138 24" fill="none" xmlns="http://www.w3.org/2000/svg">
<path d="M27.7958 6.70035C22.7927 6.70035 18.8835 10.4054 18.8835 15.3654C18.8835 20.3254 22.6939 23.9988 27.7958 23.9988C32.8977 23.9988 36.7743 20.262 36.7743 15.3337C36.7743 10.4371 32.9639 6.70035 27.7958 6.70035ZM27.8296 20.4242C24.9805 20.4242 22.8927 18.2656 22.8927 15.3666C22.8927 12.4348 24.9467 10.2774 27.7958 10.2774C30.6786 10.2774 32.7652 12.4677 32.7652 15.3666C32.7652 18.2656 30.6786 20.4242 27.8296 20.4242ZM37.867 10.47H40.3521V23.678H44.3276V7.02233H37.867V10.47ZM8.87855 10.2761C10.9663 10.2761 12.6227 11.5323 13.2516 13.4007H17.4596C16.697 9.40658 13.3178 6.70035 8.9123 6.70035C3.90921 6.70035 0 10.4054 0 15.3666C0 20.3279 3.81045 24 8.9123 24C13.2191 24 16.6645 21.2938 17.4271 17.2667H13.2516C12.6553 19.1351 10.9988 20.4242 8.91107 20.4242C6.02822 20.4242 4.00796 18.2656 4.00796 15.3666C4.00923 12.4348 5.99696 10.2761 8.87855 10.2761ZM113.403 13.7556L110.488 13.3373C109.097 13.1446 108.103 12.6933 108.103 11.6299C108.103 10.47 109.396 9.89074 111.151 9.89074C113.072 9.89074 114.299 10.6957 114.563 12.0165H118.407C117.975 8.66629 115.325 6.70155 111.251 6.70155C107.043 6.70155 104.26 8.79559 104.26 11.7591C104.26 14.5934 106.082 16.2374 109.759 16.7521L112.674 17.1704C114.1 17.3631 114.895 17.9119 114.895 18.9424C114.895 20.2632 113.504 20.8108 111.582 20.8108C109.229 20.8108 107.904 19.8766 107.705 18.4595H103.796C104.161 21.7133 106.778 24 111.548 24C115.889 24 118.77 22.067 118.77 18.7485C118.77 15.7849 116.684 14.2385 113.403 13.7556ZM42.3399 0.160984C40.8822 0.160984 39.7886 1.19152 39.7886 2.60867C39.7886 4.02581 40.8811 5.05635 42.3399 5.05635C43.7975 5.05635 44.8915 4.02581 44.8915 2.60867C44.8915 1.19152 43.7975 0.160984 42.3399 0.160984ZM100.682 12.725C100.682 9.11753 98.4294 6.70155 93.6586 6.70155C89.153 6.70155 86.6352 8.92485 86.1377 12.3396H90.0806C90.2793 11.0189 91.3395 9.92366 93.5924 9.92366C95.614 9.92366 96.6077 10.7932 96.6077 11.8567C96.6077 13.2422 94.7849 13.5958 92.5323 13.8215C89.4843 14.1434 85.7076 15.1739 85.7076 19.04C85.7076 22.0365 87.994 23.9683 91.6385 23.9683C94.4873 23.9683 96.2763 22.8085 97.1716 20.9718C97.3042 22.6146 98.5631 23.678 100.319 23.678H102.639V20.2315H100.683V12.725H100.682ZM96.7726 16.9131C96.7726 19.1363 94.7849 20.7791 92.3658 20.7791C90.8747 20.7791 89.6158 20.1669 89.6158 18.879C89.6158 17.2362 91.637 16.785 93.4925 16.5923C95.2815 16.4313 96.2752 16.0447 96.7726 15.3032V16.9131ZM75.669 6.70035C73.4487 6.70035 71.5936 7.60283 70.2685 9.11633V0H66.293V23.678H70.202V21.4877C71.527 23.0658 73.4164 24 75.669 24C80.4394 24 84.0512 20.3279 84.0512 15.3666C84.0512 10.4054 80.3733 6.70035 75.669 6.70035ZM75.0728 20.4242C72.2236 20.4242 70.1359 18.2656 70.1359 15.3666C70.1359 12.4677 72.2563 10.2774 75.1051 10.2774C77.9881 10.2774 80.0081 12.436 80.0081 15.3666C80.0081 18.2656 77.9216 20.4242 75.0728 20.4242ZM56.7841 6.70035C54.2002 6.70035 52.51 7.73089 51.5163 9.18094V7.02233H47.5731V23.6768H51.5486V14.6252C51.5486 12.0799 53.205 10.2761 55.6567 10.2761C57.9431 10.2761 59.3669 11.8543 59.3669 14.1422V23.678H63.3424V13.8531C63.3439 9.6639 61.1248 6.70035 56.7841 6.70035ZM137.721 14.8191C137.721 10.0517 134.143 6.70155 129.339 6.70155C124.237 6.70155 120.493 10.4383 120.493 15.3666C120.493 20.5535 124.502 24 129.406 24C133.547 24 136.794 21.6157 137.621 18.2339H133.479C132.883 19.7156 131.426 20.5535 129.471 20.5535C126.919 20.5535 124.997 19.0071 124.567 16.3008H137.72V14.8191H137.721ZM124.8 13.53C125.43 11.2103 127.219 10.0835 129.273 10.0835C131.526 10.0835 133.248 11.3396 133.646 13.53H124.8Z" fill="#0052FF"/>
</svg>
