<svg viewBox="0 0 104 50" xmlns="http://www.w3.org/2000/svg">
<path fill-rule="evenodd" clip-rule="evenodd" d="M88.7314 4.01197C83.8783 -1.02775 76.0099 -1.02775 71.1569 4.01197L59.7334 15.8748C54.8804 20.9145 54.8804 29.0855 59.7334 34.1252L71.1569 45.988C76.0099 51.0278 83.8783 51.0278 88.7314 45.988L100.155 34.1252C105.008 29.0855 105.008 20.9145 100.155 15.8748L88.7314 4.01197ZM79.2155 13.756C80.4421 12.51 80.4637 10.4674 79.2639 9.19369C78.064 7.91996 76.0971 7.89747 74.8705 9.14346L67.3311 16.8023C62.8824 21.3215 62.8824 28.6786 67.3311 33.1977L74.8705 40.8566C76.0971 42.1026 78.064 42.0801 79.2639 40.8063C80.4637 39.5326 80.4421 37.49 79.2155 36.244L71.6761 28.5852C69.7188 26.5968 69.7188 23.4032 71.6761 21.4149L79.2155 13.756Z"/>
<path fill-rule="evenodd" clip-rule="evenodd" d="M33.5128 4.01197C28.6597 -1.02775 20.7913 -1.02775 15.9382 4.01197L4.5148 15.8748C-0.338268 20.9145 -0.338268 29.0855 4.5148 34.1252L15.9382 45.988C20.7913 51.0278 28.6597 51.0278 33.5128 45.988L44.9362 34.1252C49.7893 29.0855 49.7893 20.9145 44.9362 15.8748L33.5128 4.01197ZM25.6598 13.756C24.4332 12.51 24.4116 10.4674 25.6114 9.19369C26.8112 7.91996 28.7782 7.89747 30.0048 9.14346L37.5442 16.8023C41.9929 21.3215 41.9929 28.6786 37.5442 33.1977L30.0048 40.8566C28.7782 42.1026 26.8112 42.0801 25.6114 40.8063C24.4116 39.5326 24.4332 37.49 25.6598 36.244L33.1992 28.5852C35.1565 26.5968 35.1565 23.4032 33.1992 21.4149L25.6598 13.756Z"/>
</svg>
