<svg  viewBox="0 0 30 30"  xmlns="http://www.w3.org/2000/svg">
<path fill-rule="evenodd" clip-rule="evenodd" d="M15 -1.31134e-06C6.71573 -2.03558e-06 2.03557e-06 6.71573 1.31134e-06 15C5.87107e-07 23.2843 6.71573 30 15 30C23.2843 30 30 23.2843 30 15C30 6.71573 23.2843 -5.87108e-07 15 -1.31134e-06ZM11.0723 14.8121C11.0724 14.6133 11.1516 14.4226 11.2923 14.2821L16.4323 9.1521C16.5262 9.05744 16.6539 9.0042 16.7873 9.0042C16.9206 9.0042 17.0484 9.05744 17.1423 9.1521L17.8523 9.8521C17.9469 9.94598 18.0002 10.0738 18.0002 10.2071C18.0002 10.3404 17.9469 10.4682 17.8523 10.5621L13.4023 15.0021L17.8523 19.4421C17.9463 19.5343 17.9993 19.6604 17.9993 19.7921C17.9993 19.9238 17.9463 20.0499 17.8523 20.1421L17.1423 20.8521C17.0484 20.9468 16.9206 21 16.7873 21C16.6539 21 16.5261 20.9468 16.4323 20.8521L11.2923 15.7221C11.1534 15.5804 11.0746 15.3905 11.0723 15.1921L11.0723 14.8121Z" />
</svg>
