<svg width="1920" height="287" fill="none" xmlns="http://www.w3.org/2000/svg"><g filter="url(#filter0_d)"><path d="M1920 282H0V161.275a14.605 14.605 0 0013.628-9.729c.665-1.874.94-3.864.809-5.847.875-13.214 20.649-12.164 22.311-11.639-4.987 1.225 16.537-1.663 37.01-3.063 34.999-5.776 14.875 8.751 40.861-3.15 20.299-14.877 55.91-30.803 62.559 3.062 11.9 16.89 18.374 16.19 19.424 12.339 3.588 27.653 18.549 17.502 28.961 2.275 8.75 26.253 42.086 5.601 51.973 1.926 14.174 2.975 37.71-13.389 58.884 0 13.912 6.038 29.398 2.537 49.347-3.938 8.225 16.364 44.798-11.901 31.236-9.626 16.974-19.165 11.725-14.877 27.824-2.8 23.886-27.391 40.248-7.526 55.822-.876 7.35-14.264 15.224-2.187 22.486-7.438 8.75-29.315 19.512 8.751 27.386-7.788 8.75 6.213 14.525-.875 21.437-16.89 9.362-23.452 11.549 4.726 22.749-8.75 20.911-3.15 37.01-47.78 58.797-7.788 17.061 6.738 34.998 35.878 52.497-.875 17.499 9.363 34.998.787 50.572 6.125 8.75 17.502 17.499-4.288 26.249 4.9 14.874 15.84 29.223 43.755 43.747 21.965 20.737 24.24 46.898 8.751 71.047 7.876 21.174 16.889 45.847-7.701 68.159-3.413 11.112 0 19.511 29.928 29.573 8.751 8.752 1.75 17.932 7.263 26.252 6.826 9.27-1.838 17.5-7.789 26.25 11.113 8.75-15.926 21.17-3.675 27.82 11.289 5.07-35.703 3.06 28.79 6.91 14.089 2.54-11.901 6.39 24.59 8.75 5.688 9.28 7.001 10.41 27.478 24.5 8.313 17.5 6.476 33.86 12.164 49.96 3.501 17.5 5.25 32.72 3.238 51.01 4.55 18.02 11.026 36.13-12.864 54.25 0 9.36.755 18.78-.715 27.47-4.288 4.46 20.827 8.22 6.038 12.95-.7 8.75-2.363 16.01-16.451 24.76-7.876 10.76-17.501 18.72-12.688 29.4-2.537 5.34 2.8 7.96 4.113 13.3-5.251 17.5-10.851 31.85 2.625 46.46-12.426 13.82-12.514 37.53-1.4 53.81 7.351 7.61 10.151 16.18 18.814 35 8.751-4.03-8.751 10.32-23.978 23.79 8.75 28.27 36.667 33.52 2.888 45.24-12.513 13.3-3.326 54.07-19.077 55.56-3.938 30.71-2.013 48.12-17.502 66.06-16.715-17.5 0 30.01 18.64 22.92-9.363 17.5-.612 36.75-27.565 25.55-23.802 4.81-13.127 43.22-23.015 48.3-12.339 1.57 24.152 60.28-27.653 23.01-16.102 7.17-15.926 27.04-25.027 25.37-4.025 23.45 9.188 5.78 17.064 45.33-12.164 8.05 12.951 16.8 4.726 24.67 0V282z" fill="#fff"/></g><defs><filter id="filter0_d" x="-35" y="0" width="1990" height="287" filterUnits="userSpaceOnUse" color-interpolation-filters="sRGB"><feFlood flood-opacity="0" result="BackgroundImageFix"/><feColorMatrix in="SourceAlpha" values="0 0 0 0 0 0 0 0 0 0 0 0 0 0 0 0 0 0 127 0"/><feOffset dy="-30"/><feGaussianBlur stdDeviation="17.5"/><feColorMatrix values="0 0 0 0 0 0 0 0 0 0 0 0 0 0 0 0 0 0 0.25 0"/><feBlend in2="BackgroundImageFix" result="effect1_dropShadow"/><feBlend in="SourceGraphic" in2="effect1_dropShadow" result="shape"/></filter></defs></svg>