<svg width="1920" height="250" fill="none" xmlns="http://www.w3.org/2000/svg"><g filter="url(#filter0_d)"><path d="M0 114.702a58.26 58.26 0 0035.233-6.701c26.424-18.957 34.528 2.469 41.31 0 26.865-5.202 46.683-27.598 45.89 5.026 11.979 2.292 3.964-12.874 25.72 3.968 17.176-8.818-2.73 7.23 8.808 5.995-12.331-7.494 13.036 3.351 13.212 4.056a37.834 37.834 0 008.809-3.438 27.06 27.06 0 008.808 11.727c23.077 24.423 16.999 12.52 25.808 15.871 12.859-2.91 11.098 11.991 19.642 11.903 19.994-11.198 36.466-11.462 38.932.705 18.673 14.637 9.248-5.995 20.259 0 4.051-2.645 14.797-13.314 15.414-4.32.704-2.116 14.181-8.288 11.715 9.346 13.124 8.818 18.409 30.332 21.932.882 28.891-2.469 52.849-21.426 82.62-18.164 13.389 6.172 22.725-14.107 34.352-11.638 13.565-14.549 24.311-38.003 40.341-27.422 5.373-21.603 10.306 8.817 15.679-.618a66.018 66.018 0 0113.741-4.055c12.86 27.069 23.341 11.198 35.232-12.168 17.616-19.487 42.279-6.437 61.129-3.968 18.849 2.469 34.263 27.51 51.439 14.284a302.816 302.816 0 0081.299 27.863 48.836 48.836 0 0128.891 5.731c15.062-16.4 28.803 38.796 44.041 4.144 13.3 19.927 26.424-6.26 39.901 0 15.15 19.31 30.036-5.29 44.834 7.142 27.393 33.418 56.46 11.374 84.822 5.29 15.507 17.635 28.097-26.452 43.067-15.606 9.9 1.919 20.15.718 29.34-3.439a406.224 406.224 0 0139.02-14.108c23.43-26.452 44.65-22.131 69.93-6.965 21.58-3.527 43.25-16.224 64.92 0 15.94 14.284 30.92-3.792 46.86-4.233 16.22.882 32.48.882 48.71 0 16.29 3.439 32.5-8.817 48.71 0 16.68-.631 33.39.701 49.76 3.968 15.06 3.263 24.75-21.779 37.97 17.194 10.92 5.996 20.52 15.606 36.55 13.931 7.13 8.024 22.46-10.228 35.23-2.381 22.02-8.023 21.76-6.877 42.9-.881 21.58-4.144 25.81-20.545 36.55.881 44.57 7.054 26.43 23.366 86.14-3.879 20-39.325 19.29 3.262 67.21-8.817 47.74-3.175 0 5.025 25.19 4.144 22.46 9.963 26.43-7.671 51.18 0 18.85-7.142 3.26-11.11 26.86 4.232 11.1 4.144 27.4-.882 34.09-2.733V6.711H0v107.991z" fill="#fff"/></g><defs><filter id="filter0_d" x="-35" y="0" width="1990" height="249.711" filterUnits="userSpaceOnUse" color-interpolation-filters="sRGB"><feFlood flood-opacity="0" result="BackgroundImageFix"/><feColorMatrix in="SourceAlpha" values="0 0 0 0 0 0 0 0 0 0 0 0 0 0 0 0 0 0 127 0"/><feOffset dy="30"/><feGaussianBlur stdDeviation="17.5"/><feColorMatrix values="0 0 0 0 0 0 0 0 0 0 0 0 0 0 0 0 0 0 0.25 0"/><feBlend in2="BackgroundImageFix" result="effect1_dropShadow"/><feBlend in="SourceGraphic" in2="effect1_dropShadow" result="shape"/></filter></defs></svg>