<svg width="1920" height="287" fill="none" xmlns="http://www.w3.org/2000/svg"><g filter="url(#filter0_d)"><path d="M0 282h1920V161.275a14.597 14.597 0 01-10.57-4.678 14.733 14.733 0 01-3.06-5.051 14.713 14.713 0 01-.81-5.847c-.87-13.214-20.65-12.164-22.31-11.639 4.99 1.225-16.53-1.663-37.01-3.063-35-5.776-14.87 8.751-40.86-3.15-20.3-14.877-55.91-30.803-62.56 3.062-11.9 16.89-18.37 16.19-19.42 12.339-3.59 27.653-18.55 17.502-28.96 2.275-8.75 26.253-42.09 5.601-51.98 1.926-14.17 2.975-37.71-13.389-58.88 0-13.91 6.038-29.4 2.537-49.35-3.938-8.22 16.364-44.8-11.901-31.23-9.626-16.98-19.165-11.73-14.877-27.83-2.8-23.88-27.391-40.24-7.526-55.82-.876-7.35-14.264-15.22-2.187-22.49-7.438-8.74-29.315-19.51 8.751-27.38-7.788-8.75 6.213-14.53-.875-21.44-16.89-9.36-23.452-11.55 4.726-22.75-8.75-20.91-3.15-37.01-47.78-58.79-7.788-17.07 6.738-35 35.878-52.5-.875-17.5 9.363-35 .787-50.57 6.125-8.75 17.502-17.5-4.288-26.25 4.9-14.88 15.84-29.23 43.755-43.75 21.965-20.74 24.24-46.9 8.751-71.05 7.876-21.17 16.889-45.843-7.701-68.155-3.413-11.112 0-19.511 29.928-29.573 8.751-8.75 1.75-17.937 7.263-26.249 6.826-9.274-1.838-17.499-7.789-26.248 11.113-8.75-15.926-21.174-3.675-27.824 11.289-5.075-35.703-3.062 28.79-6.912 14.089-2.538-11.901-6.387 24.59-8.75 5.688-9.274 7.001-10.412 27.478-24.498 8.313-17.499 6.476-33.861 12.164-49.96 3.501-17.5 5.25-32.724 3.238-51.01 4.55-18.024 11.026-36.136-12.864-54.248 0a59.659 59.659 0 01-27.473-4.288c-4.462 20.827-8.225 6.038-12.949-.7-8.75-2.363-16.012-16.451-24.761-7.876-10.762-17.501-18.725-12.688-29.399-2.537-5.337 2.8-7.962 4.113-13.299-5.251-17.499-10.851-31.849 2.625-46.46-12.426-13.825-12.514-37.536-1.4-53.81 7.351-7.612 10.151-16.187 18.814-34.998 8.751 4.025-8.751-10.325-23.978-23.799 8.75-28.261 36.667-33.511 2.888-45.235-12.513-13.299-3.326-54.072-19.077-55.56-3.938-30.711-2.013-48.122-17.502-66.059-16.715 17.499 0-30.011 18.64-22.924-9.363-17.499-.612-36.748-27.565-25.548-23.802-4.813-13.127-43.223-23.015-48.298-12.339-1.575 24.152-60.284-27.653-23.011-16.102-7.175-15.926-27.036-25.027-25.374-4.025-23.448 9.188-5.775 17.064-45.323-12.164-8.05 12.951-16.798 4.726-24.673 0V282z" fill="#fff"/></g><defs><filter id="filter0_d" x="-35" y="0" width="1990" height="287" filterUnits="userSpaceOnUse" color-interpolation-filters="sRGB"><feFlood flood-opacity="0" result="BackgroundImageFix"/><feColorMatrix in="SourceAlpha" values="0 0 0 0 0 0 0 0 0 0 0 0 0 0 0 0 0 0 127 0"/><feOffset dy="-30"/><feGaussianBlur stdDeviation="17.5"/><feColorMatrix values="0 0 0 0 0 0 0 0 0 0 0 0 0 0 0 0 0 0 0.25 0"/><feBlend in2="BackgroundImageFix" result="effect1_dropShadow"/><feBlend in="SourceGraphic" in2="effect1_dropShadow" result="shape"/></filter></defs></svg>