<svg width="1920" height="340" fill="none" xmlns="http://www.w3.org/2000/svg"><path fill-rule="evenodd" clip-rule="evenodd" d="M35.233 76.71A58.26 58.26 0 000 70.01V340h1920V47.26c-.39-.108-.82-.227-1.27-.354-7.31-2.053-22.37-6.281-32.82-2.379-12.19 7.921-13.92 10.695-15.35 10.542-1.34-.143-2.39-2.855-11.51-6.31-12.08 3.745-19.21 1.46-25.96-.702-7.07-2.267-13.72-4.398-25.22.702-10.82-.378-8.18.918-5.44 2.27 3.65 1.794 7.49 3.685-19.75 1.874-22.2-5.596-33.96.542-42.18 4.831-9.53 4.97-14.29 7.458-25.03-13.648-40.88-18.654-45.27-16.89-58.28-11.658-5.99 2.41-13.81 5.554-27.86 7.779-7.06 14.088-11.31 11.822-19.53 7.44-4.28-2.283-9.63-5.14-17.02-6.559-1.66.47-3.18.91-4.6 1.319-16.64 4.8-18 5.195-38.3-2.2-6.67 4.098-14.04 1.078-20.57-1.6-5.97-2.45-11.25-4.614-14.66-.781-12.43-1.3-21 4.188-29.31 9.514-2.41 1.542-4.79 3.07-7.24 4.417-9.01 26.562-16.38 23.389-24.93 19.707-3.99-1.72-8.24-3.552-13.04-2.513a213.152 213.152 0 01-49.76 3.968c-9.29 5.05-18.57 3.186-27.87 1.318-6.94-1.392-13.88-2.787-20.84-1.318a448.73 448.73 0 00-48.71 0c-5.66-.157-11.2-2.538-16.71-4.903-9.99-4.296-19.87-8.54-30.15.67-16.46 12.326-32.92 7.96-49.35 3.602-5.19-1.377-10.38-2.754-15.57-3.602-25.28 15.166-46.5 19.487-69.93-6.965a406.249 406.249 0 01-39.02-14.108 48.691 48.691 0 00-29.34-3.439c-7.03 5.097-13.54-1.937-20.08-8.996-7.37-7.963-14.77-15.958-22.987-6.61-6.315-1.355-12.664-3.5-19.022-5.649-22.2-7.501-44.506-15.039-65.8 10.94-6.761 5.68-13.541 3.63-20.355 1.568-8.101-2.45-16.251-4.914-24.479 5.573-5.579 2.591-11.097-.377-16.592-3.333-7.78-4.185-15.514-8.346-23.309 3.333-8.473-19.269-16.484-10.756-24.516-2.22-6.412 6.815-12.838 13.645-19.525 6.364a48.843 48.843 0 01-28.891 5.732 302.794 302.794 0 00-81.299 27.862c-10.546-8.12-20.427-1.815-30.848 4.835-6.551 4.18-13.315 8.496-20.591 9.45-4.322.565-8.95 1.688-13.728 2.846-16.061 3.896-33.824 8.204-47.401-6.815-11.891-23.365-22.372-39.237-35.232-12.168a66.002 66.002 0 01-13.741-4.055c-2.336-4.102-4.588-.671-6.83 2.743-2.915 4.44-5.811 8.85-8.849-3.36-12.265 8.095-21.437-3.734-31.144-16.253-2.98-3.844-6.011-7.752-9.197-11.17-5.273 1.12-10.075-2.44-14.998-6.088-5.931-4.397-12.037-8.923-19.354-5.55-17.001 1.863-32.106-3.52-47.317-8.94-11.426-4.072-22.911-8.165-35.303-9.224-2.427-20.288-5.691-16.39-11.777-9.117-2.748 3.284-6.073 7.256-10.155 9.999 2.466 17.634-11.011 11.462-11.715 9.346-.499 7.272-7.619 1.69-12.469-2.113-1.149-.9-2.17-1.7-2.945-2.207-4.673 2.544-5.665.293-6.686-2.023-1.386-3.141-2.824-6.403-13.573 2.023-2.466 12.168-18.938 11.903-38.932.705-3.702-.038-5.469 2.738-7.33 5.66-2.433 3.821-5.025 7.892-12.312 6.243-2.682 1.02-3.983.627-5.148.275-2.662-.805-4.608-1.393-20.66 15.596a27.058 27.058 0 00-8.808 11.728 37.854 37.854 0 00-8.809-3.44c-.176.706-25.543 11.552-13.212 4.057-5.549-.594-3.825 2.81-2.451 5.523 1.483 2.927 2.558 5.049-6.357.472-13.554 10.492-15.553 8.562-18.03 6.17-1.499-1.449-3.173-3.066-7.69-2.202.553 22.734-8.903 18.751-23.777 12.487-6.471-2.726-13.968-5.884-22.113-7.46-2.064-.752-4.25.709-7.036 2.57-6.373 4.26-15.89 10.619-34.274-2.57z" fill="#222"/><mask id="a" maskUnits="userSpaceOnUse" x="0" y="0" width="1920" height="340"><path fill-rule="evenodd" clip-rule="evenodd" d="M35.233 76.71A58.259 58.259 0 000 70.009V340h1920V47.26c-.39-.108-.82-.227-1.27-.355-7.31-2.053-22.37-6.28-32.82-2.378-12.19 7.92-13.92 10.694-15.35 10.542-1.34-.144-2.39-2.856-11.51-6.31-12.08 3.744-19.21 1.46-25.96-.702-7.07-2.267-13.72-4.399-25.22.702-10.82-.379-8.18.918-5.44 2.269 3.65 1.795 7.49 3.686-19.75 1.875-22.2-5.597-33.96.541-42.18 4.83-9.53 4.97-14.29 7.458-25.03-13.647-40.88-18.655-45.27-16.89-58.28-11.658-5.99 2.41-13.81 5.554-27.86 7.778-7.06 14.088-11.31 11.823-19.53 7.44-4.28-2.282-9.63-5.139-17.02-6.558-1.66.47-3.18.91-4.6 1.318-16.64 4.8-18 5.195-38.3-2.2-6.67 4.098-14.04 1.078-20.57-1.6-5.97-2.45-11.25-4.614-14.66-.78-12.43-1.3-21 4.188-29.31 9.513-2.41 1.543-4.79 3.071-7.24 4.418-9.01 26.562-16.38 23.388-24.93 19.706-3.99-1.72-8.24-3.551-13.04-2.512a213.157 213.157 0 01-49.76 3.967c-9.29 5.051-18.57 3.187-27.87 1.319-6.94-1.393-13.88-2.787-20.84-1.319a448.782 448.782 0 00-48.71 0c-5.66-.156-11.2-2.537-16.71-4.903-9.99-4.295-19.87-8.54-30.15.671-16.46 12.326-32.92 7.959-49.35 3.602-5.19-1.378-10.38-2.755-15.57-3.602-25.28 15.166-46.5 19.486-69.93-6.966a406.222 406.222 0 01-39.02-14.107 48.691 48.691 0 00-29.34-3.44c-7.03 5.097-13.54-1.937-20.08-8.996-7.37-7.963-14.77-15.957-22.987-6.61-6.315-1.354-12.664-3.5-19.022-5.648-22.2-7.502-44.506-15.04-65.8 10.939-6.761 5.68-13.541 3.63-20.355 1.569-8.101-2.45-16.251-4.915-24.479 5.573-5.579 2.591-11.097-.377-16.592-3.333-7.78-4.186-15.514-8.346-23.309 3.333-8.473-19.27-16.484-10.756-24.516-2.22-6.412 6.815-12.838 13.644-19.525 6.364a48.842 48.842 0 01-28.891 5.731 302.794 302.794 0 00-81.299 27.863c-10.546-8.121-20.427-1.815-30.848 4.834-6.551 4.18-13.315 8.497-20.591 9.45-4.322.566-8.95 1.688-13.728 2.847-16.061 3.895-33.824 8.203-47.401-6.815-11.891-23.366-22.372-39.237-35.232-12.168a66.008 66.008 0 01-13.741-4.056c-2.336-4.101-4.588-.67-6.83 2.743-2.915 4.44-5.811 8.851-8.849-3.36-12.265 8.095-21.437-3.733-31.144-16.253-2.98-3.843-6.011-7.752-9.197-11.169-5.273 1.12-10.075-2.44-14.998-6.089-5.931-4.396-12.037-8.923-19.354-5.55-17.001 1.863-32.106-3.52-47.317-8.94-11.426-4.072-22.911-8.164-35.303-9.223-2.427-20.289-5.691-16.39-11.777-9.117-2.748 3.284-6.073 7.255-10.155 9.998 2.466 17.635-11.011 11.463-11.715 9.347-.499 7.271-7.619 1.689-12.469-2.113-1.149-.9-2.17-1.701-2.945-2.208-4.673 2.544-5.665.294-6.686-2.022-1.386-3.142-2.824-6.403-13.573 2.022-2.466 12.168-18.938 11.904-38.932.706-3.702-.039-5.469 2.737-7.33 5.659-2.433 3.822-5.025 7.893-12.312 6.244-2.682 1.02-3.983.626-5.148.274-2.662-.804-4.608-1.392-20.66 15.597a27.058 27.058 0 00-8.808 11.727 37.859 37.859 0 00-8.809-3.439c-.176.706-25.543 11.551-13.212 4.056-5.549-.593-3.825 2.81-2.451 5.523 1.483 2.928 2.558 5.05-6.357.473-13.554 10.492-15.553 8.561-18.03 6.169-1.499-1.448-3.173-3.065-7.69-2.201.553 22.733-8.903 18.75-23.777 12.486-6.471-2.725-13.968-5.883-22.113-7.46-2.064-.751-4.25.71-7.036 2.572-6.373 4.258-15.89 10.618-34.274-2.572z" fill="#222"/></mask><g mask="url(#a)" fill="#fff"><path opacity=".6" d="M189-119h-1v469h1zm193 0h-1v469h1zm193 0h-1v469h1zm193 0h-1v469h1zm193 0h-1v469h1zm193 0h-1v469h1zm193 0h-1v469h1zm193 0h-1v469h1zm193 0h-1v469h1z"/><path opacity=".6" d="M1920 73H0v1h1920zm0 193H0v1h1920z"/></g></svg>