<svg width="1920" height="217" fill="none" xmlns="http://www.w3.org/2000/svg"><path d="M0 0h1920v120.725c-1.99.02-3.95.445-5.77 1.249a14.542 14.542 0 00-4.8 3.43 14.729 14.729 0 00-3.06 5.05 14.716 14.716 0 00-.81 5.848c-.87 13.214-20.65 12.163-22.31 11.638 4.99-1.225-16.53 1.663-37.01 3.063-35 5.776-14.87-8.751-40.86 3.15-20.3 14.877-55.91 30.804-62.56-3.062-11.9-16.889-18.37-16.189-19.42-12.339-3.59-27.653-18.55-17.502-28.96-2.275-8.75-26.253-42.09-5.601-51.98-1.925-14.17-2.976-37.71 13.388-58.88 0-13.91-6.039-29.4-2.538-49.35 3.937-8.22-16.364-44.8 11.902-31.23 9.626-16.98 19.165-11.73 14.877-27.83 2.801-23.88 27.39-40.24 7.525-55.82.875-7.35 14.264-15.22 2.187-22.49 7.438-8.74 29.315-19.51-8.751-27.38 7.788-8.75-6.213-14.53.875-21.44 16.889-9.36 23.453-11.55-4.725-22.75 8.751-20.91 3.151-37.01 47.78-58.79 7.789-17.07-6.739-35-35.879-52.5.875-17.5-9.364-35-.788-50.57-6.126-8.75-17.502-17.5 4.288-26.25-4.9-14.88-15.84-29.23-43.755-43.75-21.965-20.74-24.24-46.9-8.751-71.05-7.876-21.17-16.889-45.843 7.701-68.155 3.413-11.112 0-19.511-29.928-29.573-8.751-8.75-1.75-17.937-7.263-26.249-6.826-9.274 1.838-17.499 7.789-26.248-11.113-8.75 15.926-21.174 3.675-27.824-11.289-5.075 35.704-3.062-28.79-6.912-14.089-2.538 11.901-6.387-24.59-8.75-5.688-9.274-7-10.412-27.478-24.498-8.313-17.499-6.476-33.861-12.164-49.96-3.5-17.5-5.251-32.724-3.239-51.01-4.551-18.024-11.026-36.136 12.864-54.248 0a59.664 59.664 0 00-27.473 4.288c-4.462-20.827-8.225-6.038-12.949.7-8.75 2.363-16.012 16.452-24.761 7.876-10.762 17.501-18.725 12.688-29.399 2.537-5.337-2.8-7.962-4.112-13.299 5.251-17.499 10.851-31.849-2.625-46.46 12.426-13.825 12.514-37.536 1.4-53.81-7.351-7.612-10.151-16.187-18.814-34.998-8.75 4.025 8.75-10.325 23.977-23.799-8.751-28.261-36.666-33.511-2.888-45.235 12.514-13.299 3.325-54.073 19.076-55.56 3.937-30.711 2.013-48.122 17.502-66.059 16.715 17.499 0-30.011-18.64-22.924 9.363-17.499.613-36.748 27.565-25.548 23.802-4.813 13.127-43.223 23.015-48.298 12.339-1.575-24.152-60.284 27.653-23.011 16.102-7.175 15.926-27.036 25.027-25.374 4.025-23.449-9.188-5.775-17.064-45.323 12.164-8.05-12.951-16.798-4.726-24.673 0V0z" fill="#C45183"/></svg>