<svg width="58" height="58" fill="none" xmlns="http://www.w3.org/2000/svg"><path d="M32.96 22.46h-5.776v-5.776a2.386 2.386 0 00-2.391-2.391 2.386 2.386 0 00-2.39 2.39v5.778h-5.778a2.386 2.386 0 00-2.39 2.39 2.386 2.386 0 002.39 2.391h5.777v5.777a2.386 2.386 0 002.391 2.391 2.386 2.386 0 002.39-2.39v-5.778h5.778a2.386 2.386 0 002.39-2.39 2.393 2.393 0 00-2.39-2.391z" fill="#fff"/><path d="M24.805 44.55c-10.887 0-19.711-8.812-19.711-19.698 0-10.887 8.824-19.7 19.71-19.7 10.887 0 19.7 8.825 19.7 19.7S35.68 44.55 24.804 44.55zm32.203 9.141L43.73 40.414a24.427 24.427 0 005.579-15.562c0-13.536-10.97-24.516-24.516-24.516C11.246.336.289 11.316.289 24.852c0 13.535 10.969 24.515 24.516 24.515 5.906 0 11.32-2.086 15.55-5.566l13.278 13.277c.61.621 2.472.926 3.386 0a2.401 2.401 0 00-.011-3.387z" fill="#fff"/></svg>